<?xml version="1.0" encoding="utf-8"?>
<!-- Generator: Adobe Illustrator 23.1.0, SVG Export Plug-In . SVG Version: 6.00 Build 0)  -->
<svg version="1.1" xmlns="http://www.w3.org/2000/svg" xmlns:xlink="http://www.w3.org/1999/xlink" x="0px" y="0px"
	 viewBox="0 0 4500 4500" style="enable-background:new 0 0 4500 4500;" xml:space="preserve">
<style type="text/css">
	.st0{fill:#FEFEFE;}
	.st1{fill:#2DAA98;}
	.st2{fill:#176561;}
	.st3{fill:#3F3D56;}
	.st4{fill:#302F41;}
	.st5{fill:#575A89;}
	.st6{fill:#313043;}
	.st7{fill:#F5BCBD;}
	.st8{fill:#F9BDBD;}
	.st9{fill:#F7BBBC;}
	.st10{fill:#2D756C;}
	.st11{fill:#FCFCFC;}
	.st12{fill:#FBFBFC;}
	.st13{fill:#F8F8F9;}
	.st14{fill:#363855;}
	.st15{fill:#297168;}
	.st16{fill:#323145;}
	.st17{fill:#E5E5E5;}
	.st18{fill:#C2C6C5;}
</style>
<g id="Calque_1">
	<g>
		<path class="st0" d="M2250.02,4075.69c-731.55,0-1463.11-0.05-2194.66,0.36c-15.08,0.01-19.52-2.49-19.52-18.83
			c0.48-1204.43,0.49-2408.86-0.06-3613.3c-0.01-17.49,4.22-19.98,20.58-19.98c1462.41,0.46,2924.82,0.46,4387.23,0.01
			c16.28-0.01,20.63,2.37,20.62,19.93c-0.55,1204.43-0.54,2408.86-0.07,3613.3c0.01,16.26-4.32,18.88-19.47,18.87
			C3713.12,4075.64,2981.57,4075.69,2250.02,4075.69z M2704.1,1759.84c-0.55-6.95-1.1-13.89-1.65-20.84
			c6.62-21.17,12.72-42.45,13.02-64.88c0.16-12.31,1.58-25.14-12.8-31.56c0.3-54.91,0.63-109.81,0.83-164.72
			c0.02-4.62,1.48-12.14-4.22-12.46c-16.29-0.93-11.91-12.42-11.92-21.16c-0.17-141.84,0.58-283.67-0.34-425.5
			c-0.96-148.21-114.61-260.25-262.86-260.32c-312.87-0.16-625.74-0.14-938.61-0.01c-149.88,0.06-264.03,113.9-264.06,263.83
			c-0.14,814.86-0.08,1629.71,0.04,2444.57c0,13.16,1.19,26.35,2.45,39.46c3.5,36.29,17.83,69.16,35.35,102.71
			c-138.04,0-273.57-0.08-409.09,0.17c-10.25,0.02-12.66-2.37-11.11-13.08c4.89-33.87,3.73-67.76-1.44-101.71
			c-15.35-100.75-105.27-172.13-173.92-192.77c-9.23,45.67-7.61,91.14,1.3,136.56c-37.23-9.61-75.08-11.13-113.28-9.12
			c-10.78,0.57-15.4,3.17-10.24,14.75c32.76,73.5,79.42,132.65,159.96,157.82c5.24,1.64,13.03-0.22,15.54,7.59
			c-58.73,0.39-117.46,0.77-176.19,1.16c-3.11-0.46-2.99,1.97-2.89,3.73c0.04,0.7,1.74,1.3,2.69,1.95
			c8.28,0.46,16.57,1.31,24.85,1.31c226.69,0.07,453.38,0.05,680.07,0.09c10.1,0,19.49-1.38,27.6,9.23
			c55.4,72.49,129.54,105.17,220.47,104.98c308.05-0.65,616.1-0.52,924.15-0.08c89.31,0.13,162.07-32.7,217.21-103.3
			c5.5-7.05,10.99-11.1,20.63-11.07c102.22,0.33,204.44,0.35,306.66,0.02c12.58-0.04,14.05,3.65,9.34,14.49
			c-9.07,20.88-19.92,41.1-19.46,65.21c0.69,35.72,18.74,50.7,53.82,42.98c38.25-8.41,64.55-33.43,88.28-62.53
			c9.91-12.15,15.49-24.38,9.01-39.76c-7.97-18.89,1.12-20.63,17.65-20.55c130.73,0.61,261.46,0.36,392.19,0.26
			c6.89-0.01,14.37,1.69,23.35-4c-9.21-5.99-16.84-4.23-23.9-4.24c-131.43-0.11-262.85-0.4-394.27,0.34
			c-16.11,0.09-25.04-3.24-25.37-20.26c-0.2-10.67-8.59-15.05-15.7-20.43c0.21-7.58,1.38-15.28,0.48-22.73
			c-3.64-30.06-7.99-60.03-7.59-90.42c2.06-0.3,4.11-0.69,6.17-0.89c83.9-8.17,90.9-30.31,89.34-94.9
			c-4.18-173.24-27.36-344.72-47.62-516.46c-6.34-53.74-13.83-107.34-20.96-162.25c10.71,3.22,11.3,11.93,14.47,18.19
			c24.13,47.62,47.42,95.68,71.81,143.17c74.5,145.01,148.91,290.11,239.95,425.8c16.27,24.26,33.82,47.56,55.25,67.66
			c12.7,11.91,25.25,15.95,43.01,7.79c39-17.91,79.13-33.35,118.8-49.8c23.09,31.8,49.63,61.15,68.13,96.2
			c-7.2,0.61-9.27,4.93-8.25,11.45c3.76,23.96,5.81,48.26,15.24,71.03c5.45,13.15,14.16,20.55,28.87,23.71
			c38.59,8.29,77.82,15.79,112.72,35.28c21.94,12.25,44.7,18.74,69.42,18.27c29.19-0.55,41.57-16.85,34.8-45.32
			c-7.26-30.54-26.55-53.13-50.18-72.26c-19.98-16.17-41.26-30.78-60.92-47.31c-12.33-10.37-25.23-16.39-41.31-15.24
			c-8-11.13-15.94-22.3-24.01-33.38c-21.33-29.28-46-56.08-64.64-87.35c23.11-24.16,23.35-24.3,5.77-52.53
			c-69.99-112.4-139.85-224.89-210.28-337.01c-108.04-172-216.52-343.72-324.82-515.56c23.11-20.95,35.62-47.1,37.18-78.16
			c1.33-26.39,1.23-52.76-1.64-79.13c-10.04-92.23-34.09-181.27-60.67-269.75c-8.71-29-19.47-35.39-49.23-30.95
			c-17.73,2.64-35.2,7.68-53.42,6.21c2.68-45.74,6.05-91.55,2.47-137.32c-4.61-58.86-26.95-108.93-78.2-142.08
			c-11.06-7.15-13.5-13.76-12.02-26.58c3.99-34.51-21.31-66.83-54.6-72.72c-37.05-6.55-70.79,14.18-80.64,49.28
			c-1.77,6.31-0.72,13.63-6.83,20.17c-7.6-38.85,5.59-66.5,41.39-85.23c-41.78,2.57-67.67,44.52-55.72,85.75
			c2.06,7.09,8.29,13.66-3.11,20.73c-34.73,21.55-56.35,54.55-74.68,90.16c-11.34,22.02-19.98,45.48-34.55,65.8
			C2705.83,1759.2,2704.99,1759.15,2704.1,1759.84z"/>
		<path class="st1" d="M2658,965.73c-474.49,0-948.98,0-1423.47,0c5.26-20.26,15.36-48.88,36.27-77.33
			c29.3-39.88,78.07-77.02,200-104c90.26-19.97,160.64-21.1,334.4-17.6c122.97,2.47,215.21,5.6,246.29,6.61
			c95.38,3.08,233.74,6.11,404.81,4.65c21.94,2.73,72.34,12.06,120.1,51.15C2637.99,879.61,2653.96,945.78,2658,965.73z"/>
		<rect x="1261.2" y="936.4" class="st2" width="1379.96" height="150.4"/>
		<path class="st3" d="M665.07,3438.11c-8.91-45.42-10.54-90.9-1.3-136.56c68.65,20.64,158.57,92.03,173.92,192.77
			c5.17,33.96,6.33,67.85,1.44,101.71c-1.55,10.72,0.87,13.1,11.11,13.08c135.53-0.25,271.06-0.17,409.09-0.17
			c-17.52-33.55-31.85-66.42-35.35-102.71c-1.26-13.11-2.45-26.31-2.45-39.46c-0.12-814.86-0.18-1629.71-0.04-2444.57
			c0.03-149.92,114.17-263.76,264.06-263.83c312.87-0.13,625.74-0.15,938.61,0.01c148.25,0.07,261.9,112.12,262.86,260.32
			c0.92,141.83,0.17,283.67,0.34,425.5c0.01,8.74-4.37,20.24,11.92,21.16c5.7,0.32,4.23,7.84,4.22,12.46
			c-0.21,54.91-0.53,109.81-0.83,164.72c-17.7-3.24-28.2,7.65-38.31,19.43c-12.24,14.26-17.68,32.41-27.62,47.97
			c-8.53-7.14-4.74-16.89-4.75-25.42c-0.22-223.89-0.16-447.79-0.19-671.68c-0.01-81.09-62.83-159.58-141.56-179.83
			c-50.13-12.9-100.82-5.53-151.2-8.24c-18.82-1.01-23.96,5.6-17.58,23.22c3.09,8.52,1.83,17.64-0.31,26.67
			c-14.07,59.54-48.62,78.48-104.03,79.02c-171.03,1.67-342.09,0.77-513.14,0.33c-15.01-0.04-30.4-2.58-44.93-6.51
			c-43.17-11.68-67.55-53.26-61.35-106.79c1.67-14.41-2.07-16.18-14.26-15.94c-29.89,0.59-59.79,0.19-89.69,0.19
			c-58.98,0.01-110.23,22.32-146.28,59.48c-44.68,46.06-52.7,108.5-55.17,141.36c-24.42,324.79,13.8,2218.42,4.08,2315.38
			c-0.49,4.87-5.02,44.28-4.02,98.09c0.55,29.5,2.5,54.55,3.55,62.11c12.03,87.14,94.64,161.17,182.24,161.17
			c319.85,0.03,639.69-0.78,959.54,0.44c110.68,0.42,195.56-89.86,194.34-195.24c-1.09-93.86-0.25-187.73-0.22-281.6
			c0.09-326.8,0.2-653.6,0.3-980.4c18.47,8.65,36.93,17.3,55.4,25.95c-0.1,10.42-0.28,20.84-0.28,31.26
			c-0.01,398.79-0.2,797.59,0.23,1196.38c0.05,48.94-8.49,95.13-32.14,138.19c-1.63,2.96-4.2,5.66-1.46,11.45c5.7,0,12.42,0,19.14,0
			c95.18,0,190.37-0.47,285.54,0.42c17.65,0.17,27.79-3.85,28.86-22.46c0.9-15.72,8.87-25.48,24.5-28.65
			c22.33,0.09,45.65-6.1,65.36,10.4c7.1,5.37,15.49,9.75,15.69,20.42c0.32,17.01,9.26,20.35,25.37,20.26
			c131.42-0.74,262.85-0.45,394.27-0.34c7.05,0.01,14.69-1.76,23.9,4.24c-8.98,5.69-16.47,3.99-23.35,4
			c-130.73,0.11-261.46,0.35-392.19-0.26c-16.52-0.08-25.62,1.66-17.65,20.55c6.49,15.38,0.9,27.61-9.01,39.76
			c-23.73,29.1-50.03,54.12-88.28,62.53c-35.08,7.71-53.12-7.26-53.82-42.98c-0.47-24.11,10.38-44.33,19.46-65.21
			c4.71-10.84,3.23-14.53-9.34-14.49c-102.22,0.33-204.44,0.31-306.66-0.02c-9.63-0.03-15.12,4.03-20.63,11.07
			c-55.13,70.6-127.9,103.43-217.21,103.3c-308.05-0.44-616.1-0.57-924.15,0.08c-90.94,0.19-165.08-32.49-220.47-104.98
			c-8.11-10.62-17.5-9.23-27.6-9.23c-226.69-0.05-453.38-0.02-680.07-0.09c-8.29,0-16.57-0.86-24.85-1.31
			c0.07-1.89,0.13-3.79,0.19-5.68c58.73-0.39,117.46-0.77,176.19-1.16c35.68,7.06,71.7,2.58,107.56,2.82
			c11.94,0.08,7.98-10.38,7.64-17.58c0.48-11.11,0.96-22.22,1.45-33.33c4.9-112.61-47.61-190.42-145.04-242.09
			c-17.79-9.44-20.42-2.81-21.45,12.47c-2.49,36.96-1.42,73.63,7.71,109.75C671.64,3440.16,668.35,3439.14,665.07,3438.11z"/>
		<path class="st4" d="M3640.36,3293.86c-39.67,16.45-79.8,31.89-118.8,49.8c-17.76,8.16-30.31,4.12-43.01-7.79
			c-21.43-20.1-38.97-43.41-55.25-67.66c-91.04-135.69-165.44-280.79-239.95-425.8c-24.4-47.49-47.68-95.54-71.81-143.17
			c-3.17-6.26-3.76-14.97-14.47-18.19c7.13,54.91,14.62,108.51,20.96,162.25c20.26,171.74,43.44,343.22,47.62,516.46
			c1.56,64.59-5.44,86.73-89.34,94.9c-2.07,0.2-4.12,0.59-6.17,0.89c-25.12-0.45-50.25-0.89-75.37-1.33
			c-17.28-1.53-34.54-4.18-51.83-4.31c-23.74-0.19-39.09-11.23-49.08-31.92c-12.59-26.08-17.42-54.02-20.17-82.4
			c-9.58-98.59-2.33-197.05,2.14-295.57c4.42-97.34,17.48-194.48-13.77-291.11c-19.39-59.96-11.94-125.57-27-187.08
			c-11.2-45.74-6.2-90.01,11.56-132.44c8.97-21.42,11.55-42.38,9.77-64.71c4.56-5.99,11.25-4.07,17.15-4.27
			c41.88-1.46,83.77-2.69,125.65-3.99c2.51,4.05,6.49,7.84,7.26,12.2c2.93,16.55,13.78,18.77,27.48,16.56
			c42.19-6.78,83.88-15.21,123.61-31.9c10.5-4.41,20.72-11.79,33.36-9.46c108.29,171.84,216.77,343.57,324.82,515.56
			c70.43,112.12,140.29,224.61,210.28,337.01c17.58,28.23,17.35,28.37-5.77,52.53C3694.81,3266.03,3667.43,3279.67,3640.36,3293.86z
			"/>
		<path class="st5" d="M3190.9,2343.82c-12.63-2.33-22.85,5.04-33.36,9.46c-39.72,16.69-81.42,25.12-123.61,31.9
			c-13.7,2.2-24.55-0.02-27.48-16.56c-0.77-4.36-4.75-8.15-7.26-12.2c-2.7-18.81-13.76-34.65-18.73-52.57
			c-4-14.41-11.85-17.69-25.86-14.34c-52.37,12.52-105.57,11.1-158.79,7.97c-4.59-15.92-9.66-31.73-13.56-47.83
			c-1.63-6.74-3.73-9.54-11-8.18c-28.87,5.39-56.29-2.46-83.74-9.75c-18.47-8.65-36.93-17.3-55.4-25.95
			c-45.49-33.92-88.53-70.08-125.91-113.52c-34.65-40.27-55.34-82.32-41.52-136.19c6.96-15.22,13.92-30.44,20.88-45.67
			c24.34-29.52,46.54-61.2,81.18-80.31c18.84,14.31,33.75,33.83,56.65,42.78c-0.38,8.42,13.57,14.43,4.11,24.38
			c-11.31,9.45-22.75,19.72-20.25,35.9c1.94,12.6,14.36,12.98,24.5,14.75c-1.28,3.88-2.21,7.93-3.91,11.62
			c-9.81,21.21-8.01,25.55,14.18,34.69c14.7,6.06,29.97,2.39,44.98,3.21c26.86,4.82,52.93,9.51,80.59-0.34
			c42.15-15,86.26-23.25,130.71-28.99c21.4,29.32,42.79,58.63,66.87,91.62c25.01-56.98,48.03-109.44,71.05-161.89
			c9.05-1.56,19.36,2.76,26.91-5.78c18.21,1.48,35.69-3.57,53.42-6.21c29.76-4.43,40.51,1.95,49.23,30.95
			c26.58,88.48,50.64,177.52,60.67,269.75c2.87,26.37,2.97,52.74,1.64,79.13C3226.51,2296.73,3214.01,2322.87,3190.9,2343.82z
			 M3099.4,2098.64c-1.13-0.1-2.27-0.2-3.4-0.3c-3.14,33.51-7.12,66.97-9.01,100.54c-0.78,13.89-6.1,21.77-18.26,26.89
			c-27.4,11.52-54.73,23.22-81.9,35.27c-7.87,3.49-17.22,5.06-26.26,16.14c44.68-10.42,84.74-20.12,125-28.89
			c10.18-2.22,13.97-6.96,13.93-16.86C3099.3,2187.17,3099.4,2142.91,3099.4,2098.64z"/>
		<path class="st6" d="M3063.12,1892.04c-7.55,8.54-17.86,4.22-26.91,5.78c-18.78-15.92-33.87-34.7-44.26-57.12
			c-4.61-9.94-5.88-18.61,2.64-28.36c12.12-13.86,16.8-31.6,20.14-49.56c2.04-10.97,0.09-17.01-13.22-15.99
			c-15.21,1.17-30.55,0.51-45.84,0.72c-42.69,0.58-42.67,0.59-49.66-40.8c-1.3-7.71-2.87-15.38-4.32-23.07
			c-7.06,15.59-12.28,31.29-15.19,47.42c-3.04,16.84-15.41,13.17-25.73,13.32c-12.97,0.19-7.65-10.49-8.52-16.98
			c-0.74-5.48-0.15-11.15-0.15-16.73c-6.49,6.16-9.97,12.24-11.85,18.78c-3.83,13.3-11.5,19.94-25.76,17.55
			c-15.13-2.54-17.66,5.6-15.34,18.07c7.72,41.51,30.77,70.54,70.13,86.27c7.55,3.02,15.58,4.01,19.1,13.77
			c10.24,28.42,18.37,56.87,10.5,87.37c-38.87,0.91-77.76,1.43-116.61,2.95c-14.09,0.55-19.58-5-21.15-18.63
			c-1.89-16.41-5.9-32.57-9.64-52.25c-3.02,6.81-4.68,9.84-5.73,13.06c-4.9,15.16-5.7,33.86-15.35,44.75
			c-14.15,15.96-28.13-10.36-44.21-7.13c-0.72-2.6-0.63-6.03-2.29-7.68c-24.04-23.92-20.06-51.36-12.65-80.71
			c7.14-28.3,26.58-51.26,32.03-79.95c3.3-1.23,3.9-3.78,3.36-6.88c14.58-20.32,23.22-43.78,34.56-65.81
			c18.33-35.61,39.94-68.61,74.68-90.16c11.4-7.07,5.16-13.64,3.11-20.73c-11.95-41.23,13.95-83.17,55.72-85.75
			c-35.81,18.74-49,46.38-41.39,85.23c6.12-6.55,5.06-13.87,6.83-20.17c9.85-35.1,43.59-55.83,80.64-49.28
			c33.3,5.89,58.6,38.21,54.6,72.72c-1.48,12.82,0.95,19.43,12.02,26.58c51.25,33.14,73.59,83.22,78.2,142.08
			C3069.17,1800.49,3065.79,1846.3,3063.12,1892.04z"/>
		<path class="st2" d="M832.25,3594.38c0.34,7.2,4.3,17.66-7.64,17.58c-35.86-0.23-71.89,4.24-107.56-2.82
			c-2.51-7.81-10.3-5.95-15.54-7.59c-80.53-25.17-127.19-84.32-159.96-157.82c-5.16-11.58-0.54-14.18,10.24-14.75
			c38.2-2.01,76.05-0.49,113.28,9.12c3.28,1.02,6.56,2.05,9.85,3.07c65.16,22.15,109.68,67.3,141.6,126.69
			C821.37,3576.9,824.35,3587.14,832.25,3594.38z"/>
		<path class="st6" d="M3808.88,3369.66c16.08-1.15,28.98,4.87,41.31,15.24c19.66,16.54,40.93,31.14,60.92,47.31
			c23.64,19.13,42.92,41.72,50.18,72.26c6.77,28.47-5.61,44.77-34.8,45.32c-24.72,0.47-47.48-6.02-69.42-18.27
			c-34.91-19.49-74.13-26.99-112.72-35.28c-14.71-3.16-23.42-10.56-28.87-23.71c-9.43-22.77-11.48-47.07-15.24-71.03
			c-1.02-6.52,1.05-10.84,8.24-11.45c15.04,3.28,28.46,10.4,41.24,18.53c10.87,6.92,18.83,5.12,22.31-6.96
			C3777.52,3382.58,3790.98,3373.83,3808.88,3369.66z"/>
		<path class="st7" d="M2623.39,1872.88c-22.89-8.95-37.8-28.47-56.64-42.78c26.18-38.39,63.1-70.51,70-120.14
			c9.94-15.57,15.38-33.72,27.62-47.97c10.11-11.78,20.6-22.67,38.31-19.43c14.39,6.41,12.97,19.24,12.81,31.55
			c-0.3,22.44-6.4,43.71-13.02,64.88C2686.57,1789.81,2652.27,1829.75,2623.39,1872.88z"/>
		<path class="st8" d="M3808.88,3369.66c-17.9,4.17-31.36,12.92-36.85,31.97c-3.48,12.08-11.44,13.88-22.31,6.96
			c-12.77-8.14-26.2-15.25-41.24-18.53c-18.49-35.05-45.04-64.4-68.12-96.2c27.07-14.19,54.45-27.83,79.87-44.93
			c18.64,31.27,43.31,58.07,64.64,87.35C3792.94,3347.36,3800.88,3358.53,3808.88,3369.66z"/>
		<path class="st3" d="M2623.39,1872.88c28.89-43.13,63.19-83.07,79.07-133.88c0.55,6.95,1.1,13.89,1.65,20.83
			c-0.28,2.35-0.56,4.7-0.84,7.06c-5.45,28.7-24.89,51.65-32.03,79.95c-7.41,29.35-11.39,56.79,12.65,80.71
			c1.66,1.66,1.57,5.08,2.29,7.68c0.27,20.73,0.55,41.46,0.82,62.19c-15.01-0.83-30.28,2.84-44.98-3.21
			c-22.19-9.14-23.99-13.48-14.18-34.69c1.71-3.69,2.63-7.74,3.91-11.62c-2.06-16.83,4.76-34.4-4.25-50.64
			C2636.95,1887.31,2623.01,1881.3,2623.39,1872.88z"/>
		<path class="st9" d="M2994.78,3454.22c25.12,0.44,50.25,0.89,75.37,1.33c-0.41,30.39,3.94,60.36,7.58,90.42
			c0.9,7.45-0.26,15.14-0.47,22.73c-19.71-16.5-43.03-10.31-65.36-10.4C3010.55,3522.89,2999,3489.16,2994.78,3454.22z"/>
		<path class="st7" d="M2703.26,1766.89c0.28-2.36,0.56-4.71,0.84-7.06c0.89-0.68,1.73-0.63,2.51,0.17
			C2707.16,1763.11,2706.56,1765.66,2703.26,1766.89z"/>
		<path class="st10" d="M540.87,3610.31c-0.06,1.9-0.12,3.79-0.19,5.68c-0.95-0.65-2.65-1.25-2.69-1.95
			C537.88,3612.28,537.76,3609.85,540.87,3610.31z"/>
		<path class="st11" d="M2994.78,3454.22c4.22,34.94,15.77,68.67,17.12,104.08c-15.63,3.17-23.6,12.93-24.5,28.65
			c-1.07,18.6-11.21,22.62-28.86,22.46c-95.17-0.89-190.36-0.42-285.54-0.42c-6.72,0-13.44,0-19.14,0
			c-2.74-5.79-0.16-8.49,1.46-11.45c23.65-43.06,32.19-89.25,32.14-138.19c-0.43-398.79-0.24-797.59-0.23-1196.38
			c0-10.42,0.19-20.84,0.28-31.26c27.45,7.29,54.87,15.15,83.74,9.75c7.26-1.36,9.36,1.44,11,8.18c3.9,16.09,8.96,31.9,13.55,47.82
			c-10.37,4.98-20.85,9.76-31.08,15.01c-11.6,5.96-17.54,15.81-15.59,28.72c1.73,11.44,10.6,16.7,20.99,20.28
			c7.33,2.52,14.65,3.44,22.26,3.4c21.33-0.1,42.67-0.13,64-0.19c1.78,22.33-0.8,43.28-9.77,64.71
			c-17.76,42.42-22.76,86.69-11.56,132.44c15.07,61.51,7.61,127.12,27,187.08c31.25,96.63,18.19,193.77,13.77,291.11
			c-4.47,98.52-11.72,196.98-2.14,295.57c2.76,28.38,7.59,56.32,20.17,82.4c9.99,20.7,25.34,31.74,49.08,31.92
			C2960.24,3450.04,2977.5,3452.69,2994.78,3454.22z"/>
		<path class="st12" d="M832.25,3594.38c-7.91-7.25-10.88-17.48-15.73-26.51c-31.92-59.38-76.44-104.53-141.6-126.69
			c-9.13-36.13-10.2-72.79-7.71-109.75c1.03-15.28,3.66-21.91,21.45-12.47c97.43,51.68,149.95,129.48,145.04,242.09
			C833.21,3572.16,832.73,3583.27,832.25,3594.38z"/>
		<path class="st9" d="M2856.39,2364.68c-21.33,0.06-42.67,0.1-64,0.19c-7.61,0.03-14.93-0.88-22.26-3.4
			c-10.38-3.57-19.26-8.83-20.99-20.28c-1.95-12.91,3.99-22.76,15.59-28.72c10.23-5.25,20.71-10.03,31.08-15.01
			c53.23,3.13,106.43,4.56,158.8-7.97c14.01-3.35,21.86-0.07,25.86,14.34c4.97,17.92,16.03,33.77,18.73,52.57
			c-41.88,1.3-83.77,2.53-125.65,3.99C2867.64,2360.62,2860.95,2358.69,2856.39,2364.68z"/>
		<path class="st9" d="M2898.86,1952.49c7.87-30.5-0.25-58.95-10.5-87.37c-3.52-9.75-11.55-10.75-19.1-13.77
			c-39.36-15.73-62.41-44.76-70.13-86.27c-2.32-12.47,0.21-20.61,15.34-18.07c14.26,2.4,21.92-4.25,25.76-17.55
			c1.89-6.54,5.36-12.62,11.85-18.78c0,5.58-0.59,11.24,0.15,16.73c0.88,6.5-4.45,17.17,8.52,16.98
			c10.32-0.15,22.69,3.52,25.73-13.32c2.91-16.13,8.13-31.83,15.19-47.42c1.45,7.69,3.02,15.35,4.32,23.07
			c6.99,41.39,6.96,41.38,49.66,40.8c15.28-0.21,30.63,0.45,45.84-0.72c13.31-1.02,15.26,5.02,13.22,15.99
			c-3.34,17.95-8.02,35.69-20.14,49.56c-8.52,9.75-7.25,18.42-2.64,28.36c10.39,22.42,25.49,41.19,44.26,57.12
			c-23.02,52.46-46.04,104.91-71.05,161.9c-24.08-32.99-45.47-62.31-66.86-91.62C2898.49,1962.9,2898.67,1957.69,2898.86,1952.49z"
			/>
		<path class="st13" d="M2898.86,1952.49c-0.18,5.21-0.37,10.41-0.56,15.62c-44.45,5.74-88.56,13.98-130.71,28.99
			c-27.66,9.85-53.74,5.16-80.59,0.34c-0.27-20.73-0.55-41.46-0.82-62.19c16.08-3.23,30.06,23.09,44.21,7.13
			c9.65-10.89,10.45-29.59,15.35-44.75c1.04-3.23,2.71-6.25,5.73-13.06c3.74,19.68,7.75,35.84,9.64,52.25
			c1.57,13.64,7.06,19.19,21.15,18.63C2821.1,1953.92,2859.98,1953.4,2898.86,1952.49z"/>
		<path class="st14" d="M3099.4,2098.64c0,44.27-0.1,88.54,0.08,132.8c0.04,9.9-3.75,14.64-13.93,16.86
			c-40.26,8.77-80.32,18.47-125,28.89c9.04-11.09,18.39-12.65,26.26-16.14c27.17-12.05,54.5-23.75,81.9-35.27
			c12.16-5.11,17.48-13,18.26-26.89c1.89-33.58,5.88-67.04,9.01-100.54C3097.13,2098.44,3098.27,2098.54,3099.4,2098.64z"/>
		<path class="st15" d="M2464.69,1956.07c-3.42-0.06-6.85-0.17-10.27-0.18c-25.53-0.14-34.92-13.85-26.87-38.41
			c2.31-7.05,7.31-7.21,12.83-7.23c15.06-0.03,30.13,0.08,45.19,0.15C2478.6,1925.62,2471.65,1940.85,2464.69,1956.07z"/>
		<path class="st16" d="M2627.49,1897.26c9,16.24,2.18,33.81,4.25,50.64c-10.14-1.77-22.56-2.14-24.5-14.74
			C2604.75,1916.98,2616.19,1906.71,2627.49,1897.26z"/>
		<path class="st2" d="M1292.83,3392.15c1178.47-13.03,1231.56-9.69,1337.75-3.02c0.09,0.01,0.9,0.06,0.95,0.06
			c-0.06,0,4.65,52.97,0.16,92.67c-1.62,14.36-6.32,55.97-31.86,94.75c-40.18,61.03-128.11,83.59-128.11,83.6
			c-653.93,5.54-855.8,4.56-909.73,2.34c-3.64-0.15-109.12-4.51-109.12-4.51l0,0c0,0-64.2-13.05-103.92-52.65
			c-4.13-4.12-44.3-45.19-53.03-104c-2.72-18.35-3.21-43.95-3.55-62.11C1292.04,3421.27,1292.86,3392.15,1292.83,3392.15z"/>
		<rect x="1520.4" y="3459.67" class="st0" width="908.8" height="134.71"/>
		<circle class="st17" cx="1422.8" cy="1011.6" r="49.6"/>
		<path class="st2" d="M1813.2,1357.2H1410c-35.35,0-64-28.65-64-64v-64c0-35.35,28.65-64,64-64h403.2c35.35,0,64,28.65,64,64v64
			C1877.2,1328.55,1848.55,1357.2,1813.2,1357.2z"/>
		<path class="st18" d="M2328.85,1574.8h191.78c26.55,0,48.08-21.53,48.08-48.08v-35.04c0-26.55-21.53-48.08-48.08-48.08h-191.78
			c-26.55,0-48.08,21.53-48.08,48.08v35.04C2280.77,1553.27,2302.3,1574.8,2328.85,1574.8z"/>
		<rect x="2514.34" y="1520.4" class="st18" width="54.4" height="54.4"/>
		<rect x="1346" y="1232.4" class="st2" width="246.4" height="124.8"/>
		<path class="st2" d="M1669.73,1848.23h-251.2c-35.35,0-64-28.65-64-64v-24.9c0-35.35,28.65-64,64-64h251.2c35.35,0,64,28.65,64,64
			v24.9C1733.73,1819.58,1705.08,1848.23,1669.73,1848.23z"/>
		<rect x="1354.53" y="1748.85" class="st2" width="175.89" height="99.38"/>
		<path class="st17" d="M2119.87,1011.6h-596.8c-7.07,0-12.8-5.73-12.8-12.8l0,0c0-7.07,5.73-12.8,12.8-12.8h596.8
			c7.07,0,12.8,5.73,12.8,12.8l0,0C2132.67,1005.87,2126.94,1011.6,2119.87,1011.6z"/>
		<path class="st17" d="M1692.13,1045.73h-165.87c-7.07,0-12.8-5.73-12.8-12.8l0,0c0-7.07,5.73-12.8,12.8-12.8h165.87
			c7.07,0,12.8,5.73,12.8,12.8l0,0C1704.93,1040,1699.2,1045.73,1692.13,1045.73z"/>
	</g>
</g>
<g id="Calque_2">
	<path class="st2" d="M-305.72,4299.52c-61.27,0.01-111.75-50.5-111.75-111.81c0.01-61.36,50.34-111.66,111.73-111.66
		c61.49,0.01,111.75,50.22,111.73,111.64C-194.02,4249.03-244.45,4299.51-305.72,4299.52z"/>
</g>
</svg>
