<?xml version="1.0" encoding="utf-8"?>
<!-- Generator: Adobe Illustrator 23.1.0, SVG Export Plug-In . SVG Version: 6.00 Build 0)  -->
<svg version="1.1" xmlns="http://www.w3.org/2000/svg" xmlns:xlink="http://www.w3.org/1999/xlink" x="0px" y="0px"
	 viewBox="0 0 4500 4500" style="enable-background:new 0 0 4500 4500;" xml:space="preserve">
<style type="text/css">
	.st0{fill:#302F42;}
	.st1{fill:#E5E5E5;}
	.st2{fill:#E3E3E3;}
	.st3{fill:#EFEFEF;}
	.st4{fill:#313043;}
	.st5{fill:#31796F;}
	.st6{fill:#333244;}
	.st7{fill:#2D766C;}
	.st8{fill:#E6E6E6;}
	.st9{fill:#CBCBCB;}
	.st10{fill:#424058;}
	.st11{fill:#FBB6B6;}
	.st12{fill:#FDFCFD;}
	.st13{fill:#FEFEFE;}
	.st14{fill:#2A756B;}
	.st15{fill:#9B616A;}
	.st16{display:none;}
	.st17{display:inline;fill:#176561;}
</style>
<g id="Calque_1">
	<g>
		<path class="st0" d="M1176.25,2947.18c11.25,72.56,22.64,145.05,27.9,218.44c7.87,109.84-13.15,214.83-48.18,318.1
			c-18.94,55.84-37.16,112-49.46,169.83c-2.75,12.94-4.44,24.59-0.59,38.88c7.01,26.08-16.94,17.24-29.6,20.54
			c-28.26-0.52-56.53-1.04-84.8-1.56c-9.22-0.97-18.43-2.07-27.67-2.86c-7.37-0.63-13.68-2.43-13.37-11.52
			c0.24-7.2,3.26-15.81,10.55-14.83c19.03,2.55,17.1-11.42,19.09-21.82c18.5-97.05,37.71-193.98,54.7-291.3
			c13.64-78.15,14.51-155.31-16.3-231.48c-28.76-71.1-52.14-144.37-77.8-216.71c-2.03-5.74-2.92-12.03-10.63-16.34
			c-43.8,223.55-87.42,445.58-130.71,667.67c-8.71,44.7-20.06,89.42-22.59,134.56c-1.21,21.55-6.16,26.6-23.95,27.31
			c-25.54-0.09-51.09-0.19-76.63-0.28c-2.51-0.26-5.02-0.52-7.53-0.78c-9.61-1.01-21.39,3.44-27.04-8.38
			c-5.3-11.08,3.21-16.4,10.64-22.44c2.58-2.1,3.14-7.46,3.47-11.42c4.07-48.64,7.93-97.29,11.84-145.94
			c5.96-61.34,12.62-122.63,17.28-184.07c0.97-12.72-9.85-26.75-7.8-38.91c7.68-45.41,2.46-91.61,10.4-136.75
			c1.6-9.12,3.93-17.94,3.62-27.31c-3.4-103.96-6.6-207.93-10.22-311.88c-0.38-10.89-3.11-21.7-4.75-32.55
			c-2.61-64.94,6.43-127.92,30.32-188.68c5.38-13.69,12.33-21.57,27.98-24.84c75.18-15.72,150.07-32.85,225-49.75
			c31.08-7.01,38.57-3.91,53.46,24.7c3.11,5.97,5.66,12.26,8.06,18.56c27.67,72.59,49.68,147.03,72.72,221.15
			c2.91,9.37,0.72,23.47,15.84,26.05c5.23,18.24,11.41,34.86-5.21,52.94c-12.28,13.36-7.61,31.91,3.65,46.59
			c12.28,16,29.02,18.67,47.6,14.67C1162.78,2953.2,1167.79,2945.47,1176.25,2947.18z"/>
		<path class="st1" d="M1109.49,2840.56c-15.12-2.58-12.92-16.68-15.84-26.05c-23.04-74.12-45.05-148.56-72.72-221.15
			c-2.4-6.3-4.95-12.59-8.06-18.56c-14.89-28.62-22.38-31.71-53.46-24.7c-74.93,16.9-149.82,34.04-225,49.75
			c-15.65,3.27-22.6,11.16-27.98,24.84c-23.89,60.76-32.93,123.74-30.32,188.68c-11.3,4.99-5.1,24.29-20.92,25.59
			c-21.44,0.04-42.89,0.07-64.34,0.11c-12.81-34.23-7.09-69.64-3.68-104.09c2.69-27.23,9.05-54.68,20.53-80.37
			c2.6-5.82,3.66-13.78,1.99-19.81c-8.15-29.41,2.33-55.83,9.82-83.43c10.8-39.8,9.14-81.56,14.62-122.34
			c9.51-70.71,20.36-141.61,16.93-213.59c-0.85-17.76-5-35.14-5.07-52.62c-0.26-65.25,30.67-113.94,83.38-150.15
			c3.47-2.39,6.96-4.78,10.63-6.84c30.09-16.96,54.42-34.3,49.6-77.28c-3.4-30.37,10.65-38.38,42.47-39.06
			c20.28-0.43,40.59-0.21,60.88-0.11c39.42,0.19,47.28,7.11,51.93,45.43c6.09,50.16,31.34,77.3,80.44,86.43
			c38.54,7.17,66.08,40.78,67.22,79.86c1.63,55.48,11.3,110.16,17.97,165.13c7.38,60.8,14.35,121.66,22.7,182.32
			c6.16,44.78,3.68,90.97,21.34,133.97c2.19,5.33,4.86,12.08,3.41,17.03c-13.33,45.44,13.75,84.91,17.89,127.6
			c3.61,37.26,8.42,74.84-2.83,111.84C1151.85,2839.51,1130.67,2840.03,1109.49,2840.56z"/>
		<path class="st2" d="M3168.93,934.93c390.81,0,781.62,0,1172.43,0c36.01,0,36.01,0.03,36.04,36.71
			c0.06,69.89,0.06,69.89-68.88,69.89c-769.78,0-1539.55,0-2309.33,0c-38.57,0-38.57-0.02-38.58-39.29
			c-0.02-67.31-0.02-67.31,66.35-67.31C2407.61,934.93,2788.27,934.93,3168.93,934.93z M4250.31,980.74
			c-10.88,0-21.76-0.08-32.64,0.04c-5.1,0.06-10.92,0.52-11.3,7.01c-0.39,6.64,5.26,7.75,10.44,7.78c22.6,0.12,45.2,0.14,67.8-0.03
			c5.17-0.04,10.72-1.32,9.97-8.12c-0.72-6.57-6.62-6.57-11.62-6.65C4272.07,980.62,4261.19,980.73,4250.31,980.74z M2128.11,982.47
			c-0.18-11.21-5.79-16.83-17.14-16.99c-12.59-0.18-18.49,5.87-18.28,18.41c0.22,13.15,7.68,17.53,19.65,16.94
			C2124.09,1000.25,2128.35,993.37,2128.11,982.47z M2056.82,983.24c-2.51-10.07-8.53-17.57-20.45-17.39
			c-12.16,0.19-15.08,8.54-14.75,18.99c0.37,11.69,7.02,16.2,17.99,16.07C2050.76,1000.77,2056.92,995.69,2056.82,983.24z
			 M2180.79,965.6c-7.34,2.09-16.28,6.74-16.06,17.29c0.25,11.5,8.63,17.9,20.31,17.63c10.57-0.24,14.12-7.39,14.2-17.01
			C2199.33,972.61,2194.94,965.82,2180.79,965.6z M4293.07,1013.88c-0.06-1.45-0.11-2.91-0.17-4.36c-28.31,0-56.63,0-84.94,0
			c0.12,1.45,0.23,2.91,0.35,4.36C4236.56,1013.88,4264.82,1013.88,4293.07,1013.88z M4208.27,967.86
			c28.19,2.23,56.37,4.45,91.74-0.07C4273.09,958,4226.45,958.23,4208.27,967.86z"/>
		<path class="st3" d="M667.58,3544.84c-3.91,48.65-7.77,97.31-11.84,145.94c-0.33,3.97-0.89,9.32-3.47,11.42
			c-7.43,6.04-15.93,11.36-10.64,22.44c5.65,11.82,17.43,7.37,27.04,8.38c2.51,0.26,5.02,0.52,7.52,0.78
			c0.09,38.47,0.18,76.94,0.28,115.4c-11.99,0.5-17.1,6.09-17.97,18.73c-2.6,37.62-6.58,75.14-10.03,112.7
			c-95.84-0.14-191.68-0.28-287.52-0.42c-15.53-22.6-40.38-34.33-60.63-51.4c-56.61-47.7-99.26-103.92-132-171.49
			c-30.62-63.21-45.88-126.76-45.73-195.58c0.07-30.57,5.56-60.06,17.35-91.24c3.95,9.39,6.99,16.62,10.06,23.94
			c6.65-4.34-0.96-13.61,8.07-17.81c76.25,123.51,184.34,210.02,319.79,273.85c-12.93-54.36-10.48-103.88-9.51-153.2
			c0.27-13.86-8.9-34.58,18.05-37.91c3.86-0.48,1.82-11.17-1.61-15.99c-7.89-11.06-5.14-22.04-1.85-33.65
			c23.06-81.36,64.52-150.92,130.86-204.51c3.04-2.46,7.62-3.01,11.49-4.45c1.67,6.08-8.04,14.49-0.94,17.01
			c7.86,2.79,4.77-7.23,6-11.89c2.82,1.52,8.26,3.66,8.07,4.46c-8.04,33.65,3.58,68.86-8.08,102.14
			c-34.08,9.06-34.6,8.76-35.54-20.31c4.13-2.17,4.97-5.98,5.07-10.15c1.99-1.82,6.55-2.91,1.86-6.61c-0.62,2.2-1.24,4.41-1.86,6.61
			c-4.13,2.16-4.98,5.97-5.08,10.15c-6.93,6.99-7.75,16.45-10.17,25.26c-15,54.69-23.79,110.15-20.26,167.06
			c1.02,16.46,1.17,31.5-26.86,24.86c25.26,3.9,26.67,17.72,27.69,36.1c2.18,39.28,10.13,60.53,24.11,76.42
			c-21.81-74.69-22.18-146.84-15.48-220.1c5.51-60.3,10.5-71.35,56.54-79.35c19.94,14.68,7.96,37.82,14.6,56.33
			c6.05,16.86,7.56,35.42,10.36,53.34C656.53,3539.78,659.45,3544.44,667.58,3544.84z M168.3,3562.21
			c1.68,7.96-0.43,14.94,9.94,17.91C177.96,3573.06,179.78,3566.18,168.3,3562.21z M164.67,3553.73c4.27-8.12,4.15-12.27,1.33-15.79
			c-1.74-2.17-5.62-1.73-5.65,0.75C160.31,3542.46,162.38,3546.27,164.67,3553.73z M608.67,3348.41c-0.62,1.41-1.24,2.83-1.85,4.24
			c1.41,0.61,3.13,2.02,4.14,1.62c1.02-0.4,2.11-2.9,1.72-3.92C612.29,3349.35,610.09,3349.03,608.67,3348.41z M598,3743.89
			c-0.57-1.43-0.79-3.63-1.79-4.08c-0.98-0.44-2.77,0.89-4.2,1.44c0.56,1.43,0.78,3.62,1.79,4.09
			C594.77,3745.78,596.56,3744.45,598,3743.89z M643.76,3791.94c-1.42-0.6-3.16-2-4.19-1.59c-1.01,0.4-1.31,2.61-1.93,4.03
			c1.42,0.61,3.16,2.01,4.17,1.6C642.84,3795.58,643.14,3793.37,643.76,3791.94z M155.05,3512.58c-0.25,0.72-0.68,1.46-0.66,2.17
			c0.01,0.24,1.16,0.45,1.78,0.67c0.25-0.72,0.68-1.46,0.65-2.17C156.82,3513.01,155.68,3512.8,155.05,3512.58z"/>
		<path class="st4" d="M899.8,1843.28c-40.67,20.25-84.95,13.33-115.66-19.68c-32.51-34.94-50.45-76.16-44.28-124.63
			c2.66-20.91-6.27-25.59-23.83-24.51c-44.17,2.73-84.76,13.45-116.25,47.75c-12.52,13.63-26.29,26.51-41.13,37.53
			c-42.57,31.61-84.67,22.38-110.58-23.56c-8.15-14.45-15.72-29.4-17.99-48.9c25.12,10.39,49.96,13.81,74.96,8.3
			c33.11-7.3,58-26.61,74.29-56.39c10.52-19.24,20.27-38.89,30.47-58.31c7.55-14.36,17.26-27.06,30.07-37.15
			c33.58-26.46,70.46-18.98,91.68,18.23c9.17,16.08,10.64,34.67,17.23,55.24c4.07-10.38,6.5-17.43,9.55-24.2
			c31.5-69.95,113.96-86.82,170.38-34.71c7.4,6.84,11.34,13.75,24.65,6.36c30.73-17.06,62.99-9.95,81.81,14.4
			c19.21,24.85,18.78,61.57-1.07,87.07c-2.57,3.3-5.32,6.44-7.99,9.66c-18.94,11.15-39.03,15.69-60.7,10.11
			c-13.23-3.41-19.11,1.64-19.08,15.08c0.04,23.76-12.85,36.6-34.98,43.25c-37,11.13-40.14,22.22-14.35,52.31
			C910.41,1812.18,914.84,1826.72,899.8,1843.28z"/>
		<path class="st1" d="M2538.05,2498.63c-87.99,0-175.97,0.03-263.96-0.01c-49.21-0.02-69.72-20.15-69.74-68.59
			c-0.05-114.21-0.07-228.41,0.02-342.62c0.03-39.21,25.14-65.68,64.24-65.76c180.2-0.35,360.41-0.3,540.61-0.04
			c37.19,0.06,60.22,23.41,60.26,59.76c0.11,119.28,0.13,238.56,0,357.85c-0.04,37.97-21.64,59.32-59.85,59.37
			C2719.1,2498.71,2628.57,2498.63,2538.05,2498.63z M2733.24,2402.04c10.97,1.05,20.67-3.19,27.21-10.98
			c21.63-25.77,42.35-52.02,53.86-84.65c22.3-63.21,14.17-128.41,13.03-192.89c-0.48-26.8-26.09-45.67-54.84-46.16
			c-44.74-0.76-89.51-0.23-134.27-0.2c-6.7,0-13.74-0.79-18.15,6.12c-69.12-54.17-138.36-54.36-202.29-0.57
			c-4.68-6.66-11.76-5.53-18.39-5.54c-30.35-0.06-60.72-0.53-91.06,0.11c-37.6,0.78-58.3,22.68-58.34,60.77
			c-0.08,77.56,1.39,155.16-0.41,232.69c-1.89,81.1,6.53,95.9,89.99,92.45c90.01-0.05,180.03,0.09,270.04-0.24
			c38.69-0.14,74.49-11.47,107.74-30.88C2725.03,2417.58,2734.82,2414.14,2733.24,2402.04z"/>
		<path class="st1" d="M2614.93,2740.01c5.59-11.07,16.02-7.53,24.74-7.58c49.89-0.29,99.79-0.15,149.69-0.14
			c61.61,0.01,83.38,18.37,84.46,80.32c1.85,105.67,1.97,211.43-0.53,317.08c-0.64,27.03,3.2,61.42-33.98,74.9
			c-9.89,3.59-19.45,4.87-29.63,4.87c-181.82-0.05-363.65,0.02-545.47-0.07c-37.63-0.02-59.6-21.45-59.73-59.77
			c-0.39-117.54-0.39-235.09,0-352.63c0.13-38.58,25.19-63.84,65.85-64.36c65.08-0.83,130.2,0.44,195.3,0.82
			c-7.96,19.58-35.22,17.58-42.47,37.96c-5.63,9.22-14.88,6.34-22.92,6.43c-27.03,0.29-54.1-0.71-81.1,0.3
			c-49.71,1.86-71.05,20.58-69.77,70.64c2.23,86.96,0.53,174.01,0.67,261.02c0.06,36.52,17.63,53.66,54.63,53.96
			c15.2,0.12,30.41,0.11,45.61,0.16c89.15,0.05,178.32,1.53,267.43-0.44c46.96-1.04,90.58-15.9,125.05-50.58
			c39.04-24.52,60.29-62.23,74.05-104.21c19.36-59.08,12.12-120.52,10.83-180.99c-0.48-22.37-14.71-40.36-40.71-45.27
			c-47.9-9.04-96.04-2.47-144.03-4.05C2637.08,2763.03,2627.09,2750.73,2614.93,2740.01z"/>
		<path class="st5" d="M3643.73,1616.54c-147.24,0-294.47,0.01-441.71-0.03c-8.45,0-17.06,0.47-25.31-0.95
			c-14.08-2.42-22.35-11.43-23.58-25.86c-1.32-15.4,5.2-26.77,20.28-30.89c8.78-2.4,18.36-2.56,27.58-2.56
			c294.47-0.12,588.95-0.1,883.42-0.09c5.92,0,11.89-0.3,17.75,0.33c18.48,1.99,30.88,12.1,30.3,30.95
			c-0.58,18.58-12.56,28.92-31.78,28.99c-37.23,0.14-74.46,0.11-111.7,0.11C3873.89,1616.54,3758.81,1616.54,3643.73,1616.54z"/>
		<path class="st6" d="M2272.01,1347.35c12.48-16.75,22.42-35.6,42.25-45.86c33.45-17.3,89.12-16.8,113.17,44.8
			c-0.57,12.38,0.96,22.29,15.62,27.39c7.79,2.72,13.32,11.94,19.87,18.22c3.62,14.09,13.75,4.99,20.56,5.13
			c39.74,0.82,72.64,15.38,92.53,50.33c16.23,28.51,38.17,58.42,8.04,91.8c-7.1-15.6-30.5-16.32-32.56-37.73
			c-8.19,24.88-28.57,25.94-47.72,27.26c-23.51,1.62-47.39,2.2-70.18-5.06c-23.05-7.34-19.83,2.71-16.61,19.35
			c3.74,19.29,22.58,29.04,25.75,47.71c-44.04-16.44-70.73-77.38-48.76-130.36c2.77-6.68,12.69-13.27,2.61-21.87
			c-12.66-10.81-13.09-26.36-14.67-43.22c-28.52,22.22-23.27,50.62-18.71,77.7c6.75,40.08,22.85,77.28,37.86,114.89
			c17.04,42.71-4.72,77.85-50.39,84.22c-29.96,4.18-57.13-4.56-84.77-19.08c56.24-15.39,84.63-51.74,78.18-97.61
			c-3.37-23.99-14.13-44.79-26.94-64.81c-17.23-26.93-35.55-53.25-46.67-83.59C2267.72,1387.02,2269.23,1367.17,2272.01,1347.35z"/>
		<path class="st7" d="M3641.11,1498.36c-147.19,0-294.38,0.01-441.58-0.03c-7.6,0-15.51,0.77-22.72-1.03
			c-14.48-3.6-23.45-12.89-23.68-28.8c-0.23-15.96,8.59-25.57,22.96-29.36c7.96-2.1,16.79-1.22,25.23-1.22
			c294.39-0.05,588.77-0.04,883.15-0.04c5.08,0,10.16-0.14,15.23,0.08c19.9,0.87,32.96,11.04,32.58,31.07
			c-0.35,18.65-13.07,28.39-31.82,29.21c-6.76,0.29-13.53,0.12-20.3,0.12C3933.8,1498.36,3787.45,1498.36,3641.11,1498.36z"/>
		<path class="st1" d="M3640.92,2884.47c-148.8,0-297.59,0.02-446.39-0.02c-27.92-0.01-40.43-9.28-40.76-29.84
			c-0.34-21.18,11.98-31.02,39.56-31.03c298.44-0.04,596.87-0.03,895.31-0.03c3.38,0,6.77-0.06,10.14,0.03
			c19.61,0.55,33.61,9.87,34.02,29.83c0.41,19.99-13.17,29.91-32.83,30.95c-5.9,0.31-11.83,0.09-17.75,0.09
			C3935.13,2884.47,3788.03,2884.47,3640.92,2884.47z"/>
		<path class="st8" d="M3643.18,2112.77c147.24,0,294.47-0.02,441.71,0.06c8.41,0,17.15-0.41,25.16,1.61
			c14.71,3.71,23.33,14.37,23.01,29.51c-0.29,13.89-8.42,24-22.05,27.72c-7.17,1.96-15.02,1.93-22.57,1.93
			c-296.16,0.09-592.33,0.08-888.49,0.01c-7.56,0-15.51,0.43-22.61-1.64c-16.38-4.76-26.6-15.28-23.32-33.71
			c2.87-16.11,12.95-25.15,29.69-25.42c16.07-0.26,32.15-0.08,48.23-0.08C3369.01,2112.77,3506.09,2112.77,3643.18,2112.77z"/>
		<path class="st8" d="M3643.79,2290.49c-149.75,0-299.5,0.02-449.25-0.02c-28.01-0.01-40.48-9.25-40.77-29.83
			c-0.28-20,13.34-30.95,40.39-30.96c299.5-0.12,599,0.01,898.5-0.25c21.93-0.02,36.32,9.92,40.17,30.3
			c3.49,18.45-13.96,30.73-39.8,30.74C3943.29,2290.51,3793.54,2290.49,3643.79,2290.49z"/>
		<path class="st8" d="M3642.95,3001.32c-148,0-296.01,0-444.01-0.01c-6.76,0-13.69,0.75-20.26-0.41
			c-13.81-2.44-22.54-10.96-24.72-25.02c-2.18-14.08,2.97-24.36,16.17-31.1c10.49-5.35,21.36-4.32,32.25-4.33
			c292.62-0.05,585.25-0.05,877.87-0.01c10.9,0,22.2-1.74,32.15,4.55c11.57,7.31,24.39,14.91,20.09,31.4
			c-4.18,16.03-13.97,25.48-32.86,25.2c-55.81-0.83-111.63-0.28-167.45-0.28C3835.78,3001.32,3739.37,3001.32,3642.95,3001.32z"/>
		<path class="st9" d="M2272.01,1347.35c-2.78,19.82-4.29,39.67-1.52,59.63c-18.36,9.83-20.78,26.64-20.73,45.2
			c0.24,85.88,0.09,171.77,0.1,257.65c0.01,55.13,13.5,68.5,68.41,67.95c92.09,0.14,184.19-0.14,276.28,0.64
			c31.68,0.27,62.12-4.38,91.76-15.16c-0.01,20.09-0.02,40.18-0.03,60.28c-139.4,0-278.8,0.06-418.19-0.03
			c-42.6-0.03-63.48-20.82-63.55-63.78c-0.19-114.04-0.13-228.09-0.03-342.13C2204.55,1371.67,2224.76,1350.81,2272.01,1347.35z"/>
		<path class="st9" d="M2462.92,1391.91c-6.55-6.29-12.08-15.51-19.87-18.22c-14.66-5.11-16.19-15.01-15.62-27.39
			c120.97,0.11,241.95,0.21,362.92,0.35c62.39,0.07,83.51,21.3,83.58,83.98c0.1,97.28,0.13,194.56,0.2,291.85
			c-25.99-15.45-52.49-30.11-76.04-49.32c0.85-15.77,11.17-27.92,16.38-42.07c20.13-54.71,13.15-111.44,13.96-167.53
			c0.75-51.47-19.77-71.14-72.08-71.24C2658.54,1392.15,2560.73,1392.05,2462.92,1391.91z"/>
		<path class="st10" d="M2798.08,1673.16c23.55,19.21,50.06,33.87,76.04,49.32c3.36,2.47,6.63,5.09,10.09,7.4
			c12.5,8.35,28.3,14.93,21.95,34.72c-6.16,19.16-22.8,13.05-36.4,13.97c-21.65-5.56-43.53-9.41-68.03-11.09
			c6.93,21.87,16.16,39.34,27.31,55.9c10.56,21.97,20.91,44.04,31.77,65.86c7.8,15.67,8.32,30.76-8.55,39.16
			c-16.49,8.22-28.83-0.17-36.97-16.01c-15.37-29.9-31.23-59.54-46.89-89.3c-2.3-10.19-7.18-18.97-13.72-28.1
			c-7.06,9.56-10.66,18.55-12.07,28.46c-3.03,5.84-6.56,11.49-8.99,17.57c-4.69,11.78-11.31,20.49-25.57,18.93
			c-15.94-1.74-19.49-13.18-20.5-26.57c-0.25-3.29-0.85-6.56-1.29-9.84c0.01-20.09,0.02-40.18,0.03-60.28
			c0.03-27.32,0.06-54.63,0.09-81.95c0.07-7.52,0.28-15.04,0.19-22.56c-0.13-11.74-1.69-24.34,10.32-31.53
			c12.83-7.68,23.74-0.6,34.71,6.17C2753.59,1646.95,2775.91,1659.94,2798.08,1673.16z"/>
		<path class="st6" d="M2423.16,2771.42c7.25-20.38,34.5-18.38,42.47-37.96c11.76-8.48,25.39-19.6,38.93-14.98
			c36.03,12.29,74.81,8.48,110.38,21.54c12.16,10.72,22.15,23.02,27.96,38.36c5.26,38.75,18.85,77.66-2.08,115.95
			c-2.63-10.27,6.57-27.17-10.11-29.36c-19.06-2.5-32.38-8.66-38.29-35.35c-4.89,27.9-20.21,32.64-37.92,34.97
			c-19.34,2.55-38.5,4.5-57.97,1c-14.9-2.68-33.27-10.58-44.15-4.86c-13.66,7.18-3.76,29.43-10.04,43.96
			c-31.68-39.07-35.1-75.65-8.86-115.44C2443.93,2773.43,2428.26,2776.3,2423.16,2771.42z"/>
		<path class="st5" d="M3383.41,1675.43c62.48,0,124.96-0.14,187.43,0.06c27.48,0.08,41.34,10.6,39.94,30.77
			c-1.69,24.17-18.76,29.74-39.21,29.75c-126.64,0.06-253.29,0.06-379.93,0c-20.65-0.01-37.32-5.96-38.46-30.31
			c-0.92-19.71,12.05-30.09,37.73-30.19C3255.08,1675.28,3319.25,1675.44,3383.41,1675.43z"/>
		<path class="st8" d="M3379.59,2351.32c63.34,0,126.68,0.33,190.02-0.19c20.45-0.17,37.95,3.07,40.77,27.09
			c2.34,20-13.74,33.52-40.82,33.79c-59.96,0.6-119.92,0.2-179.88,0.2c-65.87,0-131.75,0.21-197.62-0.14
			c-18.88-0.1-35.92-4.78-38.15-27.88c-2.07-21.43,8.45-32.72,30.6-32.79C3249.53,2351.19,3314.56,2351.33,3379.59,2351.32z"/>
		<path class="st8" d="M3382.22,3062.13c63.41,0,126.83,0.32,190.24-0.19c20.19-0.16,35.67,5.21,37.93,27.49
			c2.06,20.38-13.02,33.41-38.34,33.46c-126.82,0.23-253.65,0.25-380.47-0.02c-24.93-0.05-38.09-11.63-37.8-30.93
			c0.3-19.79,12.78-29.72,38.22-29.77C3255.4,3062.05,3318.81,3062.13,3382.22,3062.13z"/>
		<path class="st6" d="M1006.04,3986.04c-13.65,0.58-27.29,1.16-40.94,1.73c-0.59-2.41-1.19-4.82-1.78-7.22
			c3.48-37.55,7.51-75.06,10.15-112.67c0.88-12.57,5.77-18.3,17.87-18.64c22.03-0.05,44.13,1.03,65.9-3.65
			c1.96,1.56,5.79,3.4,5.6,4.63c-5.94,38.79,25.05,50.34,49.06,67.02c9.67,6.72,19.22,13.65,29.19,19.89
			c14.4,9.01,21.75,20.73,16.6,38.08c-3.14,3.72-6.28,7.44-9.41,11.17c-40.63,2.2-81.26,2.96-121.89-0.25
			c1.75-8.48-4.13-13.07-10.34-13.25C1009.35,3972.68,1008.74,3981.02,1006.04,3986.04z"/>
		<path class="st4" d="M648.47,3980.63c3.44-37.56,7.42-75.08,10.03-112.7c0.87-12.64,5.98-18.23,17.97-18.73
			c22.06,0.08,44.18,1.01,66-3.58c2.23,2.34,6.71,5.11,6.36,6.96c-6.32,33.14,18.27,44.88,39.88,58.95
			c12.67,8.25,24.66,17.57,37.44,25.65c14.36,9.08,21.86,20.58,16.68,37.96c-3.11,3.73-6.23,7.46-9.34,11.19
			c-40.63,2.28-81.26,2.92-121.88-0.19c1.76-8.48-4.21-12.98-10.34-13.23c-6.75-0.28-7.35,8.03-10.04,13.04
			c-13.64,0.6-27.29,1.19-40.93,1.79C649.69,3985.37,649.08,3983,648.47,3980.63z"/>
		<path class="st11" d="M899.8,1843.28c15.04-16.56,10.61-31.1-2.8-46.75c-25.79-30.09-22.65-41.18,14.35-52.31
			c22.13-6.65,35.02-19.49,34.98-43.25c-0.02-13.45,5.86-18.49,19.08-15.08c21.67,5.59,41.76,1.05,60.7-10.11
			C1058.03,1744.19,1002.98,1844.08,899.8,1843.28z"/>
		<path class="st11" d="M1057.25,3845.59c-21.78,4.68-43.87,3.59-65.91,3.65c0.06-45.94,0.12-91.88,0.18-137.81
			c28.27,0.52,56.54,1.04,84.8,1.56C1061.99,3756.04,1062.17,3801.18,1057.25,3845.59z"/>
		<path class="st11" d="M590.85,2839.07c21.45-0.04,42.9-0.08,64.34-0.11c-4.51,19.87-11.5,37.95,6.69,57.65
			c11.39,12.33,5.58,32.66-7.08,46.27c-13.6,14.62-31.24,16.61-49,10.09c-18.71-6.87-28.16-21.9-25.99-41.74
			C582.48,2887.06,587.09,2863.11,590.85,2839.07z"/>
		<path class="st11" d="M1109.49,2840.56c21.18-0.53,42.36-1.06,63.53-1.58c2.34,17.39,2.83,35.3,7.52,52.04
			c5.57,19.86,3.94,37.97-4.29,56.18c-8.47-1.73-13.48,6.01-20.72,7.57c-18.58,4-35.33,1.33-47.6-14.67
			c-11.26-14.68-15.93-33.23-3.65-46.59C1120.9,2875.42,1114.72,2858.8,1109.49,2840.56z"/>
		<path class="st9" d="M1148.28,3986.39c3.14-3.72,6.28-7.45,9.41-11.17c8.17,9.1,19.02,5.34,28.69,5.36
			c139.47,0.24,278.93,0.1,418.4,0.32c9.4,0.01,19.68-2.87,29.81,4.3c-6.54,8.6-14.63,5.9-21.37,5.91
			c-147.92,0.18-295.84,0.17-443.76,0.03C1162.23,3991.13,1154.02,3993.78,1148.28,3986.39z"/>
		<path class="st9" d="M648.47,3980.63c0.61,2.37,1.21,4.74,1.82,7.11c-5.68,5.38-12.78,3.42-19.33,3.42
			c-134.43,0.1-268.86,0.13-403.29-0.09c-6.91-0.01-15.1,3.22-25.67-10.86c56.31,0,107.63,0,158.94-0.01
			C456.8,3980.35,552.63,3980.49,648.47,3980.63z"/>
		<path class="st5" d="M4133.52,1710.32c-0.71,18.7-15.89,32.84-34.96,32.58c-18.68-0.26-34.01-15.48-34.02-33.77
			c-0.01-19.36,16.67-34.84,36.48-33.85C4119.81,1676.21,4134.22,1691.75,4133.52,1710.32z"/>
		<path class="st5" d="M3988.16,1675.35c19.01,0.31,33.8,15.06,33.81,33.73c0.01,19.74-16.07,34.71-36.26,33.78
			c-18.77-0.87-33.29-16.44-32.59-34.96C3953.82,1689.36,3969.23,1675.04,3988.16,1675.35z"/>
		<path class="st5" d="M3875.32,1675.37c19.25-0.28,34.23,13.63,34.93,32.44c0.74,19.75-14.78,35.36-34.87,35.08
			c-18.89-0.26-33.85-15.17-33.88-33.76C3841.46,1690.56,3856.4,1675.65,3875.32,1675.37z"/>
		<path class="st8" d="M4021.9,3089.32c0.49,18.2-16.77,38.01-33.26,38.17c-18.45,0.18-38.87-19.01-36.66-37.19
			c2.39-19.67,15.53-31.24,35.45-32.93C4006.22,3055.78,4021.39,3070.48,4021.9,3089.32z"/>
		<path class="st8" d="M4133.54,3092.68c-1.28,18.97-19.23,35.19-37.45,33.84c-18.15-1.35-34.56-20.75-32.57-38.51
			c1.82-16.27,21.03-32.1,37.43-30.87C4117.77,3058.4,4134.61,3076.77,4133.54,3092.68z"/>
		<path class="st8" d="M3989.57,2346.25c19.58,0.27,32.82,14.14,32.33,33.84c-0.48,19-14.61,32.07-34.8,32.2
			c-16.43,0.1-35.55-17.64-35.56-32.99C3951.52,2363.01,3971.1,2346,3989.57,2346.25z"/>
		<path class="st8" d="M4133.61,2379.41c-0.09,19.1-13.93,32.43-34.14,32.89c-16.52,0.37-35.64-16.72-36.16-32.31
			c-0.54-16.19,18.87-33.75,37.27-33.73C4120.55,2346.28,4133.71,2359.48,4133.61,2379.41z"/>
		<path class="st8" d="M3910.2,2379.91c-0.38,19.02-14.47,32.2-34.64,32.38c-19.82,0.18-31.77-12.79-31.38-34.08
			c0.38-20.88,12.21-32.17,33.48-31.96C3897.43,2346.44,3910.59,2360.05,3910.2,2379.91z"/>
		<path class="st8" d="M3879.64,3057.05c14.64,2.57,27.3,12.74,30.21,31.32c2.92,18.6-12.16,34.26-31.14,34.81
			c-21.56,0.63-33.82-10.4-34.53-31.07C3843.49,3071.79,3855.92,3057.97,3879.64,3057.05z"/>
		<path class="st12" d="M594.81,3392.17c0.93,29.07,1.46,29.37,35.54,20.31c0.01,3.31,0.02,6.62,0.03,9.93
			c-46.04,8-51.03,19.05-56.54,79.35c-6.7,73.26-6.33,145.41,15.48,220.1c-13.98-15.88-21.92-37.13-24.11-76.42
			c-1.02-18.38-2.43-32.2-27.69-36.1c28.03,6.64,27.88-8.4,26.86-24.86c-3.53-56.91,5.26-112.37,20.26-167.06
			C587.06,3408.62,587.87,3399.16,594.81,3392.17C594.81,3392.17,594.81,3392.17,594.81,3392.17z"/>
		<path class="st9" d="M2829.05,1823.38c-11.15-16.56-20.39-34.03-27.31-55.9c24.5,1.68,46.38,5.53,68.03,11.09
			C2866.73,1803.08,2852.23,1817.18,2829.05,1823.38z"/>
		<path class="st9" d="M833.48,3986.33c3.11-3.73,6.23-7.46,9.34-11.19c6.25,7.93,15.15,5.5,23.17,5.54
			c32.44,0.15,64.89-0.06,97.33-0.13c0.59,2.41,1.19,4.82,1.78,7.22C921.17,3992.56,877.26,3995.19,833.48,3986.33z"/>
		<path class="st9" d="M2742.63,1823.46c1.41-9.91,5.01-18.9,12.07-28.46c6.54,9.14,11.42,17.91,13.72,28.1
			C2759.82,1823.22,2751.23,1823.34,2742.63,1823.46z"/>
		<path class="st9" d="M691.22,3985.96c2.69-5.01,3.29-13.32,10.04-13.04c6.13,0.25,12.1,4.74,10.34,13.23
			C704.74,3993.68,697.94,3993.86,691.22,3985.96z"/>
		<path class="st9" d="M1006.04,3986.04c2.71-5.02,3.32-13.36,10.02-13.16c6.2,0.19,12.08,4.78,10.34,13.25
			C1019.57,3993.69,1012.79,3993.81,1006.04,3986.04z"/>
		<path class="st12" d="M630.35,3305.87c-1.23,4.66,1.86,14.69-6,11.89c-7.11-2.52,2.6-10.93,0.94-17.01c0,0-0.05,0.04-0.05,0.04
			c1.71,0,3.41,0.01,5.12,0.01C630.36,3302.5,630.36,3304.18,630.35,3305.87z"/>
		<path class="st3" d="M630.36,3300.81c-1.71,0-3.41-0.01-5.12-0.01C626.96,3297.26,628.66,3297.31,630.36,3300.81z"/>
		<path class="st11" d="M752.83,3734.08c0.42,37.54-11.81,73.91-10.36,111.54c-21.82,4.6-43.94,3.66-66,3.58
			c-0.09-38.47-0.18-76.94-0.27-115.41C701.74,3733.9,727.28,3733.99,752.83,3734.08z"/>
		<path class="st12" d="M4250.31,980.74c10.88-0.01,21.77-0.11,32.64,0.04c4.99,0.07,10.9,0.08,11.62,6.65
			c0.75,6.8-4.8,8.08-9.97,8.12c-22.6,0.17-45.2,0.16-67.8,0.03c-5.18-0.03-10.83-1.14-10.44-7.78c0.38-6.49,6.2-6.96,11.3-7.01
			C4228.54,980.66,4239.42,980.74,4250.31,980.74z"/>
		<path class="st12" d="M2128.09,982.5c0.26,10.87-4,17.75-15.75,18.33c-11.97,0.59-19.43-3.79-19.65-16.94
			c-0.21-12.54,5.69-18.59,18.28-18.41C2122.32,965.63,2127.93,971.26,2128.09,982.5z"/>
		<path class="st12" d="M2056.82,983.24c0.1,12.45-6.06,17.53-17.21,17.67c-10.97,0.13-17.62-4.38-17.99-16.07
			c-0.33-10.44,2.59-18.8,14.75-18.99C2048.29,965.66,2054.3,973.17,2056.82,983.24z"/>
		<path class="st13" d="M2180.79,965.6c14.15,0.22,18.53,7.01,18.45,17.92c-0.07,9.62-3.63,16.76-14.2,17.01
			c-11.68,0.27-20.07-6.13-20.31-17.63C2164.51,972.34,2173.45,967.7,2180.79,965.6z"/>
		<path class="st13" d="M4293.07,1013.88c-28.26,0-56.51,0-84.77,0c-0.12-1.45-0.23-2.91-0.35-4.36c28.31,0,56.63,0,84.94,0
			C4292.96,1010.97,4293.02,1012.42,4293.07,1013.88z"/>
		<path class="st13" d="M4208.27,967.86c18.18-9.63,64.83-9.86,91.74-0.07C4264.64,972.3,4236.45,970.09,4208.27,967.86z"/>
		<path class="st13" d="M168.3,3562.21c11.48,3.98,9.66,10.85,9.94,17.91C167.87,3577.15,169.98,3570.16,168.3,3562.21z"/>
		<path class="st13" d="M164.67,3553.73c-2.3-7.46-4.37-11.26-4.32-15.04c0.03-2.48,3.9-2.92,5.65-0.75
			C168.83,3541.45,168.95,3545.61,164.67,3553.73z"/>
		<path class="st12" d="M608.67,3348.41c1.41,0.62,3.62,0.93,4,1.95c0.39,1.02-0.71,3.52-1.72,3.92c-1.01,0.4-2.73-1.01-4.14-1.62
			C607.43,3351.24,608.05,3349.83,608.67,3348.41z"/>
		<path class="st12" d="M598,3743.89c-1.44,0.56-3.23,1.89-4.2,1.44c-1.01-0.47-1.23-2.65-1.79-4.09c1.43-0.55,3.22-1.88,4.2-1.44
			C597.21,3740.26,597.43,3742.45,598,3743.89z"/>
		<path class="st12" d="M643.76,3791.95c-0.62,1.42-0.92,3.63-1.94,4.03c-1.02,0.4-2.75-1-4.17-1.6c0.61-1.42,0.91-3.63,1.93-4.03
			C640.6,3789.95,642.33,3791.34,643.76,3791.95z"/>
		<path class="st12" d="M599.88,3382.01c-0.1,4.18-0.94,7.99-5.07,10.15c0,0-0.01,0-0.01,0
			C594.91,3387.99,595.76,3384.18,599.88,3382.01L599.88,3382.01z"/>
		<path class="st13" d="M155.05,3512.58c0.63,0.22,1.77,0.43,1.78,0.68c0.03,0.71-0.4,1.44-0.65,2.17
			c-0.63-0.22-1.77-0.43-1.78-0.67C154.37,3514.03,154.8,3513.3,155.05,3512.58z"/>
		<path class="st12" d="M599.89,3382.01c0.62-2.2,1.24-4.41,1.86-6.61C606.43,3379.1,601.88,3380.2,599.89,3382.01L599.89,3382.01z"
			/>
		<path class="st12" d="M2620.09,2073.29c4.4-6.91,11.45-6.11,18.15-6.12c44.76-0.03,89.52-0.57,134.27,0.2
			c28.75,0.49,54.36,19.35,54.84,46.16c1.14,64.48,9.27,129.68-13.03,192.89c-11.51,32.63-32.23,58.87-53.86,84.65
			c-6.54,7.79-16.23,12.04-27.21,10.98c-9.71-29.54-25.62-56.25-58.38-59.6c-30.89-3.16-56.39-14.86-80.93-31.36
			c-26.94-18.12-55.84-1.55-83.57-5.32c-21.44-2.92-39.56,3.81-53.96,20.15c-9.49,10.77-21.45,14.36-35.75,15.44
			c-26.46,2-46.44,16.71-56.83,40.47c-10.03,22.93-19.94,46.32-24.24,71.38c-83.46,3.46-91.88-11.35-89.99-92.45
			c1.81-77.52,0.33-155.12,0.41-232.69c0.04-38.09,20.75-59.99,58.34-60.77c30.34-0.63,60.7-0.17,91.06-0.11
			c6.63,0.01,13.72-1.12,18.39,5.54c-1.94,2.71-3.64,5.64-5.86,8.1c-34.16,37.63-56.01,76.15-18.81,125.52
			c12.86,17.07,8.36,36.78-7.09,53.04c-8.36,8.8-14.85,19.59-8.8,32.08c6.51,13.41,19.69,11.58,31.27,9.93
			c60.97-8.7,122.14-16.48,182.72-27.4c44.99-8.12,69.07-52.89,55.92-96.82c-1.86-6.2-6.43-11.6-4.32-19.23
			C2651.86,2125.4,2638.1,2098.71,2620.09,2073.29z"/>
		<path class="st6" d="M2620.09,2073.29c18.01,25.43,31.76,52.11,22.74,84.65c-2.11,7.62,2.46,13.03,4.32,19.23
			c13.15,43.92-10.92,88.7-55.92,96.82c-60.58,10.93-121.74,18.71-182.72,27.4c-11.58,1.65-24.76,3.48-31.27-9.93
			c-6.06-12.49,0.43-23.27,8.8-32.08c15.45-16.26,19.95-35.98,7.09-53.04c-37.2-49.37-15.35-87.89,18.81-125.52
			c2.23-2.45,3.92-5.39,5.86-8.1C2481.73,2018.93,2550.98,2019.12,2620.09,2073.29z M2596.17,2185.59
			c0.47-11.79-2.58-25.51-9.62-38.5c-3.62-6.68-7.57-9.76-12.91-2.65c-26.4,35.2-73.94,33.45-105.18,60.36
			c-5.41,4.66-13.68,7.47-20.94,8.26c-21.21,2.31-15.11,12.26-7.69,23.4c20.11,30.17,60,44.11,95.96,33.45
			C2571.45,2259.34,2595.92,2226.3,2596.17,2185.59z"/>
		<path class="st14" d="M2339.58,2453.19c4.31-25.06,14.21-48.44,24.24-71.38c10.39-23.76,30.37-38.47,56.83-40.47
			c14.31-1.08,26.26-4.67,35.75-15.44c14.4-16.34,32.52-23.07,53.96-20.15c27.73,3.77,56.63-12.79,83.57,5.32
			c24.54,16.51,50.04,28.2,80.93,31.36c32.76,3.35,48.66,30.07,58.38,59.6c1.58,12.1-8.21,15.54-15.88,20.02
			c-33.25,19.42-69.05,30.74-107.74,30.88C2519.61,2453.28,2429.6,2453.14,2339.58,2453.19z"/>
		<path class="st12" d="M2640.81,2894.32c20.92-38.29,7.34-77.19,2.08-115.95c47.99,1.58,96.13-4.99,144.03,4.05
			c26,4.91,40.23,22.9,40.71,45.27c1.29,60.47,8.53,121.92-10.83,180.99c-13.76,41.98-35.01,79.69-74.05,104.21
			c-12.31-34.8-34.87-57.96-73.31-59.54c-17.02-0.7-31.92-5.22-44.08-15.81c-35.28-30.72-76.33-16.64-115.88-17.66
			c-22.92-0.59-35.34,13.28-49.32,26.04c-8.52,7.77-18.59,7.06-28.35,8.57c-26.96,4.17-47.93,17.53-58.67,42.63
			c-9.23,21.57-15.35,44.47-22.85,66.79c-15.21-0.05-30.41-0.04-45.62-0.16c-37-0.29-54.57-17.44-54.63-53.96
			c-0.14-87.01,1.56-174.07-0.67-261.02c-1.28-50.06,20.07-68.78,69.77-70.64c27-1.01,54.07,0,81.1-0.3
			c8.04-0.09,17.29,2.79,22.92-6.43c5.11,4.88,20.77,2.01,10.33,17.84c-26.25,39.79-22.82,76.37,8.86,115.43
			c4.72,21.59,17.53,37.69,35.01,50.26C2538.08,2998.63,2611.44,2971.34,2640.81,2894.32z"/>
		<path class="st14" d="M2350.28,3163.91c7.5-22.31,13.62-45.21,22.85-66.79c10.74-25.1,31.71-38.46,58.67-42.63
			c9.76-1.51,19.84-0.8,28.35-8.57c13.98-12.75,26.4-26.62,49.32-26.04c39.56,1.01,80.6-13.06,115.88,17.66
			c12.16,10.59,27.06,15.11,44.08,15.81c38.44,1.58,61,24.74,73.31,59.54c-34.47,34.67-78.09,49.54-125.05,50.58
			C2528.6,3165.44,2439.42,3163.96,2350.28,3163.91z"/>
		<path class="st12" d="M2798.08,1673.16c-22.17-13.22-44.49-26.21-66.46-39.76c-10.97-6.76-21.87-13.84-34.71-6.17
			c-12.01,7.18-10.45,19.79-10.32,31.53c0.09,7.52-0.12,15.04-0.19,22.56c-18.92-9.29-38.03-17.77-59.95-15.92
			c-7.14,0.6-13.57-2.49-18.57-6.88c-34.76-30.57-75.97-30.37-118.7-27.34c-21.08,1.5-39.43,5.27-54.3,21.39
			c-6.66,7.22-14.04,13.42-25.69,13.95c-38.22,1.73-62.08,22.3-73.18,58.68c-5.4,17.69-11.8,35.07-17.75,52.58
			c-54.92,0.55-68.4-12.82-68.41-67.95c-0.02-85.88,0.14-171.77-0.1-257.65c-0.05-18.56,2.37-35.38,20.73-45.2
			c11.12,30.34,29.44,56.67,46.67,83.59c12.81,20.02,23.56,40.82,26.94,64.81c6.45,45.87-21.94,82.22-78.18,97.61
			c27.64,14.51,54.8,23.26,84.77,19.08c45.67-6.37,67.43-41.51,50.39-84.22c-15.01-37.6-31.11-74.81-37.86-114.89
			c-4.56-27.08-9.81-55.48,18.71-77.7c1.57,16.86,2,32.41,14.67,43.22c10.08,8.6,0.16,15.19-2.61,21.87
			c-21.96,52.98,4.72,113.92,48.76,130.36c0,0-0.16-0.67-0.16-0.67c2.8,5.78,7.87,5.88,13.22,5.29
			c48.57,24.71,103.18,0.79,128.25-56.16c30.13-33.38,8.18-63.29-8.04-91.8c-19.89-34.95-52.79-49.5-92.53-50.33
			c-6.81-0.14-16.94,8.96-20.56-5.13c97.81,0.13,195.61,0.23,293.42,0.41c52.31,0.09,72.83,19.77,72.08,71.24
			c-0.81,56.1,6.17,112.82-13.96,167.53C2809.26,1645.23,2798.94,1657.38,2798.08,1673.16z"/>
		<path class="st15" d="M2584.06,1539.18c-25.07,56.95-79.68,80.87-128.25,56.18c-3.6-3.77-7.68-6.35-13.22-5.31
			c0,0,0.16,0.67,0.16,0.67c-3.17-18.68-22.01-28.42-25.75-47.71c-3.23-16.65-6.45-26.7,16.61-19.35
			c22.79,7.26,46.67,6.68,70.18,5.06c19.16-1.32,39.53-2.38,47.72-27.26C2553.56,1522.86,2576.95,1523.57,2584.06,1539.18z"/>
		<path class="st14" d="M2318.27,1777.79c5.95-17.52,12.35-34.9,17.75-52.58c11.1-36.38,34.96-56.95,73.18-58.68
			c11.64-0.53,19.03-6.72,25.69-13.95c14.87-16.12,33.22-19.89,54.3-21.39c42.73-3.03,83.94-3.23,118.7,27.34
			c4.99,4.39,11.43,7.48,18.57,6.88c21.92-1.85,41.03,6.63,59.95,15.92c-0.03,27.32-0.06,54.64-0.09,81.96
			c-29.64,10.77-60.08,15.42-91.76,15.16C2502.47,1777.66,2410.37,1777.93,2318.27,1777.79z"/>
		<path class="st11" d="M2640.81,2894.32c-29.37,77.02-102.74,104.31-163.46,60.63c-17.47-12.57-30.29-28.67-35.01-50.26
			c6.27-14.53-3.62-36.78,10.03-43.96c10.89-5.72,29.25,2.18,44.15,4.86c19.47,3.5,38.63,1.55,57.97-1
			c17.71-2.33,33.03-7.08,37.92-34.97c5.91,26.69,19.23,32.85,38.29,35.35C2647.39,2867.15,2638.18,2884.05,2640.81,2894.32z"/>
		<path class="st11" d="M2596.17,2185.59c-0.25,40.71-24.73,73.75-60.38,84.32c-35.96,10.66-75.85-3.29-95.96-33.45
			c-7.42-11.13-13.51-21.08,7.69-23.4c7.26-0.79,15.53-3.6,20.94-8.26c31.25-26.91,78.79-25.16,105.18-60.36
			c5.33-7.11,9.28-4.03,12.91,2.65C2593.59,2160.08,2596.64,2173.8,2596.17,2185.59z"/>
		<path class="st6" d="M2442.59,1590.04c5.54-1.04,9.63,1.54,13.22,5.31C2450.46,1595.92,2445.38,1595.83,2442.59,1590.04z"/>
	</g>
</g>
<g id="Calque_2" class="st16">
	<path class="st17" d="M1469.21,3941.53c-61.27,0.01-111.75-50.5-111.75-111.81c0.01-61.36,50.34-111.66,111.73-111.66
		c61.49,0.01,111.75,50.22,111.73,111.64C1580.91,3891.04,1530.48,3941.52,1469.21,3941.53z"/>
</g>
</svg>
