<?xml version="1.0" encoding="utf-8"?>
<!-- Generator: Adobe Illustrator 23.1.0, SVG Export Plug-In . SVG Version: 6.00 Build 0)  -->
<svg version="1.1" xmlns="http://www.w3.org/2000/svg" xmlns:xlink="http://www.w3.org/1999/xlink" x="0px" y="0px"
	 viewBox="0 0 4500 4500" style="enable-background:new 0 0 4500 4500;" xml:space="preserve">
<style type="text/css">
	.st0{fill:#302F42;}
	.st1{fill:#176561;}
	.st2{fill:#FE6987;}
	.st3{fill:#D1D1D2;}
	.st4{fill:#424058;}
	.st5{fill:#333245;}
	.st6{fill:#8F6673;}
	.st7{fill:#4C4A61;}
	.st8{fill:#FDFDFD;}
	.st9{fill:#58566B;}
	.st10{fill:#A0636C;}
	.st11{fill:#FEFEFE;}
	.st12{fill:#EFEFEF;}
	.st13{fill:#F1F1F1;}
	.st14{fill:#2A746A;}
</style>
<g id="Calque_1">
	<g>
		<path class="st0" d="M2387.38,3376.89c-8,2.91-10.25,10.78-14.19,16.99c-47.43,74.82-95.12,149.48-141.6,224.89
			c-9,14.6-16.98,23.22-34.19,14.47c-14.62-14.77-33.26-22.22-52.4-28.76c-4.44-3.82-8.88-7.64-16.45-14.16
			c21.38-1.21,18.9-14.11,17.74-26.47c-1.86-19.85-2.47-39.66,0.6-59.5c1.79-11.6,7.54-20.09,19.38-20.31
			c11.43-0.22,15.08-6.58,18.49-15.4c11.8-30.53,27.94-59.27,37.38-90.77c3.57-1.7,3.72-5.03,3.95-8.32
			c34.07-72.09,65.14-145.49,95.46-219.21c4.09-2.92,4.05-7.57,4.94-11.83c13.59-30.71,27.42-61.31,40.7-92.14
			c24.17-56.11,65.15-92.52,124.5-108.2c20.28-5.36,41.07-3.28,61.45-5.69c89.26-10.55,178.69-11.21,268.33-7.52
			c24.35,1,48.77,0.15,74.99,0.15c-6.55-8.09-12.52-15.35-18.37-22.71c-27.41-34.5-58.34-67.29-77.14-107.01
			c-17.1-36.14-44.48-61.93-70.53-89.81c-2.35-2.52-5.17-4.68-7.14-7.46c-16.72-23.6-45.68-37.3-53.71-68.63
			c-1.32-5.17-16.05-20.76-26.75-1.75c-2.95,5.24-8.32,9.13-12.65,13.56c-114.23,116.94-232.09,229.7-366.36,324.11
			c-17.62,12.39-30.71,17.81-44.93-1.94c-11.64-18.71-27.32-33.91-42.83-49.25c-5.42-24.19,10.15-42.78,17.62-63.34
			c4.17-11.49,8.13-25.36,26.11-24.42c7.7,0.4,10.43-9.14,8.87-13.98c-7.34-22.86,9.74-32.16,22.13-45.03
			c54.49-56.62,106.69-115.39,157.03-175.67c46.95-56.22,100.55-106.69,135.62-173.22c25.02-47.46,72.92-57.17,121.34-33.69
			c18.52,8.98,35.98,20.15,53.93,30.32c6.97,14.53,10,31.74,24.92,41.12c29.26,18.41,51.29,44.61,75.44,68.54
			c-8.8,14.83-7.14,27.18,5.55,40.03c11.47,11.61,25.76,24.82,28.76,39.39c4.68,22.74,13.27,14.22,24.87,9.07
			c6.2-2.75,9.34-10.41,17.16-10.26c6.69,58.44,13.66,69.74,63.71,103.1c53.51,35.67,112.4,61.24,169.53,90.11
			c5.27,2.66,13.81,2,14.71,9.47c1.05,8.74-8.39,9.92-13.57,13.7c-7.81,5.71-15.96,10.8-21.25,19.23
			c-8.94,14.26-14.74,26.93,7.83,35.07c12.85,4.64,17.1,15.89,16.64,30.09c-0.74,22.68-6.41,44.91-4.54,67.81
			c3.72,45.67,18.14,85.12,56.72,113.97c31.84,23.8,68.31,34.36,105.59,44.57c12.23,3.35,26.77-0.73,36.74,10.42
			c-10.76,4.39-23.01-0.48-33.53,5.41c-33.09,0.04-66.19,0.07-99.28,0.11c-7.01-3.85-14.79-2.92-22.21-3.02
			c-207.07-2.78-414.15-5.29-621.21-8.32c-12.57-0.18-19.18,4.54-22.87,15.51c-46.24,68.84-90.21,139.11-132.86,210.22
			c-3.62,2.04-4.84,5.07-3.7,9.06C2388.34,3370.8,2387.66,3373.72,2387.38,3376.89z"/>
		<path class="st1" d="M3327.5,3140.61c-9.98-11.15-24.52-7.07-36.75-10.42c-37.28-10.21-73.75-20.77-105.59-44.57
			c-38.58-28.84-53-68.3-56.72-113.97c-1.86-22.9,3.8-45.14,4.54-67.81c0.46-14.2-3.79-25.45-16.64-30.09
			c-22.57-8.15-16.77-20.82-7.83-35.07c5.29-8.44,13.43-13.53,21.25-19.23c5.18-3.78,14.62-4.97,13.57-13.7
			c-0.9-7.47-9.44-6.81-14.71-9.47c-57.13-28.87-116.02-54.43-169.53-90.11c-50.05-33.36-57.02-44.65-63.71-103.1
			c-7.81-0.16-10.96,7.51-17.16,10.26c-11.6,5.15-20.2,13.67-24.87-9.07c-3-14.57-17.29-27.77-28.76-39.39
			c-12.69-12.85-14.35-25.21-5.56-40.03c17.09-19.68,31.07-41.36,41.73-65.16c10.68-1.57,21.93-2.35,23.56-16.69
			c6.05-3.68,8.57-9.36,9.15-16.15c5.68-4.49,10.69-9.43,11.73-17.1c9.31-9.09,16.3-19.68,20.81-31.89
			c33.58,1.94,63.98,14.03,93.07,29.81c3.89,2.11,9.01,7.11,8.9,10.62c-0.73,22.93,13.21,15.41,24.29,11.93
			c8.45-2.65,16.31-7.2,24.44-10.91c0.72,1.14,1.58,2.16,2.57,3.07c-4.85,12.03-9.77,24.03-14.51,36.1
			c-2.3,5.87-4.73,15.78,0.2,17.13c22.46,6.14,45.45,11.63,68.54,13.23c5.35,0.37,15.28-8.22,23.94-7.98
			c11.84,0.32,14.57-5.62,16.91-15.66c17.31-74.21,34.43-148.49,53.42-222.27c6.46-25.07-1.07-45.34-12.33-65.97
			c22.19-13.77,21.16-35.7,20.81-57.73c-0.11-7.22-3.23-16.1,6-22.35c10.67,14.7,14.55,30.95,17.27,46.78
			c2.91,16.97,10.66,19.86,25.61,15.69c43.26-12.06,83.62-30.1,120.26-56.21c10.64,16.76,21.4,33.45,31.88,50.31
			c50.5,81.18,94.18,165.37,114.31,259.91c1.52,17.1,4.05,34.19,4.35,51.31c0.59,32.88,0.38,65.8-4.17,98.5
			c-1.41,21.38-3.69,43.02-11.59,62.72c-6.25,15.6-2.27,24.32,10.47,31.95c1.3,3.61,3.89,5.79,7.54,6.79
			c2.64,3.28,5.27,6.56,7.91,9.83c7.44,14.96,6.26,29.83-0.44,44.65c-5.06-2.67-6.9-0.36-7.05,4.56
			c-19.97,5.64-37.41,16.09-53.93,28.29c-4.21,2.48-3.57,4.69,0.36,6.73c26.87,7.63,31.5,29.11,32.88,52.67
			c2.79,47.54-0.47,94.82-8.35,141.62c-10.8,64.16-21.26,128.64-57.98,184.75c-9.08,5.85-19.2,6.35-29.59,6.04
			C3403.86,3142.62,3365.68,3141.65,3327.5,3140.61z"/>
		<path class="st2" d="M953.48,3031.17c-53.34,0.15-94.64-29.78-106.09-86.62c-2.1-10.45-8.96-18.69-15.32-26.5
			c-10.94-13.46-19.12-28.32-27.13-43.51c-5.09-9.64-7.17-15.14,5.6-21.56c12.91-6.48,11.9-29.99,0.18-39.23
			c-3.72-2.93-8.56-4.39-12.53-7.05c-8.73-5.87-24.51-6.85-16.82-24.39c6.92-15.78,24.4-25.7,38.15-18.08
			c37.84,20.96,78.95,34.73,117.01,55.02c5.13,2.73,9.93,4.29,15.52,4.17c2.02,4.8,4.54,9.06,10.45,9.65
			c20.95,17.74,36.03,40.52,52.73,67.72c6.48-47.1,5.54-89.02,14.84-129.68c5.94-25.97,12.84-51.72,19-77.63
			c1.67-7.02,5.06-18.35-5.62-18.13c-28.01,0.59-53.46-11.33-80.68-13.56c-2.43-3.97-3.32-10.41-10.61-6.66
			c-15.49-19.81-34.65-36.87-39.3-63.95c-2.96-17.25-3.34-33.7-0.58-50.91c2.33-14.51,6.71-28.83,2.42-44.39
			c-2.85-10.32-5.96-21.59,9.58-30.03c11.56-6.28,9.2-22.27,1.94-33.33c-17.19-26.19-12.98-42.26,16.02-55.35
			c3.77-1.7,7.94-2.36,9.97-6.54c2.9,0.62,5.8,1.25,8.69,1.87c14.72-1.39,28.98,3.55,37.52,13.77c27.57,33,58.6,63.81,73.52,105.82
			c11.5,32.39,16.5,65.8,18.63,100.85c17.14-30.78,38-58.44,56.77-87.48c4.71-7.28,1.04-14.16-1.25-21.58
			c-7.57-24.56-20.66-46.33-32.51-68.81c-9.67-18.35-8.5-37.62,7.01-50.97c12.84-11.06,21.67-24.38,32.23-36.84
			c8.93-10.55,20.45-20.77,37.49-13.56c34.8,14.74,62.12,72.12,48.46,107.19c-10.48,26.93-24.9,51.97-50.12,69
			c-10.74,7.25-21.78,15.2-29.79,25.16c-25.88,32.2-48.34,67.07-65.93,104.33c-55.5,117.54-72.83,240.77-50.4,369.11
			c7.54,43.1,21.11,84.43,39.54,124.86c-3.62-57.25,23.33-104.93,45.6-153.87c8.8-19.34,26.3-25.31,46.24-24.27
			c16.6,0.86,36.24,6.51,37.73,22.76c2.08,22.68,4.69,42.95,21.19,59.57c0.37,0.37,0.03,1.37,0.22,2.02
			c8.97,30.04,4.69,55.57-19.3,78.84c-9.37,9.09-27.75,19.07-18.06,39.07c-40.12,0.03-80.24,0.07-120.35,0.11
			c-13.65-35.8-29.93-70.69-37.27-108.67c-2.19-11.33-8.98-11.56-18.53-8.33c-18.88,6.39-38.38,10.18-58.45,10.21
			C958.53,3030.93,956.01,3031.05,953.48,3031.17z"/>
		<path class="st0" d="M3405.43,2103.11c-36.64,26.1-77,44.15-120.26,56.21c-14.96,4.17-22.7,1.28-25.61-15.69
			c-2.72-15.83-6.6-32.08-17.27-46.78c-9.23,6.25-6.11,15.13-6,22.35c0.35,22.03,1.38,43.96-20.81,57.73
			c-18.14,8.68-25.34,1.7-28.98-17.01c-3.47-17.83-11.08-34.85-16.87-52.23c26.18,5.16,28.53,2.85,24.4-23.92
			c-1.15-7.43-2.43-14.84-3.43-22.29c-5.89-44.06-11.47-88.17-17.71-132.18c-1.52-10.71-7.93-21.92-18.42-22.2
			c-9.08-0.24-6.55,13.08-8.67,20.11c-13.77,45.73-9.85,42.1-48.4,44.3c-13.64,0.78-27.18,3.18-40.77,4.84
			c-12.35,0.84-24.7,2.2-37.07,2.4c-22.86,0.39-29.12-5.2-31.61-28.02c-2-18.32,1.24-35.38,12.45-50.82
			c7.64-10.52,13.76-22.12,20.69-33.16c5.21-8.3,11.85-18.84,21.02-18.36c24.95,1.32,37.61-13.89,51.33-30.48
			c8.36-10.11,21.37-15.85,34.13-18.2c34.43-6.34,67.15-19.28,101.4-25.67c28.13-5.25,56.31-2.29,82.85,9.63
			c6.82,3.07,15.68,5.87,19.12,11.52c23.1,38.02,61.96,66.66,68.85,114.36c2.07,14.29,3.39,28.73,6.34,42.84
			c4.97,23.82,14.28,44.77,41.02,51.51c3.62,6.92,9.51,9.21,16.96,8.35c0.6,7.8-2.23,14.85-4.98,21.85
			C3448.03,2062.36,3427.17,2083.09,3405.43,2103.11z"/>
		<path class="st3" d="M1075.31,3137.58c40.12-0.04,80.24-0.07,120.35-0.1c132.35,0.03,264.71,0.06,397.07,0.1
			c24.93-0.03,49.85-0.07,74.78-0.1c121.57,0.1,243.14,0.2,364.71,0.3c6.17,6.79,12.26,5.87,18.29-0.2
			c92,0.3,183.99,0.61,275.99,0.91c-0.89,4.26-0.85,8.91-4.94,11.83c-453.16-0.07-906.31-0.14-1359.47-0.21
			c-3.17,0.14-6.35,0.28-9.52,0.42c-142.66-0.17-285.33-0.26-427.99-0.73c-8.96-0.03-24.97,4.55-25.18-5.87
			c-0.24-11.67,15.41-5.77,23.65-5.8c143.35-0.59,286.71-0.6,430.06-0.74c2.63,0.21,5.26,0.42,7.89,0.63
			C999.1,3137.88,1037.21,3137.73,1075.31,3137.58z"/>
		<path class="st4" d="M960.9,2372.51c-2.9-0.62-5.8-1.25-8.69-1.87c0.28-83.42,0.3-166.84,0.91-250.26
			c0.44-58.84,32.77-101.85,85.19-114.71c13.57-3.33,27.41-2.54,41.17-2.54c299.32-0.05,598.64-0.03,897.97-0.06
			c8.27,0,16.54-0.3,24.81-0.45c5.77,1.8,11.54,1.8,17.31,0.01c91.66,0.16,183.32,0.41,274.98,0.45
			c254.33,0.12,508.65,0.15,762.98,0.22c4.31,2.27,2.08,5.02,0.55,7.71c-8.27,0.15-16.54,0.44-24.81,0.44
			c-650.95,0.02-1301.91,0.01-1952.86,0.06c-13.75,0-27.57-0.9-41.14,2.61c-48.32,12.5-77.26,51.18-77.68,106.08
			C960.93,2204.29,961.08,2288.4,960.9,2372.51z"/>
		<path class="st5" d="M2158.74,3709.77c3.42,5.67,11.97,7.74,7.06,18.48c-15.66,34.24-29.62,69.27-44.24,104
			c-31.29-13.71-31.29-13.71-27.14-43.02c-1.19-0.14-3.02-0.84-3.47-0.33c-15.82,18.11-31.87,14.34-50.06,2.77
			c-17.32-11.02-36.25-19.51-54.57-28.91c-10.64-5.46-18.47-12.96-16.07-25.81c2.37-12.68,12.28-17.46,24.05-18.94
			c23.2-2.91,46.34-6.98,69.63-8.09c14.57-0.69,23.34-5.96,27.54-19.25c4.34-13.73,12.62-13,22.74-6.88
			C2128.08,3694.1,2142.35,3703.74,2158.74,3709.77z"/>
		<path class="st6" d="M3058.07,2011c1.53-2.69,3.76-5.43-0.55-7.71c2.37-9.07,0.7-18-0.88-26.94c13.59-1.66,27.13-4.06,40.77-4.84
			c38.54-2.2,34.63,1.43,48.4-44.3c2.12-7.03-0.41-20.35,8.67-20.11c10.49,0.27,16.9,11.48,18.42,22.2
			c6.24,44.01,11.82,88.12,17.71,132.18c1,7.45,2.28,14.86,3.43,22.29c4.13,26.78,1.78,29.08-24.4,23.92
			c-2.03,0.01-4.05,0.03-6.08,0.04c-14.35-5.58-28.7-11.15-43.05-16.73c-19.33-16.66-38.3-33.53-49.58-57.31
			C3067.22,2025.89,3067.35,2015.7,3058.07,2011z"/>
		<path class="st7" d="M952.56,3150.53c3.17-0.14,6.35-0.28,9.52-0.42c-0.16,34.46-0.5,68.92-0.43,103.38
			c0.16,75.41,40.79,115.64,116.63,115.65c239.91,0.02,479.81-0.04,719.72,0.03c142.7,0.04,285.4,0.24,428.09,0.37
			c-0.24,3.29-0.38,6.62-3.95,8.32c-383.01-0.03-766.03-0.03-1149.04-0.13c-73.92-0.02-119.39-45.48-120.27-119.75
			c-0.07-6.2-0.01-12.4-0.02-18.6C952.73,3209.77,952.64,3180.15,952.56,3150.53z"/>
		<path class="st7" d="M2387.38,3376.89c0.28-3.17,0.96-6.09,4.45-7.3c1.34-0.39,2.68-0.79,4.02-1.18c2.05,0.23,4.1,0.66,6.15,0.66
			c350.4,0.04,700.8,0.24,1051.2-0.14c59.16-0.06,101.99-41.64,104.28-100.82c1.52-39.22-0.12-78.57-0.34-117.86
			c3.45-4.49,6.88-4.14,10.31,0.02c-0.28,37.9-0.27,75.8-0.89,113.69c-1.09,65.93-48.36,113.62-114.03,113.67
			c-351.63,0.25-703.26,0.12-1054.89,0.09C2394.22,3377.72,2390.8,3377.18,2387.38,3376.89z"/>
		<path class="st8" d="M3567.46,3150.28c-3.43-4.16-6.86-4.52-10.31-0.02c-80.6,0.01-161.21,0.09-241.81-0.09
			c-7.22-0.02-15.35,2.78-21.37-4.15c10.51-5.89,22.76-1.01,33.53-5.41c38.18,1.03,76.36,2,114.54,3.14
			c10.4,0.31,20.51-0.19,29.59-6.04c28.66,0.17,57.32,0.34,85.97,0.5c3.2-0.12,6.39-0.24,9.59-0.36c136.58,0,273.17-0.01,409.75,0
			c5.52,0,11.04-0.02,16.55,0.22c3.7,0.16,7.03,1.79,7.12,5.86c0.09,4.08-3.12,5.88-6.86,6.06c-5.51,0.27-11.03,0.27-16.54,0.28
			C3840.62,3150.29,3704.04,3150.28,3567.46,3150.28z"/>
		<path class="st9" d="M3464.13,2012.25c-7.45,0.87-13.34-1.43-16.96-8.35c67.43-5.32,119.33,43.88,119.53,114.55
			c0.38,135.73,0.17,271.46,0.08,407.2c-0.03,49.59-0.42,99.19-0.65,148.78c-2.64-3.28-5.27-6.55-7.91-9.83
			c-0.22-2.38-0.45-4.76-0.67-7.14c0-28.86,0-57.71,0-86.57c-0.05-52.59-0.1-105.19-0.14-157.78c0.13-98.93,0.84-197.86,0.16-296.78
			C3557.2,2058.8,3519.5,2018.02,3464.13,2012.25z"/>
		<path class="st10" d="M2158.74,3709.77c-16.38-6.03-30.66-15.66-44.53-25.99c10.26-26.43,20.52-52.86,30.79-79.3
			c19.14,6.54,37.78,13.98,52.4,28.76C2187.84,3660.42,2172.8,3684.85,2158.74,3709.77z"/>
		<path class="st4" d="M3567.19,3137.86c-3.2,0.12-6.39,0.24-9.59,0.36c0.17-15.81,0.47-31.61,0.5-47.42
			c0.21-122.38,0.37-244.77,0.55-367.15c0.15-4.92,1.99-7.23,7.05-4.56c0.27,115.53,0.5,231.06,0.82,346.59
			C3566.58,3089.74,3566.96,3113.8,3567.19,3137.86z"/>
		<path class="st4" d="M952.14,2655.13c7.29-3.75,8.17,2.68,10.61,6.66c-2.18,57.09-1.94,114.18-0.26,171.27
			c-5.91-0.59-8.43-4.85-10.45-9.65C952.07,2767.32,952.11,2711.22,952.14,2655.13z"/>
		<path class="st4" d="M961,3138.03c-2.63-0.21-5.26-0.42-7.89-0.63c0.12-35.41,0.25-70.82,0.37-106.23
			c2.52-0.12,5.05-0.25,7.58-0.37C961.04,3066.54,961.02,3102.28,961,3138.03z"/>
		<path class="st7" d="M1994.8,1855.87c-0.69,9.14-1.71,19.18-13.21,19.74c-12.13,0.59-13.77-10.11-13.72-18.87
			c0.05-8.76,1.72-19.19,13.94-18.76C1992.35,1838.35,1993.81,1847.38,1994.8,1855.87z"/>
		<path class="st3" d="M2019.56,2002.62c-5.77,1.79-11.54,1.79-17.31-0.01c-1.14-6.64-2.72-13.23-3.33-19.92
			c-0.82-9.04,2.39-17.73,12-18.09c8.46-0.32,12.44,7.74,12,16.01C2022.53,1987.99,2020.73,1995.29,2019.56,2002.62z"/>
		<path class="st11" d="M3163.55,2107.73c2.03-0.02,4.05-0.03,6.08-0.04c5.79,17.38,13.39,34.4,16.87,52.23
			c3.65,18.71,10.84,25.7,28.98,17.01c11.26,20.64,18.79,40.9,12.33,65.97c-19,73.79-36.11,148.06-53.42,222.27
			c-2.34,10.03-5.07,15.98-16.91,15.66c-8.67-0.23-18.6,8.35-23.94,7.98c-23.09-1.6-46.08-7.09-68.54-13.23
			c-4.93-1.35-2.5-11.27-0.2-17.13c4.73-12.07,9.66-24.07,14.51-36.1c0.77-0.86,1.54-1.72,2.31-2.58c-1.63-0.16-3.26-0.32-4.89-0.49
			c-8.12,3.71-15.98,8.26-24.44,10.91c-11.08,3.48-25.02,11.01-24.29-11.93c0.11-3.51-5.01-8.5-8.9-10.62
			c-29.1-15.78-59.49-27.87-93.07-29.81c-7.14-5.24-14.61-10.1-21.34-15.82c-6.27-5.33-14.24-8.04-14.11-20.1
			c0.45-41.68-22.82-62.48-64.18-59.86c-8.42-9.58-16.8-19.19-25.28-28.71c-9.18-10.32-19.77-16.18-33.88-10.12
			c-10.84-2.69-18.72,2.17-25.42,10c0,0-1.17,0.83-1.17,0.83c-3.69,2.87-7.38,5.75-11.07,8.62l0.01,0.18
			c-1.43,1.17-2.87,2.35-4.3,3.52c0,0-1.39,0.31-1.39,0.31c-16.99,15.01-17.8,31.12-5.03,49.37c11.95,17.09,31.49,27.73,39.56,47.86
			c-25.58,7.52-33.64,28.62-39.74,51.24c-17.94-10.17-35.41-21.34-53.93-30.32c-48.41-23.49-96.32-13.77-121.34,33.69
			c-35.07,66.53-88.67,117-135.62,173.22c-50.33,60.28-102.53,119.05-157.03,175.67c-12.39,12.87-29.47,22.17-22.13,45.03
			c1.55,4.84-1.18,14.39-8.87,13.98c-17.98-0.94-21.93,12.93-26.11,24.42c-7.47,20.56-23.04,39.15-17.62,63.34
			c-28.81,30.44-57.62,60.88-86.44,91.32c-6.31-1.07-6.25-20.01-16.95-7.15c-14.74,17.7-30.95,14.93-49.68,8.31
			c-18.09-6.39-37.27-9.67-55.65-15.32c-11.9-3.66-22.2-2.92-29.39,7.63c-7.31,10.72-3.68,20.77,4.25,30.02
			c14.8,17.25,30.59,33.86,43.6,52.4c10.86,15.49,23.01,19.46,39.81,13.01c1.74,1.55,3.48,3.09,5.23,4.64
			c-16.58,13.51-9.67,26.19,1.39,38.71c-121.57-0.1-243.14-0.2-364.71-0.3c-1.66-9.69,5.11-14.95,10.74-21
			c13.63-14.63,23.61-30.65,13.76-51.32c-5.54-11.63-12.79-22.09-11.46-36.29c0.55-5.93-6.33-9.96-12.34-12.58
			c-17.95-7.84-37.31,0.45-45.09,20.26c-10.76,27.38-25.95,53.52-23.53,84.9c-26.14-50.36-28.78-105.25-33.74-163.04
			c-9.7,11.9-2.97,22.4-8.02,31.06c-6.04-7.68-11.43-14.6-16.89-21.48c-26.75-33.67-69.32-40.36-104-60.5
			c-8.37-4.86-16.22,0.71-20.37,8.91c-4.54,8.96,0.92,13.66,8.43,17.74c8.34,4.52,20.84,11.13,11.41,21.22
			c-15.32,16.39-4.6,27.78,3.75,39.58c7.56,10.68,14.14,21.05,18.18,33.91c6.51,20.73,20.65,35.41,42.96,40.48
			c18.5,4.2,36.74,3.69,54.75-2.43c6.36-2.16,13.15-6.78,16.41,4.05c6.68,22.23,13.51,44.42,20.28,66.63
			c-132.36-0.03-264.71-0.06-397.07-0.1c-9.68-20.01,8.69-29.99,18.07-39.08c23.99-23.26,28.27-48.79,19.3-78.84
			c-0.19-0.65,0.15-1.64-0.22-2.02c-16.51-16.62-19.11-36.89-21.19-59.57c-1.49-16.25-21.13-21.89-37.73-22.76
			c-19.94-1.04-37.44,4.93-46.24,24.27c-22.27,48.94-49.22,96.62-45.6,153.87c-18.43-40.43-32-81.76-39.54-124.86
			c-22.44-128.34-5.1-251.57,50.4-369.11c17.59-37.26,40.05-72.13,65.93-104.33c8-9.96,19.05-17.9,29.79-25.16
			c25.21-17.03,39.63-42.07,50.12-69c13.66-35.08-13.66-92.46-48.46-107.19c-17.04-7.21-28.55,3.01-37.49,13.56
			c-10.55,12.46-19.39,25.78-32.23,36.84c-15.5,13.35-16.68,32.62-7.01,50.97c11.85,22.47,24.94,44.25,32.51,68.81
			c2.29,7.42,5.96,14.3,1.25,21.58c-18.77,29.04-39.62,56.7-56.77,87.48c-2.12-35.05-7.13-68.46-18.63-100.85
			c-14.92-42.01-45.95-72.82-73.52-105.82c-8.54-10.22-22.8-15.16-37.52-13.77c0.19-84.11,0.04-168.22,0.68-252.32
			c0.42-54.9,29.36-93.58,77.68-106.08c13.58-3.51,27.4-2.61,41.14-2.61c650.95-0.05,1301.91-0.04,1952.86-0.06
			c8.27,0,16.54-0.28,24.81-0.44c9.29,4.7,9.16,14.89,12.86,22.7c11.28,23.77,30.25,40.64,49.58,57.31
			c3.61,27.93,8.02,55.78,10.46,83.81c1.12,12.85,8.69,11.14,16.83,11.8c9.87,0.8,13.08-3.68,13.83-13.03
			C3163.4,2151.64,3166.45,2129.79,3163.55,2107.73z M1609.38,2802.61c-13.63-3.34-7.75-14.45-8.01-22.18
			c-1.53-46.04-26.67-79.23-58.53-108.59c-11.41-10.51-25.14-7.88-35.88,0.85c-9.75,7.93-13.4,19.08-3.68,30.75
			c3.31,3.98,4.65,11.19,2.07,13.54c-16.3,14.79-5.67,34.48-10.1,51.47c-9.98,38.25,10.86,69.62,49.2,79.25
			c7.93,1.99,16.04,3.97,24.15,4.4c10.57,0.56,13.32,5.38,10.48,14.71c-1.6,5.25-4.13,10.29-5.15,15.63
			c-4.19,21.91-12.49,43.5-6.55,66.39c5.26-17.39,8.87-34.97,11.56-52.7c5-32.89,24.93-60.83,30.49-93.48
			c5.81-0.01,7.98-4.29,10.49-8.53c13.32-22.48,28.3-42.88,49.92-59.11c25.58-19.19,32.88-50.24,21.76-79.66
			c-5.6-14.79-17.16-26.16-33.8-25.92c-20.29,0.29-45.47,49.88-35.86,67.84c4.51,8.43,7.69,17.64,12.75,25.7
			c9.44,15.04,5.98,27.07-4.19,40.71C1621.8,2775.36,1609.68,2786.06,1609.38,2802.61z M2339.07,2169
			c-15.79-0.09-27.27,7.44-28,18.38c-0.9,13.3,15.57,25.43,34.53,24.75c12.99-0.46,25.45-3.31,26.68-19.43
			C2373.25,2179.92,2357.35,2169.11,2339.07,2169z M2080.08,2024.2c-17.61-0.11-28.49,7.71-27.99,20.11
			c0.52,12.91,16.33,24.32,33.94,23.28c12.78-0.75,25.47-3.96,27.35-19.56C2114.87,2035.8,2097.97,2024.31,2080.08,2024.2z
			 M2133.55,2231.45c24.64,0.32,34.02-5.75,34.59-17.75c0.67-14.08-12.24-23.15-32.36-23.78c-14.82-0.46-29.31,4.66-28.03,19.57
			C2109.08,2225.04,2124.87,2230.96,2133.55,2231.45z M2254.03,2237.48c10.41-3.12,13.27-11.62,12.76-20.89
			c-0.46-8.3-3.17-18.19-13.42-17.72c-12.34,0.57-14.53,11.5-13.84,21.42C2240.1,2228.59,2243.28,2236.58,2254.03,2237.48z
			 M2102.18,2126.7c0.68,9.93,3.25,20.06,14.12,19.88c10.79-0.18,13.59-10.71,13.66-19.99c0.07-8.64-3.06-17.89-12.94-18.31
			C2105.55,2107.79,2103.56,2117.84,2102.18,2126.7z M2201.23,2079.38c0.04,8.89,3.1,17.97,12.46,17.71
			c10.64-0.29,12.72-10.12,12.56-19.69c-0.15-8.97-3.09-17.99-12.44-17.74C2203.14,2059.94,2200.96,2069.82,2201.23,2079.38z"/>
		<path class="st8" d="M2226.1,3369.54c-142.7-0.13-285.4-0.33-428.09-0.37c-239.91-0.06-479.81,0-719.72-0.03
			c-75.85-0.01-116.47-40.24-116.63-115.65c-0.07-34.46,0.27-68.92,0.43-103.38c453.16,0.07,906.31,0.14,1359.47,0.21
			C2291.24,3224.05,2260.17,3297.45,2226.1,3369.54z M1961.01,3303.82c-26.03-15.49-50.05-15.61-66.53-1.88
			C1915.48,3310.71,1935.59,3310.81,1961.01,3303.82z M1677.12,3249.53c-19.76-11.35-37.25-10.78-55.03-8.02
			c-3.48,0.54-7.29,1.43-7.94,5.29c-0.7,4.15,3.02,5.75,6.29,6.58C1638.37,3257.94,1656.25,3260.92,1677.12,3249.53z
			 M1718.4,3302.88c-7.04,3.22-22.77-4.52-23,7.38c-0.2,10.59,15.65,10.04,25.37,9.43c9.37-0.59,26.13,5.47,26.18-6.85
			C1747.02,3299.63,1729.93,3304.77,1718.4,3302.88z M1852.78,3312.27c-4.12-6.63-10.73-8.22-17.74-7.36
			c-4.53,0.56-11.29,2.48-8.44,8.62c3.23,6.96,11.1,7.34,18.24,6.42C1849.09,3319.4,1852.88,3317.94,1852.78,3312.27z
			 M1528.61,3177.18c-3.13-7.9-10.3-7.63-16.88-7.52c-3.71,0.06-9.55,0.53-9.08,5.62c0.85,9.19,8.93,8.41,15.46,8.59
			C1522.73,3184,1527.77,3183.82,1528.61,3177.18z M1794.25,3258.68c-1.57-6.13-7.01-7.95-12.09-8.23
			c-5.94-0.33-13.03,1.22-13.32,8.66c-0.21,5.42,5.57,6.82,10.49,6.94C1785.39,3266.2,1791.66,3266.5,1794.25,3258.68z
			 M1700.53,3281.02c-0.64-7.2-6.3-8.68-11.7-9.24c-5.38-0.56-12.1-0.25-12.41,7.08c-0.25,5.85,5.58,7.28,10.37,7.75
			C1692.11,3287.14,1698.05,3288.03,1700.53,3281.02z M1574.67,3225.16c-2.54-6.45-8.38-7.93-14.56-8.32
			c-4.51-0.28-8.41,1.47-7.85,6.87c0.68,6.65,5.49,9,11.54,9.07C1568.87,3232.84,1573.2,3231.36,1574.67,3225.16z"/>
		<path class="st11" d="M3293.97,3146.02c6.02,6.92,14.15,4.13,21.37,4.15c80.6,0.18,161.21,0.1,241.81,0.09
			c0.22,39.29,1.87,78.64,0.34,117.86c-2.3,59.18-45.13,100.75-104.28,100.82c-350.4,0.38-700.8,0.18-1051.2,0.14
			c-2.05,0-4.1-0.43-6.15-0.66c-0.11-2.62-0.21-5.25-0.32-7.87c42.65-71.11,86.63-141.38,132.86-210.22
			c214.27-0.01,428.54,0.02,642.8-0.17c7.88-0.01,16.69,3.16,23.49-4.01C3227.78,3146.1,3260.87,3146.06,3293.97,3146.02z"/>
		<path class="st8" d="M2326.5,3138.5c-92-0.3-183.99-0.61-275.99-0.91c22.45-22.92,44.55-46.2,67.55-68.56
			c7.44-7.24,10.76-13.32,4.06-22.24c32.26-27.78,64.52-55.55,96.77-83.33c14.22,19.76,27.31,14.33,44.93,1.94
			c134.27-94.41,252.13-207.17,366.36-324.11c4.33-4.44,9.71-8.33,12.65-13.56c10.7-19.01,25.43-3.42,26.75,1.75
			c8.02,31.33,36.99,45.03,53.71,68.63c1.97,2.78,4.79,4.94,7.14,7.46c26.05,27.88,53.43,53.68,70.53,89.81
			c18.8,39.72,49.72,72.5,77.14,107.01c5.85,7.36,11.82,14.62,18.37,22.71c-26.22,0-50.64,0.85-74.99-0.15
			c-89.63-3.69-179.07-3.03-268.33,7.52c-20.39,2.41-41.17,0.33-61.45,5.69c-59.35,15.69-100.32,52.09-124.5,108.2
			C2353.91,3077.19,2340.08,3107.79,2326.5,3138.5z"/>
		<path class="st10" d="M2718.69,2415.17c6.1-22.62,14.16-43.72,39.74-51.23c6.29-0.55,12.59-1.09,18.89-1.64
			c35.87,7.14,47.57,21.07,49.94,59.46c-0.83,19.49,16.37,21.77,28.02,29.36c1.83,2.85,3.66,5.71,5.49,8.56
			c-10.66,23.8-24.64,45.48-41.73,65.16c-24.14-23.93-46.17-50.14-75.43-68.54C2728.69,2446.91,2725.66,2429.71,2718.69,2415.17z"/>
		<path class="st8" d="M3194.69,3146.13c-6.81,7.17-15.62,4.01-23.49,4.01c-214.27,0.19-428.54,0.16-642.8,0.17
			c3.7-10.97,10.3-15.7,22.87-15.51c207.07,3.03,414.14,5.53,621.21,8.32C3179.9,3143.22,3187.68,3142.28,3194.69,3146.13z"/>
		<path class="st10" d="M2218.89,2963.45c-32.26,27.78-64.52,55.55-96.77,83.33c-10.83-13.75-21.67-27.5-32.5-41.25
			c28.81-30.44,57.62-60.88,86.44-91.32C2191.57,2929.55,2207.25,2944.75,2218.89,2963.45z"/>
		<path class="st8" d="M2395.52,3360.53c0.11,2.62,0.21,5.25,0.32,7.87c-1.34,0.39-2.68,0.79-4.02,1.18
			C2390.69,3365.6,2391.9,3362.58,2395.52,3360.53z"/>
		<path class="st8" d="M3464.13,2012.25c55.36,5.77,93.06,46.54,93.45,104.09c0.67,98.92-0.04,197.85-0.16,296.78
			c-1.93,0.07-3.87,0.14-5.8,0.21c-20.12-94.54-63.8-178.74-114.31-259.91c-10.49-16.86-21.25-33.54-31.88-50.31
			c21.74-20.02,42.6-40.75,53.72-69.01C3461.9,2027.1,3464.73,2020.05,3464.13,2012.25z"/>
		<path class="st11" d="M3558.65,2723.65c-0.18,122.38-0.34,244.77-0.55,367.15c-0.03,15.81-0.33,31.61-0.5,47.42
			c-28.66-0.17-57.32-0.33-85.97-0.5c36.72-56.12,47.19-120.59,57.98-184.75c7.88-46.8,11.13-94.08,8.35-141.62
			c-1.38-23.56-6.01-45.04-32.88-52.67c-0.12-2.25-0.24-4.49-0.36-6.73C3521.24,2739.74,3538.68,2729.29,3558.65,2723.65z"/>
		<path class="st10" d="M2826.4,2282.06c41.36-2.62,64.62,18.17,64.18,59.86c-0.13,12.06,7.83,14.77,14.11,20.1
			c6.73,5.72,14.2,10.58,21.34,15.82c-4.51,12.21-11.51,22.81-20.81,31.89l-0.72-0.73c5.54-15.37,3.18-27.92-8.32-41.03
			C2871.86,2340.25,2849.54,2310.8,2826.4,2282.06z"/>
		<path class="st12" d="M3557.56,2570.9c0,28.86,0,57.71,0,86.57c-2.29,0.12-4.58,0.23-6.87,0.35
			c-12.74-7.63-16.73-16.35-10.47-31.95c7.9-19.7,10.19-41.34,11.59-62.72C3553.73,2565.73,3555.65,2568.32,3557.56,2570.9z"/>
		<path class="st3" d="M3557.56,2570.9c-1.92-2.59-3.84-5.18-5.75-7.76c4.55-32.7,4.75-65.62,4.17-98.5
			c-0.31-17.12-2.83-34.21-4.35-51.31c1.93-0.07,3.87-0.14,5.8-0.21C3557.47,2465.72,3557.52,2518.31,3557.56,2570.9z"/>
		<path class="st12" d="M2860.77,2459.68c-1.83-2.85-3.66-5.71-5.49-8.56c6.86-4.58,13.72-9.16,20.59-13.74
			c2.82,1.87,5.64,3.74,8.46,5.61C2882.7,2457.33,2871.45,2458.1,2860.77,2459.68z"/>
		<path class="st10" d="M2884.33,2442.98c-2.82-1.87-5.64-3.74-8.46-5.61c3.99-5.88,10.43-8.35,16.27-11.66l1.35,1.13
			C2892.9,2433.62,2890.37,2439.3,2884.33,2442.98z"/>
		<path class="st10" d="M2905.21,2409.73c-1.04,7.67-6.05,12.62-11.73,17.1c0.01,0.01-1.34-1.12-1.34-1.12
			c0.13-2.69,0.25-5.39,0.37-8.09l-0.09,0.14c1.16-1.37,2.33-2.74,3.49-4.11c2.04-3.06,4.84-4.71,8.57-4.66L2905.21,2409.73z"/>
		<path class="st3" d="M3550.69,2657.82c2.29-0.12,4.58-0.23,6.87-0.35c0.22,2.38,0.45,4.76,0.67,7.14
			C3554.58,2663.6,3552,2661.42,3550.69,2657.82z"/>
		<path class="st8" d="M3504.71,2751.94c0.12,2.24,0.24,4.48,0.36,6.73C3501.15,2756.64,3500.51,2754.42,3504.71,2751.94z"/>
		<path class="st11" d="M962.49,2833.06c-1.68-57.09-1.92-114.19,0.26-171.27c27.22,2.23,52.68,14.14,80.68,13.56
			c10.68-0.22,7.29,11.11,5.62,18.13c-6.16,25.92-13.06,51.67-19,77.63c-9.29,40.66-8.35,82.58-14.84,129.68
			C998.51,2873.58,983.44,2850.8,962.49,2833.06z"/>
		<path class="st11" d="M961,3138.03c0.02-35.74,0.04-71.48,0.06-107.23c20.07-0.03,39.56-3.82,58.45-10.21
			c9.55-3.23,16.34-3,18.53,8.33c7.34,37.98,23.62,72.87,37.27,108.67C1037.21,3137.73,999.1,3137.88,961,3138.03z"/>
		<path class="st13" d="M1592.73,3137.58c-6.77-22.21-13.6-44.4-20.28-66.63c-3.25-10.83-10.05-6.21-16.41-4.05
			c-18.01,6.12-36.26,6.63-54.75,2.43c-22.31-5.07-36.46-19.75-42.96-40.48c-4.04-12.86-10.62-23.23-18.18-33.91
			c-8.35-11.79-19.07-23.18-3.75-39.58c9.43-10.09-3.07-16.7-11.41-21.22c-7.51-4.07-12.96-8.78-8.43-17.74
			c4.15-8.19,12.01-13.77,20.37-8.91c34.68,20.14,77.25,26.82,104,60.5c5.46,6.87,10.86,13.8,16.89,21.48
			c5.04-8.65-1.68-19.15,8.02-31.06c4.96,57.79,7.6,112.68,33.74,163.04c-2.42-31.37,12.78-57.51,23.53-84.9
			c7.78-19.81,27.14-28.1,45.09-20.26c6,2.62,12.89,6.65,12.34,12.58c-1.32,14.2,5.92,24.66,11.46,36.29
			c9.85,20.67-0.13,36.69-13.76,51.32c-5.63,6.05-12.41,11.31-10.74,21C1642.58,3137.51,1617.66,3137.54,1592.73,3137.58z"/>
		<path class="st5" d="M2089.62,3005.53c10.83,13.75,21.67,27.5,32.5,41.25c6.7,8.92,3.38,15-4.06,22.24
			c-22.99,22.36-45.1,45.64-67.55,68.56c-6.03,6.07-12.12,6.98-18.29,0.2c-11.05-12.52-17.97-25.2-1.39-38.71
			c1.19-1.91,2.37-3.83,3.56-5.74c-3.18-1.64-6.03-0.69-8.78,1.1c-16.81,6.45-28.95,2.48-39.81-13.01
			c-13-18.54-28.79-35.14-43.6-52.4c-7.94-9.25-11.57-19.3-4.25-30.02c7.19-10.55,17.49-11.29,29.39-7.63
			c18.39,5.65,37.56,8.93,55.65,15.32c18.74,6.62,34.94,9.39,49.68-8.31C2083.37,2985.52,2083.3,3004.46,2089.62,3005.53z"/>
		<path class="st5" d="M3163.55,2107.73c2.89,22.06-0.16,43.91-1.93,65.85c-0.76,9.35-3.96,13.83-13.83,13.03
			c-8.14-0.66-15.71,1.06-16.83-11.8c-2.44-28.03-6.85-55.88-10.46-83.81C3134.85,2096.58,3149.2,2102.15,3163.55,2107.73z"/>
		<path class="st14" d="M2904.49,2409c-3.73-0.05-6.53,1.6-8.57,4.65c-1.16,1.37-2.33,2.74-3.5,4.11c0,0,0.09-0.14,0.09-0.14
			c-6-0.21-9.87,3.97-14.22,7.05c-17.82,12.59-34.89,13.24-51.03-2.92c-2.37-38.39-14.07-52.32-49.95-59.44
			c-6.94-12.63-16.43-23.28-25.82-34.12c-15.29-17.63-33.24-34.35-27.59-61.49c0,0,1.39-0.31,1.41-0.29
			c3.45,1.24,4.55-0.34,4.29-3.55c0,0-0.01-0.18,0-0.18c7.41,1.89,13.08,1.54,11.07-8.63c0,0,1.17-0.83,1.17-0.82
			c12.08,5.81,16.69-7.32,25.41-10.01c14.11-6.06,24.69-0.2,33.88,10.12c8.48,9.52,16.85,19.14,25.28,28.71
			c23.14,28.74,45.47,58.19,69.77,85.91C2907.67,2381.09,2910.03,2393.63,2904.49,2409z"/>
		<path class="st13" d="M1609.43,2802.66c-5.57,32.65-25.49,60.59-30.49,93.48c-2.7,17.72-6.3,35.31-11.56,52.7
			c-5.94-22.88,2.36-44.48,6.55-66.39c1.02-5.34,3.55-10.38,5.15-15.63c2.84-9.33,0.09-14.15-10.48-14.71
			c-8.11-0.43-16.22-2.41-24.15-4.4c-38.34-9.63-59.18-41-49.2-79.25c4.44-17-6.2-36.68,10.1-51.47c2.58-2.34,1.24-9.56-2.07-13.54
			c-9.71-11.67-6.07-22.83,3.68-30.75c10.74-8.73,24.48-11.36,35.88-0.85c31.86,29.36,57,62.55,58.53,108.59
			c0.26,7.73-5.62,18.83,8.01,22.18L1609.43,2802.66z"/>
		<path class="st13" d="M1609.38,2802.61c0.29-16.56,12.41-27.25,21.11-38.92c10.17-13.65,13.63-25.67,4.19-40.71
			c-5.06-8.06-8.24-17.27-12.75-25.7c-9.61-17.96,15.57-67.55,35.86-67.84c16.64-0.24,28.2,11.13,33.8,25.92
			c11.13,29.41,3.82,60.47-21.76,79.66c-21.62,16.22-36.6,36.63-49.92,59.11c-2.51,4.24-4.68,8.52-10.49,8.53
			C1609.43,2802.66,1609.38,2802.61,1609.38,2802.61z"/>
		<path class="st4" d="M2339.07,2169c18.28,0.11,34.18,10.92,33.21,23.7c-1.22,16.12-13.69,18.96-26.68,19.43
			c-18.96,0.67-35.43-11.45-34.53-24.75C2311.8,2176.44,2323.28,2168.91,2339.07,2169z"/>
		<path class="st2" d="M2080.08,2024.2c17.89,0.11,34.79,11.6,33.31,23.83c-1.89,15.6-14.58,18.81-27.35,19.56
			c-17.62,1.04-33.42-10.37-33.94-23.28C2051.59,2031.9,2062.46,2024.09,2080.08,2024.2z"/>
		<path class="st12" d="M2133.55,2231.45c-8.67-0.49-24.46-6.41-25.79-21.97c-1.27-14.91,13.21-20.03,28.03-19.57
			c20.11,0.63,33.03,9.7,32.36,23.78C2167.57,2225.71,2158.18,2231.77,2133.55,2231.45z"/>
		<path class="st7" d="M2723.9,2266.71c-5.65,27.14,12.3,43.85,27.59,61.49c9.39,10.83,18.89,21.48,25.82,34.12
			c-6.29,0.53-12.59,1.08-18.89,1.63c-8.07-20.13-27.61-30.77-39.56-47.86C2706.1,2297.82,2706.91,2281.72,2723.9,2266.71z"/>
		<path class="st7" d="M2254.03,2237.48c-10.75-0.89-13.93-8.89-14.51-17.18c-0.69-9.92,1.5-20.85,13.84-21.42
			c10.26-0.47,12.96,9.42,13.42,17.72C2267.3,2225.86,2264.44,2234.35,2254.03,2237.48z"/>
		<path class="st2" d="M2102.18,2126.7c1.37-8.86,3.37-18.92,14.84-18.42c9.87,0.43,13.01,9.67,12.94,18.31
			c-0.07,9.28-2.87,19.81-13.66,19.99C2105.44,2146.76,2102.86,2136.64,2102.18,2126.7z"/>
		<path class="st12" d="M2201.24,2079.35c-0.28-9.54,1.9-19.42,12.56-19.7c9.35-0.25,12.29,8.78,12.44,17.74
			c0.16,9.57-1.92,19.4-12.56,19.69C2204.33,2097.35,2201.27,2088.27,2201.24,2079.35z"/>
		<path class="st7" d="M2767.25,2243.23c-8.73,2.7-13.33,15.83-25.41,10.01C2748.53,2245.39,2756.4,2240.54,2767.25,2243.23z"/>
		<path class="st7" d="M2740.66,2254.07c2.01,10.18-3.66,10.52-11.07,8.63C2733.28,2259.81,2736.97,2256.94,2740.66,2254.07z"/>
		<path class="st14" d="M3076.73,2419.28c1.63,0.16,3.26,0.32,4.89,0.49c-0.77,0.86-1.54,1.72-2.31,2.58
			C3078.31,2421.44,3077.45,2420.41,3076.73,2419.28z"/>
		<path class="st7" d="M2729.59,2262.87c0.26,3.2-0.84,4.79-4.29,3.55C2726.73,2265.22,2728.16,2264.05,2729.59,2262.87z"/>
		<path class="st7" d="M1961.01,3303.82c-25.41,7-45.53,6.9-66.53-1.88C1910.96,3288.2,1934.97,3288.32,1961.01,3303.82z"/>
		<path class="st2" d="M1677.12,3249.53c-20.87,11.4-38.75,8.41-56.68,3.85c-3.28-0.83-6.99-2.43-6.29-6.58
			c0.65-3.86,4.46-4.75,7.94-5.29C1639.87,3238.75,1657.36,3238.18,1677.12,3249.53z"/>
		<path class="st12" d="M1718.4,3302.88c11.53,1.9,28.62-3.25,28.56,9.96c-0.05,12.32-16.81,6.25-26.18,6.85
			c-9.72,0.62-25.58,1.16-25.37-9.43C1695.63,3298.36,1711.37,3306.1,1718.4,3302.88z"/>
		<path class="st9" d="M1852.78,3312.27c0.1,5.67-3.69,7.13-7.94,7.68c-7.14,0.93-15.01,0.54-18.24-6.42
			c-2.85-6.14,3.91-8.06,8.44-8.62C1842.05,3304.04,1848.66,3305.64,1852.78,3312.27z"/>
		<path class="st7" d="M1528.61,3177.18c-0.85,6.64-5.88,6.82-10.51,6.69c-6.53-0.19-14.61,0.59-15.46-8.59
			c-0.47-5.09,5.37-5.56,9.08-5.62C1518.32,3169.55,1525.48,3169.28,1528.61,3177.18z"/>
		<path class="st12" d="M1794.25,3258.68c-2.6,7.82-8.86,7.52-14.91,7.37c-4.92-0.12-10.7-1.52-10.49-6.94
			c0.29-7.45,7.38-8.99,13.32-8.66C1787.24,3250.73,1792.69,3252.55,1794.25,3258.68z"/>
		<path class="st2" d="M1700.53,3281.02c-2.47,7.01-8.41,6.11-13.74,5.59c-4.79-0.47-10.61-1.9-10.37-7.75
			c0.31-7.34,7.02-7.64,12.41-7.08C1694.22,3272.34,1699.89,3273.82,1700.53,3281.02z"/>
		<path class="st12" d="M1574.67,3225.16c-1.47,6.2-5.8,7.68-10.87,7.62c-6.04-0.07-10.86-2.42-11.54-9.07
			c-0.55-5.4,3.35-7.15,7.85-6.87C1566.29,3217.23,1572.13,3218.71,1574.67,3225.16z"/>
		<path class="st4" d="M2827.26,2421.76c16.14,16.16,33.22,15.51,51.03,2.92c4.35-3.08,8.22-7.25,14.22-7.05
			c-0.12,2.7-0.24,5.4-0.37,8.09c-5.84,3.3-12.28,5.77-16.27,11.65c-6.86,4.58-13.72,9.16-20.58,13.74
			C2843.64,2443.53,2826.43,2441.24,2827.26,2421.76z"/>
		<path class="st4" d="M2892.43,2417.77c1.17-1.37,2.33-2.74,3.5-4.11C2894.75,2415.03,2893.59,2416.4,2892.43,2417.77z"/>
		<path class="st11" d="M2025.6,3094.43c2.75-1.79,5.6-2.74,8.78-1.1c-1.19,1.91-2.37,3.83-3.56,5.74
			C2029.09,3097.52,2027.34,3095.97,2025.6,3094.43z"/>
	</g>
</g>
<g id="Calque_2">
</g>
</svg>
