<?xml version="1.0" encoding="utf-8"?>
<!-- Generator: Adobe Illustrator 23.1.0, SVG Export Plug-In . SVG Version: 6.00 Build 0)  -->
<svg version="1.1" xmlns="http://www.w3.org/2000/svg" xmlns:xlink="http://www.w3.org/1999/xlink" x="0px" y="0px"
	 viewBox="0 0 4500 4500" style="enable-background:new 0 0 4500 4500;" xml:space="preserve">
<style type="text/css">
	.st0{fill:#E5E5E5;}
	.st1{fill:#176561;}
	.st2{fill:#E4E4E4;}
	.st3{fill:#313043;}
	.st4{fill:#3F3D56;}
	.st5{fill:#413F58;}
	.st6{fill:#DADADD;}
	.st7{fill:#2B756B;}
	.st8{fill:#FCB7B7;}
	.st9{fill:#FEFEFE;}
	.st10{fill:#46445C;}
	.st11{fill:#C8C9C9;}
	.st12{fill:#297369;}
	.st13{display:none;}
	.st14{display:inline;fill:#176561;}
</style>
<g id="Calque_1">
	<g>
		<path class="st0" d="M1657.56,2067.78c7.94,48.67,22.6,95.64,36.55,142.75c43.12,145.59,94.3,288.39,150.53,429.38
			c16.27,40.78,34.34,80.89,53.2,120.55c7.41,15.58,5.46,23.99-10.44,30.37c-34.32,13.77-68.44,28.01-105.31,33.78
			c-66.53,14.76-133.6,24.84-202.02,23.15c-39.3,0.44-78.45-0.18-116.93-10.07c-16.13-4.15-24.96-11-23.82-29.94
			c1.71-28.47,0.44-57.12,0.43-85.7c-8.21-63.71-2.76-127.8-5.36-191.67c-0.94-71.09-2.38-142.18-2.74-213.28
			c-0.94-186.26,1.09-372.49,7.93-558.65c4.31-117.37,11.85-234.49,26.1-351.12c1.52-5.19,3.04-10.38,4.55-15.59
			c27.78,13.53,46.04,33.17,55.42,64.57c26.99,90.34,36.05,182.79,39.86,276.27c0.43,10.64-4.9,14.07-12.4,19.06
			c-25.06,16.67-27.29,48.27-5.59,66.9c17.82,15.3,37.74,13.35,62.28-6.09c10.33,9.03,10.84,21.25,10.81,33.58
			c-0.11,37.75,5.5,74.82,13.49,111.57c1.19,5.47-2.51,14.3,5.94,15.27c3.85,0.44,8.73-5.38,12.67-8.91
			c34.93-31.26,68.8-63.79,105.07-93.39c14.06-11.48,12.17-20.09,3.26-30.33c-36.79-42.3-74.43-83.86-111.21-126.17
			c-13.87-15.95-17.69-8.57-22.84,6.63c-5.61,16.57-2.1,35.03-11.7,50.48c-6.2-6.67-9.58-16.5-18.81-19.71
			c-11.52-4-13.53-11.76-14.01-22.94c-4.43-105.32-15.94-209.46-54.21-308.87c30.93,11.29,60.14,27.04,92.2,35.37
			c45.32,14.86,61.78,57.84,86.73,91.55c63.15,85.32,123.58,172.65,185.86,258.63c16.49,22.76,20.6,49.49,28.67,74.97
			c5.12,16.16-9.34,25.9-17.69,35.56c-49.93,57.74-100.54,115.07-169.33,151.87c-8.77,4.69-18.25,8.08-27.02,12.77
			c-17.88,9.56-34.1,14.08-43.7-10.58c-0.52-1.33-4.17-1.43-6.36-2.1c2.34-23.09-12.01-40.51-24.99-55.12
			c-9.13-10.28-26.81,1.39-40.57,3.91c-9.8,1.8-19.57,3.9-29.17,6.55c-20.35,5.6-29.54,20.28-25.2,39.41
			c4.2,18.52,19.62,26.44,41.24,21.74C1605.1,2078.52,1631.35,2073.24,1657.56,2067.78z"/>
		<path class="st1" d="M1465.68,1407.33c-14.25,116.63-21.79,233.75-26.1,351.12c-6.84,186.16-8.87,372.39-7.93,558.65
			c0.36,71.1,1.79,142.19,2.74,213.28c-19.74-29.9-29.4-65.04-51.18-101.35c3.71,102.15,7.19,197.77,10.66,293.4
			c3.58,134.87,7.22,269.73,10.72,404.6c2.56,98.64,4.92,197.28,7.38,295.91c-28,0.52-55.99,1.05-83.99,1.57
			c-7.51-0.71-11.95-3.29-13.88-12.06c-42.63-193.93-96.87-385.02-141.95-578.36c13.51,3.19,27.68,4.75,40.39,9.92
			c22.58,9.18,25.94-1.8,26.5-20.62c2.07-70.28,4.59-140.56,7.45-210.81c10.17-250.11,20.48-500.22,30.89-750.33
			c5.98-143.57,12.27-287.13,18.42-430.7c4.55,0.51,9.52,0,13.59,1.68c49.2,20.32,94.74,12.92,137.74-17.01
			C1452.69,1412.36,1459.47,1410.25,1465.68,1407.33z"/>
		<path class="st0" d="M3374.86,1914.9c-308.49,0-616.98,0-925.46,0c-30.6,0-30.63-0.02-30.63-29.48
			c-0.01-316.19,0.28-632.39-0.58-948.58c-0.06-23.84,6.34-29.3,29.61-29.28c617.75,0.66,1235.5,0.64,1853.25,0.06
			c22.41-0.02,30.16,4.07,30.09,28.78c-0.95,316.96-0.86,633.93-0.13,950.9c0.05,22.49-6.21,28.14-28.36,28.09
			C3993.38,1914.67,3684.12,1914.9,3374.86,1914.9z M3372.76,1859.22c291.47,0,582.94-0.25,874.41,0.5
			c22.43,0.06,28.2-6.11,28.14-28.32c-0.75-279.08-0.49-558.15-0.5-837.23c0-30.38-0.02-30.41-29.69-30.41
			c-580.62-0.01-1161.25,0.15-1741.87-0.56c-23.73-0.03-29.43,6.16-29.36,29.53c0.84,279.08,0.82,558.16,0.04,837.23
			c-0.06,22.82,4.75,29.94,29.04,29.86C2792.91,1858.89,3082.84,1859.22,3372.76,1859.22z"/>
		<path class="st2" d="M1295.81,1431.55c-6.15,143.57-12.44,287.13-18.42,430.7c-10.42,250.1-20.72,500.21-30.89,750.33
			c-2.86,70.26-5.38,140.53-7.45,210.81c-0.55,18.82-3.92,29.81-26.5,20.62c-12.7-5.17-26.88-6.73-40.39-9.92
			c-53.16-11.81-106.3-23.68-159.47-35.42c-26.21-5.78-52.47-11.38-78.73-16.93c-13.42-2.83-18.11-7.85-13.43-23.44
			c56.75-189.03,102.16-380.93,142.46-574.05c12.33-59.11,22.83-118.6,34.17-177.91c9.61,16.33,23.98,23.78,42.71,26.8
			c21.96,3.54,43.31,10.68,65.14,15.2c7.6,1.57,17.12,7.72,23.48-1.52c5.75-8.35-5.39-13.22-6.44-20.48
			c9.99-1.56,18.91,6.77,31.04,2.78c-43.03-61.39-85.62-122.14-128.21-182.89c10.14-4.88,16.46-12.11,12.12-23.9
			c-11.21-30.48,3.1-54.19,21.61-75.29c17.41-19.84,43.58-19.8,61.02,0.02c18.57,21.1,32.9,44.84,21.58,75.29
			c-3.01,8.1-1.09,15.36,6.41,20.24c6.58,4.29,13.24,3.71,19.11-1.52c6.62-5.9,8.85-13.81,3.16-20.56
			c-7.74-9.19-6.37-20.38-9.14-30.56c-8.4-30.95-21.65-58-53.49-70.83c-8.23-3.32-9.21-8.84-9.13-16.33
			c0.84-77.37,7.8-153.8,29.03-228.73c10.39-36.67,30.63-60.87,68.59-68.74C1295.75,1414.07,1295.78,1422.81,1295.81,1431.55z"/>
		<path class="st0" d="M544.06,3578.93c0.12-50.89-11.49-100.56-15.91-150.97c-0.6-6.87-2.81-13.79-2.26-20.52
			c1.33-16.17-15.7-36.4,1.29-47.07c11.79-7.4,31.53-2.18,47.72-2.51c6.62-0.13,13.24-0.02,20.37-1.72
			c-34.06-11.96-63.56-30.88-90.27-53.97c-46.37-40.1-61.61-94.88-66.78-152.61c-2.37-26.48-2.51-53.59,2.52-80.67
			c3.01-16.21,10.24-19.6,22.95-16.97c117.38,24.25,200.42,65.65,227.82,199.83c17.58-24.25,33.34-46.98,58.66-61.16
			c22.59-12.65,46.56-20.53,71.05-26.96c18.32-4.81,29.23,2.64,29.36,23.63c0.45,71.12-3.44,116.28-86.09,170.59
			c20.1,0,37.53,0.35,54.93-0.12c11.49-0.31,15.58,1.43,13.54,15.49c-9,62.2-16.17,124.66-23.81,187.05
			c-0.75,6.09-0.21,12.34-0.27,18.52C720.6,3578.83,632.33,3578.88,544.06,3578.93z"/>
		<path class="st3" d="M1620.47,1455.06c-32.06-8.33-61.28-24.08-92.2-35.37c-16.32-23.85-27.45-53.53-62.83-56
			c-6.99-18.5-2.43-32.36,11.83-47.21c35.96-37.45,41.65-101.62,19.73-134.56c-1.19,17.86-10.38,13.64-20.93,9.89
			c-55.34-19.64-111.88-24.22-168.3-6.75c-21.38,6.62-35.17,8.39-36.18-20.24c-36.91,46.91-23.67,119.99,14.74,155.82
			c16.62,15.5,20.22,31.48,15.14,51.67c-41.03,3.15-57.02,35.32-75.23,64.91c-2.49,0.59-6.93-0.92-4.86,4.54l0.42-0.31
			c-8.26-4.52-14,2.4-20.49,4.9c-22.6,8.71-44.96,18.02-67.42,27.1c7.65-53.15,23.83-103.45,50.59-150.14
			c22.3-38.92,22.76-80.99,17.62-123.67c-13.3-110.49,66.07-198.7,177.52-196.84c92.27,1.54,165.17,56.15,183.12,136.99
			c3.91,17.6,2.92,35.33,1.92,53.02c-1.37,24.34,1.66,48.01,12.58,69.78C1607.65,1323.25,1616.99,1388.45,1620.47,1455.06z"/>
		<path class="st1" d="M1580.07,2847.76c68.42,1.69,135.49-8.39,202.02-23.15c54.08,192.55,108.18,385.1,162.14,577.68
			c2.04,7.29,2.79,14.94,4.15,22.42c-32.05,7.08-62.89,19.37-95.93,22.17c-79.69-173.62-159.54-347.16-238.93-520.92
			C1601.75,2900.19,1587.41,2875.45,1580.07,2847.76z"/>
		<path class="st2" d="M1133.88,1473.46c22.45-9.08,44.82-18.39,67.42-27.1c6.49-2.5,12.23-9.42,20.49-4.9
			c-29.73,84.59-40.03,172.27-41.24,261.35c-0.1,7.51-1.22,13.01-9.4,16.25c-32,12.68-45.16,39.84-53.7,70.71
			c-2.65,9.58-0.84,20.29-7.34,28.84c-7.5-0.49-9.72-7.04-13.13-11.89c-26.64-37.87-53.11-75.86-79.63-113.82
			c16.22-47.9,31.33-96.21,49.13-143.52c9.22-24.52,25.6-45.09,48.45-59.81C1121.77,1485.17,1130.56,1482.29,1133.88,1473.46z"/>
		<path class="st4" d="M544.06,3578.93c88.27-0.05,176.54-0.09,264.81-0.14c90.39,0.33,180.78,0.87,271.17,0.93
			c85.77,0.06,171.54-0.38,257.31-0.6c31.14,0,62.28,0,93.42,0c44.81,0.22,89.62,0.67,134.43,0.62
			c149.91-0.15,299.81-0.47,449.72-0.73c29.54,0,59.08,0,88.62,0c144.56,0.26,289.11,0.55,433.67,0.75
			c71.13,0.1,142.25-0.05,213.38,0.11c8.11,0.02,16.72-1.96,24.09,6.78c-803.41,0-1606.83,0-2410.24,0
			c-0.05-2.57-0.11-5.15-0.16-7.72C424.2,3578.93,484.13,3578.93,544.06,3578.93z"/>
		<path class="st5" d="M971.92,1815.93c-25.91-39.97-51.9-79.88-77.66-119.95c-3.95-6.15-11.61-12.06-6.78-20.48
			c5.32-9.27,13.92-3.4,20.92-2.25c25.63,4.21,51.76,5.97,76.44,15.03c18.58,32.5,42.36,61.45,63.05,92.49
			c27.06,40.59,58.7,78.08,81.9,121.26c-24.98,2.68-49.96,5.36-74.93,8.03c2.78-15.67-1.15-26.25-18.98-29.45
			c-19.25-3.45-32.44-15.39-41.82-32.69C987.9,1836.6,979.38,1826.56,971.92,1815.93z"/>
		<path class="st0" d="M2103.53,3579.01c-29.54,0-59.08,0-88.62,0c-0.42-6.04-4.75-8.85-8.93-12.56
			c-40.79-36.17-88.9-57.07-141.09-70.88c-36.3-9.6-35.94-10.82-14.11-42.04c1.22-1.75,1.14-4.42,1.66-6.66
			c33.04-2.79,63.88-15.09,95.93-22.17c21.29,27.29,53.55,40.59,79.49,62.02c20.1,16.6,41.51,31.94,63.74,45.53
			C2112.18,3544.84,2118.14,3558.67,2103.53,3579.01z"/>
		<path class="st6" d="M1430.77,3579.12c-31.14,0-62.28,0-93.42,0c-32.92-37.28-9.82-80.28-11.38-120.6
			c-0.42-10.83,2.43-22.55,2.02-34c28-0.52,55.99-1.05,83.99-1.57c1.37,36.59,14.63,70.65,23.34,105.6
			C1439.83,3546.69,1440.63,3562.99,1430.77,3579.12z"/>
		<path class="st2" d="M971.92,1815.93c7.46,10.62,15.98,20.67,22.13,32c9.38,17.3,22.57,29.24,41.82,32.69
			c17.84,3.2,21.76,13.77,18.98,29.44c-3.12,21.56-6.24,43.11-9.36,64.67c-0.85,9.67-7.83,9.39-15.04,9.89
			c-52.69,3.68-90.8-42.66-80.14-94.48C955.56,1864.62,971.64,1842.62,971.92,1815.93z"/>
		<path class="st7" d="M1129.79,1902.03c-23.21-43.18-54.85-80.67-81.9-121.26c-20.69-31.04-44.47-59.99-63.05-92.49
			c10.84,1.54,21.68,3.08,32.52,4.62c26.52,37.96,52.99,75.95,79.63,113.82c3.41,4.85,5.62,11.4,13.13,11.88
			c-1.74,12.76,10.39,18.12,14.74,27.64c42.59,60.75,85.18,121.51,128.21,182.89c-12.13,3.99-21.04-4.33-31.04-2.78
			c-18.98-26.82-37.95-53.64-56.93-80.46C1166.08,1915.76,1160.39,1908.68,1129.79,1902.03z"/>
		<path class="st5" d="M1165.11,1945.9c18.98,26.82,37.95,53.64,56.93,80.46c1.06,7.26,12.19,12.13,6.44,20.48
			c-6.36,9.24-15.88,3.09-23.48,1.52c-21.83-4.53-43.18-11.67-65.14-15.2c-18.73-3.02-33.1-10.47-42.71-26.8
			c-6.47-10.52-12.95-21.04-19.42-31.56c12.98-8.46,28.2-5.01,42.22-6.88C1138.12,1965.51,1154.85,1963.23,1165.11,1945.9z"/>
		<path class="st8" d="M1165.11,1945.9c-10.26,17.32-26.99,19.61-45.17,22.02c-14.02,1.86-29.23-1.58-42.22,6.88
			c-10.75-0.02-21.49-0.04-32.24-0.06c3.12-21.56,6.24-43.12,9.36-64.68c24.97-2.68,49.95-5.35,74.93-8.03
			C1160.39,1908.68,1166.08,1915.76,1165.11,1945.9z"/>
		<path class="st8" d="M1301.46,1372.31c5.08-20.19,1.47-36.17-15.14-51.67c-38.4-35.83-51.65-108.91-14.74-155.82
			c1.01,28.63,14.8,26.86,36.18,20.24c56.42-17.47,112.96-12.89,168.3,6.75c10.55,3.74,19.74,7.97,20.93-9.89
			c21.92,32.94,16.24,97.11-19.73,134.56c-14.26,14.85-18.82,28.71-11.82,47.2c1.6,9.36,3.2,18.72,4.79,28.08
			c-1.52,5.19-3.04,10.39-4.56,15.58c-6.21,2.92-12.99,5.02-18.54,8.88c-43,29.93-88.54,37.34-137.74,17.01
			c-4.07-1.68-9.04-1.17-13.59-1.68c-0.03-8.74-0.05-17.48-0.08-26.22C1302.1,1395.1,1301,1383.57,1301.46,1372.31z"/>
		<path class="st9" d="M1615.3,1771.21c9.59-15.45,6.08-33.92,11.7-50.48c5.15-15.19,8.97-22.58,22.84-6.63
			c36.78,42.31,74.41,83.87,111.21,126.17c8.91,10.24,10.8,18.85-3.26,30.33c-36.27,29.6-70.14,62.13-105.07,93.39
			c-3.93,3.52-8.82,9.35-12.67,8.91c-8.45-0.97-4.75-9.81-5.94-15.27c-7.99-36.76-13.6-73.82-13.49-111.57
			c0.04-12.33-0.48-24.55-10.81-33.58C1617.04,1799.43,1617.75,1785.53,1615.3,1771.21z"/>
		<path class="st10" d="M1615.3,1771.21c2.45,14.32,1.75,28.22-5.49,41.26c-24.54,19.44-44.46,21.39-62.28,6.09
			c-21.7-18.63-19.47-50.23,5.59-66.9c7.5-4.99,12.83-8.42,12.4-19.06c-3.81-93.48-12.88-185.93-39.86-276.27
			c-9.38-31.41-27.64-51.05-55.42-64.57c-1.59-9.35-3.18-18.71-4.79-28.07c35.38,2.47,46.5,32.15,62.82,56
			c38.27,99.41,49.78,203.56,54.21,308.87c0.47,11.18,2.49,18.94,14.01,22.94C1605.71,1754.71,1609.09,1764.53,1615.3,1771.21z"/>
		<path class="st11" d="M1439.75,2722.06c-15.29,0.13-30.59,0.25-45.88,0.38c-3.48-95.63-6.95-191.25-10.66-293.4
			c21.78,36.31,31.44,71.45,51.18,101.35C1436.99,2594.25,1431.54,2658.35,1439.75,2722.06z"/>
		<path class="st8" d="M1657.56,2067.78c-26.21,5.46-52.46,10.74-78.62,16.44c-21.61,4.71-37.04-3.22-41.24-21.74
			c-4.34-19.14,4.85-33.81,25.2-39.41c9.6-2.64,19.37-4.75,29.17-6.55c13.76-2.52,31.44-14.19,40.57-3.91
			c12.98,14.61,27.32,32.04,24.99,55.12C1657.62,2067.73,1657.56,2067.78,1657.56,2067.78z"/>
		<path class="st9" d="M2826.87,1094.55c-66.48-0.29-132.98-0.22-199.45-1.17c-13.61-0.19-14.51,5.96-14.49,16.66
			c0.21,202.58,0.28,405.16-0.13,607.74c-0.03,13.52,4.43,16.49,17.1,16.47c201.82-0.35,403.65-0.37,605.47,0.03
			c13.63,0.03,18.53-2.73,18.49-17.68c-0.52-201.81-0.52-403.62-0.01-605.42c0.04-14.77-4.54-17.93-18.37-17.8
			c-74.23,0.68-148.46,0.41-222.7,0.47c0.9-11.44-5.22-14.28-15.59-14.22c-51.74,0.31-103.49,0.35-155.23-0.02
			C2830.95,1079.54,2826.28,1083.88,2826.87,1094.55z M3643.54,1094.49c-66.49-0.27-132.99-0.17-199.47-1.11
			c-13.75-0.19-14.39,6.17-14.38,16.75c0.2,202.59,0.28,405.18-0.15,607.77c-0.03,13.68,4.68,16.36,17.2,16.34
			c201.83-0.34,403.67-0.37,605.5,0.04c13.81,0.03,18.39-3,18.35-17.78c-0.52-201.82-0.52-403.64,0-605.45
			c0.04-14.94-4.8-17.79-18.46-17.66c-74.23,0.67-148.47,0.42-222.71,0.49c0.92-11.43-5.16-14.31-15.54-14.24
			c-51.74,0.31-103.48,0.34-155.21-0.02C3647.71,1079.54,3642.93,1083.77,3643.54,1094.49z"/>
		<path class="st10" d="M1301.46,1372.31c-0.46,11.26,0.64,22.79-5.74,33.02c-37.96,7.87-58.2,32.07-68.59,68.74
			c-21.23,74.93-28.19,151.36-29.03,228.73c-0.08,7.49,0.9,13.01,9.13,16.33c31.84,12.84,45.09,39.89,53.49,70.83
			c2.76,10.18,1.39,21.37,9.14,30.56c5.69,6.75,3.46,14.66-3.16,20.56c-5.86,5.23-12.53,5.81-19.11,1.52
			c-7.5-4.89-9.42-12.15-6.41-20.24c11.32-30.45-3.01-54.18-21.58-75.29c-17.44-19.82-43.61-19.87-61.02-0.02
			c-18.51,21.1-32.82,44.81-21.61,75.29c4.34,11.8-1.98,19.02-12.12,23.9c-4.35-9.52-16.48-14.88-14.74-27.64
			c6.5-8.55,4.69-19.26,7.34-28.84c8.53-30.87,21.69-58.03,53.7-70.71c8.17-3.24,9.29-8.73,9.4-16.25
			c1.21-89.08,11.5-176.76,41.24-261.35c0,0-0.42,0.31-0.42,0.31c1.62-1.51,3.24-3.03,4.86-4.54
			C1244.44,1407.63,1260.43,1375.46,1301.46,1372.31z"/>
		<path class="st2" d="M1226.24,1437.22c-1.62,1.51-3.24,3.03-4.86,4.54C1219.31,1436.31,1223.75,1437.81,1226.24,1437.22z"/>
		<path class="st4" d="M3829.44,1093.88c74.24-0.07,148.48,0.18,222.71-0.49c13.66-0.12,18.5,2.72,18.46,17.66
			c-0.53,201.82-0.52,403.64,0,605.45c0.04,14.78-4.54,17.81-18.35,17.78c-201.83-0.41-403.67-0.38-605.5-0.04
			c-12.52,0.02-17.23-2.67-17.2-16.34c0.42-202.59,0.34-405.18,0.15-607.77c-0.01-10.58,0.63-16.95,14.38-16.75
			c66.48,0.94,132.98,0.84,199.47,1.11c-1.6,9.77,2.03,13.39,12.37,13.3c53.69-0.44,107.4-0.51,161.09,0.03
			C3828.17,1107.94,3829.6,1102.35,3829.44,1093.88z M3713.04,1593.56c-1.3,12.78,5.77,21.81,15.74,26.27
			c12.19,5.45,25.64,6.03,36.45-5.02c12.96-13.25,29.34-16.12,45.93-11.59c7.54,2.06,13.39,7.18,20.74,0.52
			c7.37-6.68,7.78-14.23,4.48-23.14c-4.62-12.49-4.61-23.63,8.63-32.17c8.25-5.32,11.41-16.28,1.93-20.95
			c-15.21-7.5-28-16.36-37.71-30.26c-1.57-2.25-7.68-3.46-10.54-2.3c-10.87,4.39-18.37,1.03-27.19-6.08
			c-13.1-10.57-24.46-6.04-25.14,10.34c-0.56,13.49-5.76,16.29-17.71,17.74c-9.5,1.16-20.52,13.25-12.71,19.06
			c24,17.8,10.45,31.06-0.64,46.42C3713.3,1585.2,3713.74,1589.79,3713.04,1593.56z M3581.41,1423.15
			c17.88-2.02,29.16-11.22,29.68-29.47c0.61-21.58,8.42-37.25,27.97-48.3c11.79-6.66,15.65-21.51,1.04-26.94
			c-17.81-6.61-23.79-16.63-24.28-33.83c-0.39-13.64-10.7-19.05-20.53-12.44c-18.13,12.19-48.88-3.82-58.36,27.02
			c-1.4,4.56-8.35,0.07-12.71,0.09c-7.49,0.04-12.72,4.13-16.36,10.85c-3.85,7.11-0.88,12.56,4.52,15.91
			c10.91,6.76,11.46,12.53,4.41,23.94c-8.88,14.38-0.07,28.31,15.9,25.1c17.51-3.52,17.91,4.98,18.37,17.06
			C3551.79,1411.5,3562.65,1421.29,3581.41,1423.15z M3830.39,1228.26c-14.63-2.37-22.83,7.53-27.28,20.91
			c-5.28,15.86-0.88,30.33,14.54,37.08c19.72,8.64,23.26,24.06,22.05,42.22c-0.49,7.34-1.63,14.47,5.79,18.18
			c8.05,4.03,16.9,4.28,23.18-3.46c9.6-11.85,18.91-9.61,29.88-1.9c15.48,10.89,26.87,6.43,27.79-12.02
			c1.02-20.45,26.72-38.15,6.92-61.04c-0.69-0.79,4.09-5.97,5.88-9.33c3.18-5.99,7.88-11.87,1.55-18.87
			c-5.12-5.66-11.4-9.08-18.48-6.2c-10.18,4.14-15.2,3.9-20.92-8.05c-7.94-16.58-21.29-15.69-30.02,1.04
			c-5.89,11.28-12.06,13-21.57,5.66C3844.39,1228.39,3838.37,1228.04,3830.39,1228.26z"/>
		<path class="st4" d="M3012.78,1093.85c74.23-0.06,148.47,0.22,222.7-0.47c13.83-0.13,18.41,3.02,18.37,17.8
			c-0.51,201.81-0.52,403.62,0.01,605.42c0.04,14.94-4.86,17.7-18.49,17.68c-201.82-0.39-403.65-0.37-605.47-0.03
			c-12.67,0.02-17.13-2.95-17.1-16.47c0.41-202.58,0.34-405.16,0.13-607.74c-0.01-10.71,0.88-16.86,14.49-16.66
			c66.48,0.95,132.97,0.88,199.45,1.17c-1.75,9.93,2.17,13.31,12.38,13.23c53.67-0.41,107.36-0.49,161.03,0.04
			C3011.42,1107.93,3012.78,1102.21,3012.78,1093.85z M2748.09,1531.48c0.11,27.12,13.09,48.66,38.55,60.91
			c23.23,11.18,50.13,13.51,67.05-5.62c22.53-25.46,47.95-35.68,80.26-38.61c14.1-1.28,25.02-5.39,37.73,6.21
			c13.94,12.71,31.85,11.75,46.42-1.14c14.82-13.11,15.83-34.03,4.13-50.25c-15.24-21.14-8.06-51.84,14.87-64.56
			c15.75-8.74,23.86-22.95,20.29-40.17c-4.02-19.39-19.08-33.36-38.21-29.74c-23.94,4.53-28.87-9.06-35.19-25.15
			c-12.44-31.65-25.85-37.48-57.05-25.99c-17.05,6.28-31.74,8.38-41.56-13.43c-8.89-19.76-28.5-24.99-46.58-16.42
			c-17.76,8.42-25.24,27.01-18.84,46.79c7.88,24.35,4.09,28.4-22.03,24.49c-19.95-2.99-35.09,4.14-42.85,23.31
			c-7.31,18.07,0.61,36.85,18.81,46.72c22.02,11.94,23.12,29.63,2.46,45.04C2756.94,1488.32,2748.28,1507.77,2748.09,1531.48z
			 M3099.91,1348.93c-10.85,2.27-18.24,8.41-17.09,20.22c1,10.29,7.96,16.94,18.55,16.31c11.55-0.68,18.42-8.18,17.42-19.76
			C3117.89,1355.44,3110.68,1349.85,3099.91,1348.93z M3032.52,1320.92c9.85-2.2,16.99-7.82,16.71-18.44
			c-0.31-11.54-7.57-18.84-19.16-17.99c-11.35,0.83-18.19,8.49-16.77,20.23C3014.55,1315.07,3021.84,1320.31,3032.52,1320.92z"/>
		<path class="st0" d="M3012.78,1093.85c0,8.37-1.36,14.08-12.5,13.97c-53.67-0.53-107.35-0.45-161.03-0.04
			c-10.21,0.08-14.14-3.3-12.38-13.23c-0.59-10.67,4.08-15.01,15.1-14.93c51.74,0.36,103.49,0.32,155.23,0.02
			C3007.56,1079.57,3013.68,1082.4,3012.78,1093.85z"/>
		<path class="st0" d="M3829.44,1093.88c0.16,8.48-1.26,14.06-12.43,13.95c-53.69-0.54-107.4-0.47-161.09-0.03
			c-10.34,0.08-13.98-3.53-12.37-13.3c-0.61-10.72,4.17-14.95,15.14-14.87c51.74,0.36,103.48,0.32,155.21,0.02
			C3824.28,1079.57,3830.36,1082.45,3829.44,1093.88z"/>
		<path class="st12" d="M3713.04,1593.56c0.7-3.77,0.26-8.36,2.29-11.17c11.09-15.37,24.63-28.62,0.64-46.42
			c-7.82-5.8,3.2-17.9,12.71-19.06c11.95-1.46,17.15-4.25,17.71-17.74c0.68-16.38,12.04-20.92,25.14-10.34
			c8.82,7.11,16.32,10.48,27.19,6.08c2.86-1.16,8.97,0.05,10.54,2.3c9.71,13.89,22.5,22.75,37.71,30.26
			c9.48,4.68,6.32,15.63-1.93,20.95c-13.25,8.54-13.25,19.68-8.63,32.17c3.29,8.9,2.89,16.46-4.48,23.14
			c-7.35,6.66-13.2,1.54-20.74-0.52c-16.59-4.53-32.97-1.66-45.93,11.59c-10.81,11.06-24.26,10.48-36.45,5.02
			C3718.8,1615.37,3711.73,1606.34,3713.04,1593.56z"/>
		<path class="st12" d="M3581.41,1423.15c-18.75-1.86-29.61-11.64-30.36-31.03c-0.46-12.08-0.86-20.58-18.37-17.06
			c-15.97,3.21-24.77-10.73-15.9-25.1c7.05-11.41,6.5-17.18-4.41-23.94c-5.4-3.35-8.37-8.8-4.52-15.91
			c3.64-6.72,8.87-10.81,16.36-10.85c4.36-0.02,11.31,4.47,12.71-0.09c9.48-30.84,40.23-14.83,58.36-27.02
			c9.83-6.61,20.14-1.2,20.53,12.44c0.49,17.2,6.47,27.22,24.28,33.83c14.61,5.43,10.75,20.28-1.04,26.94
			c-19.55,11.05-27.36,26.72-27.97,48.3C3610.57,1411.93,3599.29,1421.13,3581.41,1423.15z"/>
		<path class="st12" d="M3830.39,1228.26c7.98-0.21,14,0.13,19.3,4.22c9.51,7.34,15.68,5.62,21.57-5.66
			c8.73-16.73,22.08-17.62,30.02-1.04c5.72,11.95,10.74,12.19,20.92,8.05c7.08-2.88,13.36,0.55,18.48,6.2
			c6.33,7.01,1.63,12.88-1.55,18.87c-1.79,3.37-6.57,8.54-5.88,9.33c19.8,22.89-5.9,40.59-6.92,61.04
			c-0.92,18.45-12.3,22.91-27.79,12.02c-10.97-7.71-20.28-9.95-29.88,1.9c-6.27,7.74-15.13,7.49-23.18,3.46
			c-7.41-3.71-6.27-10.84-5.79-18.18c1.21-18.16-2.33-33.58-22.05-42.22c-15.42-6.76-19.82-21.23-14.54-37.08
			C3807.56,1235.79,3815.76,1225.89,3830.39,1228.26z"/>
		<path class="st12" d="M2748.09,1531.48c0.19-23.7,8.86-43.15,28.26-57.63c20.67-15.41,19.57-33.1-2.46-45.04
			c-18.2-9.87-26.13-28.65-18.81-46.72c7.76-19.18,22.9-26.3,42.85-23.31c26.12,3.91,29.92-0.14,22.03-24.49
			c-6.4-19.78,1.08-38.37,18.84-46.79c18.08-8.57,37.69-3.34,46.58,16.42c9.82,21.82,24.51,19.71,41.56,13.43
			c31.2-11.49,44.61-5.67,57.05,25.99c6.32,16.09,11.25,29.68,35.19,25.15c19.13-3.62,34.19,10.35,38.21,29.74
			c3.57,17.22-4.54,31.43-20.29,40.17c-22.94,12.73-30.12,43.43-14.87,64.56c11.7,16.23,10.69,37.14-4.13,50.25
			c-14.57,12.89-32.48,13.86-46.42,1.14c-12.71-11.59-23.63-7.48-37.73-6.21c-32.31,2.93-57.73,13.14-80.26,38.61
			c-16.92,19.13-43.82,16.8-67.05,5.62C2761.18,1580.14,2748.2,1558.6,2748.09,1531.48z"/>
		<path class="st12" d="M3099.91,1348.93c10.77,0.92,17.99,6.5,18.88,16.77c1.01,11.58-5.87,19.08-17.42,19.76
			c-10.6,0.62-17.56-6.02-18.55-16.31C3081.67,1357.34,3089.05,1351.2,3099.91,1348.93z"/>
		<path class="st12" d="M3032.52,1320.92c-10.69-0.61-17.97-5.85-19.22-16.2c-1.42-11.75,5.42-19.41,16.77-20.23
			c11.6-0.84,18.86,6.45,19.16,17.99C3049.51,1313.09,3042.37,1318.72,3032.52,1320.92z"/>
	</g>
</g>
<g id="Calque_2" class="st13">
	<path class="st14" d="M1469.21,3941.53c-61.27,0.01-111.75-50.5-111.75-111.81c0.01-61.36,50.34-111.66,111.73-111.66
		c61.49,0.01,111.75,50.22,111.73,111.64C1580.91,3891.04,1530.48,3941.52,1469.21,3941.53z"/>
</g>
</svg>
