<?xml version="1.0" encoding="utf-8"?>
<!-- Generator: Adobe Illustrator 23.1.0, SVG Export Plug-In . SVG Version: 6.00 Build 0)  -->
<svg version="1.1" id="Calque_1" xmlns="http://www.w3.org/2000/svg" xmlns:xlink="http://www.w3.org/1999/xlink" x="0px" y="0px"
	 viewBox="0 0 4500 4500" style="enable-background:new 0 0 4500 4500;" xml:space="preserve">
<style type="text/css">
	.st0{fill:#313042;}
	.st1{fill:#403E57;}
	.st2{fill:#F0F0F0;}
	.st3{fill:#EFEFEF;}
	.st4{fill:#45455C;}
	.st5{fill:#C9C9CA;}
	.st6{fill:#333244;}
	.st7{fill:#FCB5B5;}
	.st8{fill:#FEFEFE;}
	.st9{fill:#176561;}
	.st10{fill:#E3E3E3;}
	.st11{fill:#FBFBFB;}
	.st12{fill:#F7F9F9;}
	.st13{fill:#FDFDFD;}
</style>
<g>
	<path class="st0" d="M3454.73,3449.82c-14.93-0.07-19.63-6.73-19.85-22.31c-3.79-268.63-9.76-537.23-11.95-805.87
		c-0.85-104.73,17.09-208.13,40.72-310.21c2.48-10.71,6.73-20.98,4.64-32.28c34.66,5.35,68.38,14.13,102.15,23.81
		c104.4,29.94,205.5,77.77,318.81,62.34c31.87,274.21,63.73,548.43,95.62,822.64c9.53,81.94,17.28,164.16,29.78,245.65
		c4.51,29.38-3.91,37.3-29.94,36.1c-28.68-0.12-57.36-0.24-86.04-0.37c-24.61,0.67-22.63-19.82-26.16-34.44
		c-70.68-292.84-140.98-585.76-211.43-878.65c-2.18-9.05-0.28-20.2-12.12-25.47c-16.4,159.21-32.55,317.92-49.17,476.58
		c-14.56,139.08-29.62,278.1-44.53,417.14c-1.1,10.27,2.19,23.22-14.01,25.19C3512.4,3447.22,3483.56,3446.97,3454.73,3449.82z"/>
	<path class="st1" d="M3889.25,2365.31c-113.31,15.43-214.42-32.41-318.81-62.34c-33.76-9.68-67.49-18.46-102.15-23.81
		c-17.82-2.7-24.41-15.8-22.73-30.79c10.37-92.46-10.33-183.49-11.35-275.35c-0.49-43.8-0.05-87.71,2.78-131.39
		c1.35-20.76-2.78-36.46-19.3-48.75c-21.22-29.9-42.43-59.8-63.64-89.7c-3.05-22.62,11.86-32.47,28.97-40.73
		c13.29,0.48,21.46,10.21,30.78,17.51c60.45,47.39,120.54,95.23,181.15,142.41c30.5,23.74,88.15,10.44,105.77-23.31
		c2.37-4.54,2.71-8-0.54-11.71c-26.36-30.05-42.07-68.89-78.98-90.38c-48.05-27.97-98.67-51.77-142.9-86.1
		c5.18-24.55,17.15-38.97,45.15-32.24c7.08,1.7,17.64,3.1,21.02-5.05c12.95-31.31,39.89-26.1,64.77-26.39
		c26.44-0.31,52.89,0.28,79.32-0.17c24.41-0.42,47.01,1.92,55.86,29.87c4.3,13.6,15.74,9.61,24.79,10.34
		c21.92,1.77,44.03,1.45,65.3,8.41c52.89,17.32,75.38,83.25,33.48,118.23c-48.48,40.49-43.9,81.82-32.02,134.52
		c26.31,116.72,61.77,232.09,64.46,353.18C3901.63,2256.46,3904.99,2311.55,3889.25,2365.31z"/>
	<path class="st2" d="M1636.3,1002.45c1.35-22.24-16.76-34.8-25.93-51.77c-64.05-118.51-110.4-241.57-99.61-379.72
		c9.25-118.36,43.82-226.04,131.63-310.96c7.9-7.64,13.33-24.07,27.7-18.42c14.55,5.72,13.31,21.37,12.56,34.68
		c-5.16,91.48,15.29,178.52,45.65,263.81c19.22,54,44.37,105.19,74.47,153.94c3.76,6.09,5,16.64,15.02,14.78
		c8.74-1.62,8.81-11.26,11.86-18.23c23.42-53.64,54.51-102.61,91.83-147.63c3.96-4.78,9.42-8.31,17.59-15.37
		c1.12,17.98,1.96,31.49,2.79,44.99c-4.26-76.71,56.15-102.9,105.93-136.68c47.04-31.92,100.15-49.46,155.34-60.41
		c12-2.38,29.73-7.42,36.88,4.36c6.53,10.76-3.73,24.86-9.64,36.47c-2.96,5.82-7.34,10.93-11.2,16.28
		c-70.26,97.56-106.87,208.79-131.47,324.8c-2.41,11.35-5.7,24.11,5.28,33.95C1940.75,861.7,1788.52,932.08,1636.3,1002.45z
		 M1585.29,608.26c49.66-7.93,32.22,38.59,50.75,56.55c-15.87-67.53-14.57-135.57-12.12-203.32c1.09-30.14-5.23-67.91,45.8-75.61
		c-16.45-7.28-33.76,0.13-37.27-20.27c-4.4,12.43-7.69,22.91-9.05,33.64c-7.26,57.32-14.33,114.43-7.45,172.69
		C1619.7,603.67,1616.67,604.03,1585.29,608.26z M1648.05,712.03c-0.48-0.89-0.96-1.78-1.44-2.67c-0.63,0.77-1.69,1.51-1.76,2.33
		c-0.07,0.84,0.84,1.76,1.32,2.65C1646.8,713.56,1647.42,712.79,1648.05,712.03z M1641.39,693.12c-0.28-0.95-0.37-2.05-0.94-2.77
		c-0.2-0.26-1.56,0.38-2.39,0.62c0.28,0.95,0.38,2.05,0.94,2.77C1639.21,694,1640.57,693.36,1641.39,693.12z M2143.82,484.41
		c0.94,0.33,1.89,0.89,2.82,0.86c0.31-0.01,0.58-1.5,0.87-2.32c-0.94-0.33-1.89-0.89-2.82-0.86
		C2144.38,482.1,2144.11,483.59,2143.82,484.41z M1639.01,339.61c-0.33,0.94-0.88,1.89-0.86,2.82c0.01,0.32,1.5,0.58,2.31,0.88
		c0.33-0.94,0.88-1.89,0.85-2.82C1641.31,340.17,1639.82,339.91,1639.01,339.61z M1645.85,317.63c0.61-1.97,1-3.2,1.38-4.44
		c-0.82,0.23-1.65,0.47-2.47,0.7C1645.03,314.84,1645.31,315.79,1645.85,317.63z M1654.61,296.33c-0.28-0.95-0.37-2.05-0.93-2.77
		c-0.2-0.26-1.56,0.39-2.39,0.62c0.28,0.95,0.38,2.04,0.94,2.78C1652.43,297.21,1653.78,296.57,1654.61,296.33z"/>
	<path class="st3" d="M627.79,3304.23c-69.47,21.36-138.11,26.04-208.78,1.16c-203.73-71.75-264.63-333.32-112.94-486.64
		c81.61-82.49,178.55-105.8,289.3-80.65c10.92,2.48,21.47,3.76,32.43,3.85C627.8,2929.38,627.79,3116.8,627.79,3304.23z"/>
	<path class="st4" d="M627.79,3304.23c0-187.43,0.01-374.85,0.01-562.28c1.61-85.57,3.24-171.14-0.94-256.69
		c4.53-13.75,4.85-27.65,1.5-41.69c0.39-61.2,3.28-122.42-1.8-183.57c5.91-18.31,3.16-37.2,2.6-55.69
		c-1.33-43.6,0.61-85.97,29.58-122.04c4.5-4.64,9-9.27,13.5-13.91c25.59-21.71,55.24-29.67,88.56-28.7
		c38.49,1.12,77.03,0.34,115.55,0.21c156.25-0.51,312.5-1.08,468.75-1.63c13.44,2.82,26.91,3.2,40.43,0.65
		c6.58,0.33,13.17,0.95,19.75,0.95c378.45-0.05,756.9,0.03,1135.35-0.37c106.61-0.11,213.21-1.65,319.82-2.53
		c57.04,2.38,114.08,3.77,171.07-1.08c11.27,5.43,22.84,5.18,34.57,1.81c19.82,0.28,39.64,0.57,59.46,0.82
		c73.68,0.96,127.63,53.88,130.51,128.15c0.3,7.7,0.12,15.42,0.12,23.14c0,409.88,0.02,819.77-0.01,1229.65
		c-0.01,100.62-49.07,149.33-150.19,149.33c-776.84,0.01-1553.67,0.01-2330.51,0c-97.67,0-145.96-48.19-146.4-145.64
		C628.88,3383.5,628.22,3343.87,627.79,3304.23z M717.03,2305.03c-13.32-64.74-43.22-123.88-61.45-189.24
		c-12.8,20.09-12.86,39.77-12.87,59.31c-0.07,418.59-0.19,837.18,0.06,1255.78c0.05,79.88,45.4,124.46,125.27,124.47
		c783.25,0.06,1566.5,0.07,2349.75-0.01c76.69-0.01,124.67-46.48,124.74-122.71c0.34-419.69,0.18-839.39,0.1-1259.08
		c0-20.85-2.43-41.3-15.56-59.5c-7.16,18.14-14.48,35.22-20.69,52.7c-12.44,35.01-34.74,66.47-37.87,104.83
		c-7.37,1.86-9.34,7.68-12.07,14.08c-72.85,170.81-146.31,341.35-218.91,512.26c-23.92,56.3-42.44,69.69-105.12,69.7
		c-225.92,0.02-451.84,0.53-677.76-0.6c-31.05-0.16-46.89,2.89-53.86,40.16c-12.04,64.38-83.18,117.4-145.82,119.23
		c-81.79,2.4-144.27-38.42-168.96-110.39c-16.61-48.4-16.61-48.4-68.97-48.4c-243.55,0-487.11,0.05-730.66-0.06
		c-44.89-0.02-69.5-16.79-84.7-58.93c-45.86-127.13-90.33-254.77-137.25-381.5C749.28,2386.24,740.91,2342.56,717.03,2305.03z
		 M3169.67,2206.95c21.1-24.5,30.11-55.06,38.44-84.87c6.36-22.78-3.87-42.8-25.88-55.4c-18.93-10.84-39.09-12.8-60.35-12.78
		c-787.31,0.8-1574.62,1.35-2361.92,2.22c-15.22,0.02-31.05,1.32-45.52,5.64c-30.35,9.06-48.63,37.61-40.27,66.24
		c11.01,37.67,21.24,76.02,42.11,110.07c0.72,5.45,0.51,11.23,2.31,16.3c64.47,182.33,128.77,364.73,194.05,546.77
		c14.93,41.63,34.52,53.11,80.83,53.11c616.06,0.06,1232.13-0.04,1848.19,0.25c35.66,0.02,60.65-12.5,75.16-46.73
		c42.46-100.17,87.45-199.28,128.88-299.87C3087.02,2407.6,3136.5,2310.63,3169.67,2206.95z"/>
	<path class="st5" d="M3066.09,2037.69c-11.73,3.37-23.3,3.62-34.57-1.81c32.8-27.04,74.72-36.02,111.15-56.02
		c56.62-31.07,80.47-93.47,54.35-150.91c-50.99-112.13-102.84-223.86-154.21-335.81c-54.57-118.94-108.79-238.04-163.52-356.9
		c-72.67-157.85-145.6-315.58-218.73-473.22c-5.69-12.27-11.3-26.13-29.6-28.59c7.93,55.06,1.16,108.94,5.48,162.53
		c-5.31,23.37,4.51,45.72,4.79,68.57c1.17,96.74-0.59,193.46,6.45,290.16c5.42,74.47-3.93,149.34,6.28,224.07
		c6.36,46.59-17.8,77.29-62.22,97.48c-205.13,93.25-409.72,187.7-615.06,280.51c-30.31,13.7-51.28,27.36-36.55,64.86
		c3,7.65,0.56,17.46,0.51,26.28c-0.4,69.85-47.72,131.1-118.32,153.22c-67.72,21.22-143.57-2.28-181.5-58.71
		c-12.41-18.47-24.2-20.96-42.91-12.11c-63.61,30.1-127.62,59.35-191.32,89.26c-8.5,3.99-19.71,5.81-21.06,18.38
		c-13.52,2.55-27,2.17-40.43-0.65c1.23-5.89,5.06-9.37,10.38-11.81c111.81-51.45,223.51-103.11,335.39-154.4
		c206.76-94.78,413.65-189.28,620.42-284.04c92.91-42.58,185.02-86.99,278.84-127.45c32.33-13.95,46.41-32.73,45.37-67.14
		c-2.56-84.54-3.48-169.18-5.1-253.68c-2.53-131.91-10.81-263.71-9.18-395.7c0.11-19.83,0.66-39.68,0.25-59.5
		c-1.5-71.62-40.47-96.77-106.66-67.75c-55.4,24.29-110.12,50.13-165.05,75.49c-177.77,82.06-355.45,164.33-533.26,246.31
		c-278.72,128.5-557.47,256.95-836.31,385.19c-120.92,55.61-242.17,110.51-363.16,165.97c-89.02,40.8-178.11,81.46-266.69,123.22
		c-51.71,24.38-59.2,70.95-18.93,111.76c17.72,17.96,36.62,34.76,54.99,52.09l-0.15-0.28c2.31,2.54,4.62,5.07,6.93,7.61
		c27.99,29.42,56.72,58.18,83.83,88.4c61.67,68.72,127.05,133.66,195.25,195.83c-4.5,4.64-9,9.27-13.5,13.91
		c-64.41-72.8-136.18-138.37-204.3-207.52c-3.4-3.45-9.75-4.01-14.73-5.91c-33.85-65.95-97.89-104.51-146.38-166.19
		c0.3,46.36,21.56,78.44,36.69,111.78c85.83,189.21,172.66,377.98,260.31,566.35c10.19,21.9,13.56,49.09,38.03,62.78
		c3.35,14.03,3.03,27.94-1.5,41.69c-25.02-28.78-34.31-65.75-49.92-99.16c-87.88-188.16-174.49-376.92-260.2-566.08
		c-16.08-35.49-37.54-69.42-36.75-111.53c1-53.59,22.02-93.04,71.35-115.83c118.71-54.85,237.41-109.74,356.26-164.29
		c121.81-55.9,243.88-111.24,365.7-167.12c187.73-86.13,375.33-172.51,562.99-258.79c152.23-70.38,304.45-140.76,456.68-211.13
		c71.98-32.73,143.97-65.41,215.92-98.2c69-31.44,137.35-64.4,207.09-94.09c61.09-26.01,129.43-0.23,158.26,59.72
		c48.59,101.06,95.24,203.07,142.17,304.93c58.87,127.79,116.74,256.04,175.99,383.65c27.71,59.69,50.53,121.75,85.23,178.11
		c0.67,5.37,1.64,10.57,7.43,13.01c0,0-0.17-0.25-0.17-0.25c-0.26,5.94,1.11,11.15,6.58,14.5c0.2,1.42,0.19,2.84-0.03,4.27
		c17.77,50.79,41.86,98.72,66.01,146.62c2.29,2.32,4.58,4.64,6.88,6.96l-0.31-0.28c4.46,35.53,24.65,64.97,39.04,96.35
		c38.43,83.81,15.3,150.43-67.14,192.97C3112.47,2011.7,3083.34,2014.16,3066.09,2037.69z"/>
	<path class="st6" d="M3632.25,1489.52c-4.38-0.23-8.77-0.72-13.15-0.66c-72.6,1.05-71.27,1.02-73.42-73.22
		c-0.62-21.3,18.53-50.09-16.26-64.51c-2.79-1.16-1.79-14.58-0.48-21.93c5.28-29.83,16.39-57.84,39.15-78.11
		c62.63-55.75,159.23-80.7,245.1-22.74c75.48,50.95,105.36,143.12,69.94,225.54c-6.26,14.57-7.74,35.48-31.15,37.42
		c-23.38,1.94-44.34-0.36-55.76-24.77c0.52-2.7,1.62-5.45,1.4-8.09c-0.3-3.5-2.3-3.57-2.63-0.17c-0.25,2.61,1.14,5.38,1.8,8.08
		c-0.41,17.34-8.41,24.37-26.37,22.44c-17.13-1.84-34.55-1.02-51.84-1.37c2.78-11.51,14.63-12.05,22.07-17.85
		c27.45-21.41,43.77-48.34,46.87-83.56c1.98-22.54-2.13-34.86-29.41-32.37c-32.79,3-66.15-0.15-98.92,2.94
		c-26.75,2.53-49.4,2-59.45-32.31c-7.89,14.33-3.94,32.24-19.89,32.34c-23.59,0.14-19.7,15.7-18.77,29.35
		c2.39,35.12,19.64,62.08,46.97,83.55C3616.25,1475.98,3629.57,1476.42,3632.25,1489.52z"/>
	<path class="st7" d="M3478.3,1610.87c44.23,34.32,94.85,58.13,142.9,86.1c36.92,21.49,52.62,60.33,78.98,90.38
		c3.26,3.71,2.91,7.17,0.54,11.71c-17.62,33.74-75.27,47.04-105.77,23.31c-60.61-47.18-120.7-95.02-181.15-142.41
		c-9.32-7.31-17.49-17.04-30.78-17.51c-16.71-22.03-34.07-40.4-66.3-38.72c-30.2,1.57-55.27-22.18-59.76-50.28
		c-4.91-30.63,10.14-57.69,38.07-68.47c27.48-10.61,61.04-2.84,73.74,24.72C3391.08,1578.16,3437.41,1589.9,3478.3,1610.87z"/>
	<path class="st7" d="M3157.46,1703.59c-24.15-47.9-48.24-95.83-66.01-146.62c77.74,44.24,155.52,88.41,233.15,132.86
		c9.46,5.42,18.01,12.45,29.45,13.34c21.21,29.9,42.42,59.8,63.64,89.7c-40.35,52.91-75.55,56.42-126.33,15.25
		c-41.57-33.69-84.82-65.31-127.33-97.84c0,0,0.31,0.28,0.31,0.28C3162.04,1708.23,3159.75,1705.91,3157.46,1703.59z"/>
	<path class="st0" d="M3984.61,3542.3c18.88,1.34,27.78,9.04,28.43,30.37c1.31,42.75,6.39,85.39,9.91,128.08
		c-20-8.12-53.69,29.69-59.78-20.7c-21.99,25.19-62.51,29.33-185.14,21.03c-5.86-18.14,0.17-31.5,15.87-41.7
		c15.49-10.07,30.46-20.93,45.71-31.36c30.56-20.89,67.57-37.17,60.25-85.02c-0.14-0.93,3.27-2.4,5.02-3.62
		C3931.46,3540.35,3958.04,3541.33,3984.61,3542.3z"/>
	<path class="st0" d="M3325.76,3700.31c-5.62-18.97,2.94-31.5,18.12-41.7c24.65-16.57,48.31-34.69,73.59-50.2
		c19.37-11.88,32.78-25.06,28.34-49.78c-2.16-12.03,3-18.89,15.82-18.82c26.46,1.03,52.93,2.07,79.4,3.1
		c16.15,2.07,18.79,12.12,20.91,27.12c6.12,43.43,0.72,87.73,11.03,130.68c-24.17,1.36-51.93,12.75-61.35-25.72
		c-9.17,14.23-11.84,28.74-31.47,27.94C3428.74,3700.83,3377.23,3701.03,3325.76,3700.31z"/>
	<path class="st7" d="M3632.25,1489.52c-2.69-13.09-16-13.53-24.2-19.97c-27.33-21.47-44.58-48.43-46.97-83.55
		c-0.93-13.65-4.82-29.21,18.77-29.35c15.95-0.09,12-18.01,19.89-32.34c10.05,34.3,32.7,34.83,59.45,32.31
		c32.77-3.1,66.13,0.06,98.92-2.94c27.28-2.5,31.39,9.83,29.41,32.37c-3.1,35.22-19.42,62.15-46.87,83.56
		c-7.43,5.79-19.28,6.33-22.07,17.85C3689.99,1495.75,3661.13,1492.99,3632.25,1489.52z"/>
	<path class="st5" d="M3325.76,3700.31c51.47,0.72,102.97,0.52,154.39,2.61c19.63,0.8,22.3-13.71,31.47-27.94
		c9.41,38.47,37.18,27.08,61.35,25.72c68.35,0.12,136.71,0.25,205.07,0.37c122.63,8.3,163.15,4.15,185.14-21.03
		c6.09,50.38,39.78,12.58,59.78,20.7c77.04,0.19,154.07,0.22,231.11,0.79c8.99,0.07,24.47-4.66,24.74,8.34
		c0.33,16.3-16.29,10.34-25.81,10.35c-362.07,0.31-724.13,0.26-1086.2,0.26c-3.3,0-6.62,0.15-9.9-0.08
		c-7.44-0.51-17.81,0.85-17.53-9.71c0.27-10.26,10.57-9.24,18.06-9.27c45.12-0.15,90.25-0.04,135.37-0.16
		C3303.78,3701.24,3314.77,3700.65,3325.76,3700.31z"/>
	<path class="st3" d="M280.42,2252.67c32.4-0.07,60.24,28.04,59.76,60.36c-0.46,31.13-28.08,58.48-59.2,58.63
		c-31.14,0.15-59.01-26.93-59.76-58.07C220.44,2281.3,248.19,2252.74,280.42,2252.67z"/>
	<path class="st3" d="M3197.23,1194.82c-0.07-32.36,27.96-60.14,60.25-59.73c29.42,0.38,58.18,27.68,58.66,55.68
		c0.57,33.55-26.1,62.58-58.15,63.28C3225.77,1254.75,3197.29,1226.99,3197.23,1194.82z"/>
	<path class="st3" d="M1055.22,824.28c31.23,0.4,58.68,28.17,58.72,59.41c0.04,32.51-29.43,60.86-61.9,59.55
		c-31.19-1.27-57.89-29.84-57.06-61.07C995.81,850.85,1023.88,823.88,1055.22,824.28z"/>
	<path class="st7" d="M3541.04,3542.92c-26.47-1.03-52.94-2.07-79.4-3.1c-2.3-30-4.6-59.99-6.9-89.99
		c28.83-2.85,57.67-2.6,86.52-0.15C3541.17,3480.75,3541.1,3511.83,3541.04,3542.92z"/>
	<path class="st7" d="M3984.61,3542.3c-26.57-0.98-53.15-1.95-79.73-2.93c1.08-23.63,0.66-47.13-6.21-70.05
		c28.68,0.12,57.36,0.25,86.04,0.37C3984.68,3493.9,3984.65,3518.1,3984.61,3542.3z"/>
	<path class="st7" d="M3085.07,1538.46c-5.79-2.44-6.76-7.64-7.43-13.01C3084.42,1527.32,3085.35,1532.54,3085.07,1538.46z"/>
	<path class="st7" d="M3091.48,1552.7c-5.47-3.34-6.84-8.55-6.58-14.5C3091.54,1541.02,3091.63,1546.81,3091.48,1552.7z"/>
	<path class="st7" d="M3796.8,1466.37c-0.66-2.7-2.06-5.47-1.8-8.08c0.33-3.4,2.33-3.33,2.63,0.17c0.23,2.64-0.88,5.39-1.4,8.09
		C3796.23,1466.55,3796.8,1466.37,3796.8,1466.37z"/>
	<path class="st8" d="M1585.29,608.26c31.38-4.24,34.4-4.59,30.66-36.32c-6.88-58.25,0.19-115.37,7.45-172.69
		c1.36-10.73,4.64-21.21,9.05-33.64c3.52,20.39,20.83,12.98,37.27,20.27c-51.03,7.7-44.71,45.47-45.8,75.61
		c-2.45,67.75-3.76,135.79,12.12,203.32C1617.52,646.85,1634.95,600.33,1585.29,608.26z"/>
	<path class="st8" d="M1648.05,712.03c-0.63,0.77-1.26,1.54-1.88,2.31c-0.48-0.89-1.39-1.81-1.32-2.65
		c0.07-0.82,1.14-1.56,1.76-2.33C1647.1,710.25,1647.57,711.14,1648.05,712.03z"/>
	<path class="st8" d="M1641.39,693.12c-0.83,0.23-2.18,0.87-2.38,0.62c-0.57-0.73-0.66-1.82-0.94-2.77
		c0.83-0.23,2.18-0.87,2.39-0.62C1641.02,691.08,1641.11,692.17,1641.39,693.12z"/>
	<path class="st8" d="M2143.82,484.41c0.29-0.82,0.56-2.31,0.87-2.32c0.93-0.03,1.88,0.53,2.82,0.86c-0.29,0.82-0.56,2.31-0.87,2.32
		C2145.71,485.3,2144.76,484.74,2143.82,484.41z"/>
	<path class="st8" d="M1639.01,339.61c0.81,0.29,2.3,0.56,2.31,0.88c0.03,0.93-0.53,1.88-0.85,2.82c-0.81-0.29-2.3-0.56-2.31-0.88
		C1638.12,341.51,1638.68,340.56,1639.01,339.61z"/>
	<path class="st8" d="M1645.85,317.63c-0.54-1.84-0.81-2.79-1.09-3.74c0.82-0.23,1.65-0.47,2.47-0.7
		C1646.85,314.42,1646.46,315.66,1645.85,317.63z"/>
	<path class="st8" d="M1654.61,296.33c-0.83,0.23-2.18,0.87-2.38,0.62c-0.56-0.73-0.66-1.83-0.94-2.78
		c0.83-0.23,2.19-0.87,2.39-0.62C1654.24,294.29,1654.33,295.38,1654.61,296.33z"/>
	<path class="st9" d="M3169.67,2206.95c-33.17,103.67-82.65,200.65-123.98,300.97c-41.44,100.58-86.42,199.7-128.88,299.87
		c-14.51,34.23-39.49,46.74-75.16,46.73c-616.06-0.29-1232.13-0.19-1848.19-0.25c-46.31,0-65.9-11.48-80.83-53.11
		c-65.28-182.04-129.57-364.44-194.05-546.77c-1.79-5.07-1.58-10.85-2.3-16.31c-0.28-11.01-0.78-22.01-0.79-33.01
		c-0.08-77.92,1.11-79.06,80.39-79.06c765.98,0,1531.95,0,2297.93,0.01c11.02,0,22.05-0.09,33.06,0.18
		c26.74,0.64,40.08,15.96,42.63,41.14C3170.82,2180.41,3169.69,2193.74,3169.67,2206.95z"/>
	<path class="st9" d="M717.03,2305.03c23.88,37.53,32.25,81.21,47.39,122.1c46.92,126.73,91.39,254.37,137.25,381.5
		c15.2,42.14,39.81,58.91,84.7,58.93c243.55,0.11,487.11,0.05,730.66,0.06c52.37,0,52.37,0,68.97,48.4
		c24.69,71.97,87.17,112.79,168.96,110.39c62.64-1.84,133.77-54.85,145.82-119.23c6.97-37.27,22.81-40.32,53.86-40.16
		c225.92,1.13,451.84,0.62,677.76,0.6c62.68-0.01,81.2-13.4,105.12-69.7c72.61-170.91,146.07-341.45,218.91-512.26
		c2.73-6.4,4.7-12.21,12.07-14.07c0.49,10.99,1.42,21.97,1.42,32.95c0.07,370.3,0.07,740.6,0.05,1110.9
		c0,56.85-10.5,67.43-67.05,67.43c-773.7,0.02-1547.41,0.02-2321.11,0c-58.51,0-66.45-8-66.46-67.1
		c-0.02-359.28-0.03-718.56,0.06-1077.84C715.42,2326.96,716.47,2316,717.03,2305.03z M1143.82,3384.44
		c93.55,0,187.1-0.26,280.64,0.19c23.01,0.11,44.68-3.41,45.48-30.69c0.85-28.94-21.11-34.75-45.62-34.73
		c-185.99,0.13-371.99,0.16-557.98-0.04c-24.17-0.03-47.16,4.37-47.15,33.2c0.01,29.2,23.08,32.43,47.29,32.29
		C958.93,3384.13,1051.37,3384.45,1143.82,3384.44z"/>
	<path class="st10" d="M672.25,2068.37c-68.2-62.17-133.58-127.11-195.25-195.83c-27.11-30.21-55.84-58.98-83.83-88.41
		c-2.31-2.54-4.62-5.07-6.93-7.6c0,0,0.15,0.28,0.16,0.28c1.57-11.65-3.9-21.33-8.57-31.32c-20.49-43.86-15.32-59.89,28.06-81.11
		c44.45-21.74,89.23-42.84,134.21-63.44c201.82-92.43,403.85-184.39,605.63-276.9c119.9-54.97,239.35-110.91,359.24-165.92
		c203.75-93.48,407.69-186.57,611.55-279.82c128.92-58.97,257.52-118.63,386.86-176.65c79.31-35.58,79.82-34.45,117.84,42.37
		c-1.63,131.99,6.65,263.79,9.18,395.7c1.62,84.5,2.55,169.14,5.1,253.68c1.04,34.41-13.04,53.19-45.37,67.14
		c-93.82,40.46-185.93,84.87-278.84,127.45c-206.77,94.76-413.66,189.26-620.42,284.04c-111.88,51.29-223.58,102.95-335.39,154.4
		c-5.31,2.45-9.14,5.92-10.38,11.81c-156.25,0.55-312.5,1.12-468.75,1.63c-38.52,0.13-77.07,0.91-115.55-0.21
		C727.49,2038.7,697.84,2046.67,672.25,2068.37z"/>
	<path class="st10" d="M1385.53,2038.92c1.36-12.57,12.56-14.39,21.06-18.38c63.7-29.91,127.71-59.16,191.32-89.26
		c18.71-8.85,30.5-6.36,42.91,12.11c37.93,56.43,113.78,79.93,181.5,58.71c70.6-22.12,117.91-83.37,118.32-153.22
		c0.05-8.81,2.49-18.63-0.51-26.28c-14.73-37.5,6.24-51.16,36.55-64.86c205.33-92.81,409.92-187.26,615.06-280.51
		c44.41-20.19,68.58-50.9,62.22-97.48c-10.21-74.73-0.86-149.6-6.28-224.07c-7.04-96.7-5.28-193.42-6.45-290.16
		c-0.28-22.85-10.1-45.2-4.8-68.57c7.17,1.67,9.82,6.79,12.79,13.31c51.87,113.88,104.05,227.62,156.42,341.27
		c105.66,229.32,211.38,458.6,317.28,687.8c21.95,47.51,14.72,65.62-32.96,86.62c-68.29,30.08-136.1,61.25-203.87,92.48
		c-9.47,4.36-21.8,5.9-25.63,18.52c-106.61,0.88-213.21,2.42-319.82,2.53c-378.45,0.4-756.9,0.32-1135.35,0.37
		C1398.7,2039.86,1392.12,2039.24,1385.53,2038.92z"/>
	<path class="st11" d="M717.03,2305.03c-0.56,10.97-1.6,21.94-1.61,32.91c-0.08,359.28-0.08,718.56-0.06,1077.84
		c0,59.09,7.95,67.1,66.46,67.1c773.7,0.01,1547.41,0.01,2321.11,0c56.55,0,67.05-10.58,67.05-67.43
		c0.02-370.3,0.02-740.6-0.05-1110.9c0-10.98-0.92-21.96-1.42-32.95c3.13-38.37,25.43-69.83,37.87-104.84
		c6.21-17.48,13.53-34.56,20.69-52.7c13.13,18.2,15.55,38.64,15.56,59.5c0.09,419.69,0.25,839.39-0.1,1259.08
		c-0.06,76.24-48.04,122.71-124.74,122.71c-783.25,0.07-1566.5,0.07-2349.75,0.01c-79.87-0.01-125.23-44.59-125.27-124.47
		c-0.25-418.59-0.13-837.18-0.06-1255.78c0-19.55,0.06-39.22,12.87-59.31C673.81,2181.15,703.71,2240.29,717.03,2305.03z"/>
	<path class="st12" d="M3169.67,2206.95c0.02-13.22,1.15-26.55-0.18-39.63c-2.55-25.18-15.89-40.5-42.63-41.14
		c-11.02-0.26-22.04-0.18-33.06-0.18c-765.98-0.01-1531.95-0.01-2297.93-0.01c-79.28,0-80.47,1.14-80.39,79.06
		c0.01,11,0.52,22,0.79,33.01c-20.87-34.05-31.11-72.4-42.11-110.07c-8.36-28.63,9.92-57.18,40.27-66.24
		c14.47-4.32,30.3-5.63,45.52-5.64c787.31-0.87,1574.62-1.42,2361.92-2.22c21.26-0.02,41.42,1.94,60.35,12.78
		c22,12.6,32.24,32.62,25.88,55.4C3199.78,2151.9,3190.77,2182.45,3169.67,2206.95z"/>
	<path class="st13" d="M2860.45,2036.96c3.83-12.62,16.17-14.16,25.63-18.52c67.78-31.22,135.58-62.4,203.87-92.48
		c47.69-21.01,54.91-39.12,32.96-86.62c-105.9-229.2-211.62-458.49-317.28-687.8c-52.37-113.65-104.55-227.39-156.42-341.27
		c-2.97-6.52-5.61-11.64-12.79-13.31c-4.3-53.6,2.47-107.48-5.46-162.54c18.3,2.46,23.91,16.33,29.6,28.59
		c73.14,157.64,146.06,315.37,218.73,473.22c54.73,118.87,108.95,237.96,163.52,356.9c51.37,111.95,103.22,223.69,154.21,335.81
		c26.12,57.44,2.27,119.85-54.35,150.91c-36.44,19.99-78.35,28.98-111.15,56.02C2974.52,2040.73,2917.49,2039.34,2860.45,2036.96z"
		/>
	<path class="st13" d="M628.36,2443.58c-24.47-13.68-27.84-40.88-38.03-62.78c-87.65-188.38-174.48-377.14-260.31-566.35
		c-15.12-33.34-36.38-65.42-36.69-111.78c48.48,61.68,112.52,100.24,146.37,166.19c0.96,6.41,0.49,13.47,3.09,19.13
		c54.2,118.13,108.72,236.11,163.26,354.08c4.11,8.89,7.81,18.67,20.51,17.94C631.65,2321.15,628.75,2382.38,628.36,2443.58z"/>
	<path class="st10" d="M626.57,2260.01c-12.69,0.72-16.4-9.05-20.51-17.94c-54.54-117.97-109.06-235.95-163.26-354.08
		c-2.59-5.66-2.13-12.72-3.09-19.13c4.98,1.9,11.33,2.45,14.73,5.91c68.12,69.15,139.89,134.72,204.3,207.52
		c-28.97,36.07-30.91,78.44-29.58,122.04C629.73,2222.81,632.47,2241.7,626.57,2260.01z"/>
	<path class="st13" d="M2621.22,744.04c-38.02-76.82-38.53-77.95-117.84-42.37c-129.34,58.02-257.95,117.68-386.86,176.65
		c-203.86,93.25-407.8,186.34-611.55,279.82c-119.89,55-239.34,110.95-359.24,165.92c-201.78,92.51-403.81,184.47-605.63,276.9
		c-44.99,20.6-89.77,41.7-134.21,63.44c-43.38,21.22-48.55,37.25-28.06,81.11c4.67,9.99,10.14,19.66,8.57,31.32
		c-18.37-17.33-37.27-34.13-54.99-52.09c-40.26-40.81-32.78-87.38,18.93-111.76c88.57-41.75,177.67-82.41,266.69-123.22
		c120.99-55.46,242.24-110.36,363.16-165.97c278.84-128.24,557.59-256.68,836.31-385.19c177.81-81.98,355.49-164.25,533.26-246.31
		c54.93-25.36,109.65-51.2,165.05-75.49c66.18-29.02,105.16-3.87,106.66,67.75C2621.88,704.36,2621.33,724.2,2621.22,744.04z"/>
	<path class="st8" d="M3157.46,1703.59c2.29,2.32,4.58,4.64,6.87,6.96C3162.05,1708.23,3159.75,1705.91,3157.46,1703.59z"/>
	<path class="st13" d="M386.23,1776.54c2.31,2.53,4.62,5.06,6.93,7.6C390.86,1781.61,388.55,1779.08,386.23,1776.54z"/>
	<path class="st12" d="M1143.82,3384.44c-92.45,0-184.9-0.32-277.34,0.21c-24.21,0.14-47.27-3.09-47.29-32.29
		c-0.01-28.83,22.98-33.23,47.15-33.2c185.99,0.2,371.99,0.17,557.98,0.04c24.51-0.02,46.47,5.8,45.62,34.73
		c-0.8,27.27-22.48,30.8-45.48,30.69C1330.92,3384.18,1237.37,3384.44,1143.82,3384.44z"/>
</g>
</svg>
