<?xml version="1.0" encoding="utf-8"?>
<!-- Generator: Adobe Illustrator 23.1.0, SVG Export Plug-In . SVG Version: 6.00 Build 0)  -->
<svg version="1.1" xmlns="http://www.w3.org/2000/svg" xmlns:xlink="http://www.w3.org/1999/xlink" x="0px" y="0px"
	 viewBox="0 0 4500 4500" style="enable-background:new 0 0 4500 4500;" xml:space="preserve">
<style type="text/css">
	.st0{fill:#176561;}
	.st1{fill:#E5E5E5;}
	.st2{fill:#302F42;}
	.st3{fill:#4A485F;}
	.st4{fill:#323043;}
	.st5{fill:#E3E3E3;}
	.st6{fill:#9F616A;}
	.st7{fill:#393849;}
	.st8{fill:#343346;}
	.st9{fill:#9F636C;}
	.st10{fill:#9E626B;}
	.st11{fill:#6B6A7D;}
	.st12{fill:#FCFCFC;}
	.st13{fill:#F8FAFA;}
	.st14{display:none;}
	.st15{display:inline;fill:#176561;}
</style>
<g id="Calque_1">
	<g>
		<path class="st0" d="M-4161.63-1217.14c122.14-37.74,245.07-45.12,366.8-1.33c195.45,70.31,321.88,207.17,365.28,410.22
			c44.73,209.25-18.04,388.68-174.93,534.68c-8.33,7.76-16.54,15.65-24.81,23.48c-7.28,0.64-11.72,4.33-12.65,11.79
			c-13.59,1.16-22.42,11.33-32.98,17.94c-76.75,48.11-160.19,77.74-250.33,83.85c-373.42,25.29-659.49-288.57-593.27-656.89
			c35.22-195.93,150.18-334.81,336.64-411.03C-4175.12-1208.66-4168.38-1212.9-4161.63-1217.14z M-3969.58-850.5
			c-0.85,0-1.71-0.01-2.56-0.01c0-59.61-0.42-119.23,0.21-178.83c0.25-22.94-8.01-37.88-32.2-37.27
			c-57.27,1.44-105.78,23.77-144.12,66.31c-14.87,16.49-13.14,35.73,8.23,43.15c58.49,20.3,76.36,70.4,93.59,121.09
			c26.2,77.08,36.1,157.96,53.49,237.1c3.89,17.72,3.78,49.8,20.29,47.78c21.62-2.64,15.71-33.53,15.07-52.22
			C-3960.41-685.82-3965.39-768.15-3969.58-850.5z M-3922.49-401.55c-0.33-28.64-22.5-50.3-50.97-49.8
			c-28.21,0.5-50.57,23.44-50.02,51.36c0.53,27.52,24.32,50.66,51.63,50.23C-3943.51-350.22-3922.16-372.61-3922.49-401.55z"/>
		<path class="st1" d="M-3068.46-1425.11c-22.12,0.99-22.48-8.31-19.03-28.34c29.74-172.71,59.81-345.42,85.46-518.77
			c21.78-147.19,44.31-294.21,69.74-440.81c8.86-51.08,34.41-83.81,87.3-97.28c32.65-8.32,63.42-25.4,93.77-41
			c25.96-13.34,21.57-42.97,23.26-64.64c2.17-27.95,16.83-33.76,37.82-37.56c40.93-7.41,81.92-14.54,122.87-21.84
			c27.28-4.86,49.82-4.19,57.2,31.01c5.42,25.84,21.49,44.46,49.81,51.32c20.81,5.04,40.06,17.4,60.95,21.01
			c91.49,15.79,120.97,79.54,131.48,161.41c14.14,110.24,23.29,220.81,32.42,331.54c5.09,61.67-1.67,123.98,12.13,185.29
			c8.06,35.81-6.96,69.28-20.66,102.64c-38.96,94.88-76.39,190.4-113.24,286.13c-6.13,15.93-11.79,27.87-30.94,26.5
			c-19.27-20.86-46.79-21.78-71.47-29.57c-19.62-6.61-13.4-20.18-10.14-34.15c14.36-61.44,28.02-123.03,42.11-185.32
			c-31.3-8.5-59.73,2.51-88.26,4.92c-119.93,10.12-239.64,22.88-359.51,33.82c-21.74,1.98-32.26,8.79-36.94,32.61
			c-13.41,68.24-31.61,135.52-45.99,203.59c-4.4,20.83-12.09,31.91-34.23,28.99C-3017.86-1424.11-3043.16-1424.61-3068.46-1425.11z
			 M-2434.62-2074.44c-4.22,72.55-1.4,136.37,8.48,199.65c1.85,11.85,1.85,33.35,19.17,32.61c16.46-0.71,7.57-20.92,11.68-31.88
			c6.59-17.57,7.48-37.32,14.34-54.74c9.36-23.77,5.05-44.15-7.37-64.87C-2402.6-2017.5-2415.99-2041.85-2434.62-2074.44z"/>
		<path class="st2" d="M-2992.56-1423.61c22.13,2.92,29.83-8.15,34.23-28.99c14.38-68.07,32.58-135.35,45.99-203.59
			c4.68-23.82,15.2-30.63,36.94-32.61c119.87-10.94,239.57-23.7,359.51-33.82c28.53-2.41,56.96-13.42,88.26-4.92
			c-14.09,62.28-27.75,123.88-42.11,185.32c-3.26,13.97-9.49,27.54,10.14,34.15c-2.82,39.93-29.16,71.35-39.27,108.6
			c-13.4,49.39,5.99,74.12,56.75,73.15c-19.25,211.26-38.29,422.54-57.81,633.78c-16.72,180.88-33.99,361.71-51.08,542.55
			c-1.42,15.08-0.46,30.61-7.7,44.7c-30.01,0.07-60.02,0.15-90.03,0.22c-35.74-364.41-71.48-728.82-108.17-1102.83
			c-78.7,119.83-151.6,231.02-224.77,342.03c-9.77,14.83-4.35,29.64-1.35,44.18c34.11,164.79,73.13,328.56,102.35,494.36
			c-28.43,12.13-56.85,24.26-85.28,36.38c-12.6-4.86-13.86-17.72-18.24-27.66c-75.68-171.54-150.54-343.43-226.74-514.74
			c-8.63-19.41-7.13-34.95,0.31-53.53c50.34-125.84,99.81-252.02,149.56-378.09c45.08-3.09,65.93-25.2,67.89-72.77
			C-2992-1366.35-3000.65-1395.04-2992.56-1423.61z"/>
		<path class="st3" d="M-3641.93-238.3c0.94-7.45,5.37-11.14,12.65-11.78c18.6,34.53,37.48,68.9,55.73,103.61
			c40.7,77.39,30.79,143.75-31.06,211.97c-4.78,5.27-13.78,8.9-11.74,17.62c2.26,9.7,11.83,8.34,18.8,7.91
			c126.24-7.74,254.07,8.46,378.76-21.25c98.38-23.44,188.3-65.7,264.66-133.74c19.68-19.93,47-19.12,71.38-26.3
			c19.98,56.62,58.95,103.61,80.78,159.29c-0.11,10.73-0.23,21.46-0.34,32.2c-15.37,8.85-32.26,5.4-48.51,5.42
			c-293.36,0.37-586.72,0.51-880.08,0.64c-397.57,0.18-795.15,0.17-1192.72,0.71c-33.63,0.05-65.61-4.55-95.85-19.45
			c-89.28-63.3-109.08-146.25-57.01-241.9c50.91-93.51,101.5-187.21,154.33-279.63c14.52-25.4,12.87-35.45-14.49-49.83
			c-177.66-93.31-302.46-231.82-356.6-428.43c-4.36-15.82-7.04-32.11-10.5-48.18c4.06-0.05,8.13-0.1,12.19-0.16
			c47.04,215.62,181.21,360.11,372.65,458.8c24.24,12.5,31.82,3.31,42.51-16.26c131.26-240.21,263.34-479.96,395.02-719.95
			c33.12-60.36,81.91-96.21,152.27-96.78c70.18-0.57,120.35,33.38,153.84,93.87c4.28,7.73,9.07,15.19,13.63,22.77
			c-6.74,4.24-13.49,8.48-20.25,12.73c-2.14-32.86-20.92-58.2-45.17-75.44c-70.44-50.07-101.19-57.25-149.59,14.1
			c-169.55,249.92-318.59,512.21-471.83,772.01c-8.9,15.09-6.58,21.9,9.44,26.92c36.22,11.35,71.86,24.75,109.78,29.86
			c3.12-0.17,6.23-0.33,9.34-0.48c-1.08-1.99-2.16-3.98-3.24-5.97c-6.18-29.13-12.37-58.26-20.74-97.69
			c64.37,59.45,129.73,100.32,206.1,139.9c-85.14,23.26-155.38,53.24-229.88,97.13c8.99-20.16,13.77-31.41,18.97-42.47
			c27.13-57.58,27.16-57.52-32.35-74.39c-9.75-2.76-19.38-5.95-29.04-9.05c-63.11-20.24-63.55-20.5-95.4,36.5
			c-57.53,102.96-114.5,206.23-171.62,309.41c-4.88,8.81-12.96,19.48-6.37,28.07c6.45,8.4,19.04,3.59,28.86,1.75
			c26.17-4.89,52.13-11.1,78.42-15.22c33.51-5.25,45.03,5.13,41.18,39.16c-2.69,23.82-9.19,47.26-14.66,70.71
			c-11.39,48.88-7.86,54.37,40.54,53.04c182.86-5.05,365.78-8.76,548.53-16.41c238.53-9.97,477.44-14.98,714.8-44.21
			c63.05-7.76,79.58-27.11,80.29-91.12c0.31-27.47-7.27-52.6-20.09-76.42C-3604.25-169.31-3623.15-203.77-3641.93-238.3z"/>
		<path class="st4" d="M-2799.72-2853.44c-21.69-30.57-26.59-67.38-35.89-102.16c-3.78-14.15,3.81-30.9,22.8-34.06
			c45.01-7.49,83.85-24.9,110.4-64.19c3.29-4.87,10.77-11.75,14.48-10.77c43.94,11.65,91.72,0.09,133.73,21.89
			c12.64,6.56,22.43,16.73,27.71,30.27c6.75,17.29,15.32,29.76,36.75,33.2c23.98,3.85,32.81,25.56,40.01,46.52
			c23.71,68.97-2.56,168.58-56.83,217.08c-12.87,11.5-24.36,19.77-35.48-1.26c-1.07-22.17,13.72-37.35,24.06-54.48
			c6.26-10.36,18.66-19.03,9.76-33.56c-5.2-8.5-13.99-11.95-23-9.59c-17.38,4.55-7.86,21.83-13.74,31.99
			c-0.99,1.71-3.83,2.36-7.18,4.27c-25.36-21.79-36.78-49.65-36.12-82.99c0.38-19.06,1.05-38.23-10.4-54.98
			c-4.26-6.23-8.92-13.23-18.13-8.77c-6.28,3.04-9.29,9.23-7.58,15.83c10.58,40.74-18.29,28.81-37.63,27.79
			c-26.54-1.4-24.88-25.66-28.89-45.86c-30.15,30.41-69.94,38.93-94.9,68.52C-2788.57-2855.42-2794.98-2855.13-2799.72-2853.44z"/>
		<path class="st5" d="M-2543.8,100.73c102.36,0,204.71,0,318.29,0c-63.29-49.22-38.24-102.29-24.91-153.45
			c4.84-18.57,21.8-23.29,39.93-21.57c23.26,2.21,36.94,15.53,40.99,37.91c4.06,22.45-5.54,41.8-14.84,61.67
			c-17.89,38.22-9.72,52.8,29.08,64.26c19.77,5.84,27.49-0.73,33.42-18.57c28.58-86.01,49.26-172.72,30.22-264.14
			c-1-4.82-0.22-10.13,0.45-15.12c0.3-2.25,2.39-4.27,5.27-9.06c16.93,20.38,3.66,44.52,11.1,64.85
			c7.13,19.47,14.06,32.02,31.33,9.56c38.11-49.54,99.72-58.29,149.51-87.48c11.7-6.86,25.41-7.4,33.74,5.93
			c8.35,13.37,2.01,22.99-10.08,31.79c-14.37,10.45-23.63,23.68-9.16,41.61c12.42,15.39-2.06,19.42-11.47,24.67
			c-27.67,15.45-55.17,31.27-83.53,45.36c-17.56,8.73-25.78,19.4-27.64,40.46c-5.13,57.94-8.6,60.02-63.42,47
			c-16.76-3.98-23.49,0.48-27.7,15.42c-4.8,17-8.84,34.5-16.19,50.41c-11.18,24.18-0.64,28.91,20.86,28.76
			c59.74-0.43,119.48-0.14,179.21-0.13c80.07,0.01,160.15-0.17,240.22,0.2c11.75,0.05,30.38-3.66,29.32,14.09
			c-0.89,14.78-18.64,8.52-28.82,8.53c-285.98,0.39-571.96,0.37-857.94,0.2c-10.91-0.01-23.29,3.75-31.6-7.75
			C-2553.38,111.02-2548.59,105.87-2543.8,100.73z"/>
		<path class="st5" d="M-5019.48,88.53c30.25,14.91,62.23,19.5,95.85,19.45c397.57-0.54,795.15-0.53,1192.72-0.71
			c293.36-0.13,586.72-0.26,880.08-0.64c16.25-0.02,33.14,3.42,48.51-5.42c7.62,4.92,15.23,9.85,22.85,14.77
			c-10.8,13.53-25.93,7.83-39.11,7.83c-927.58,0.3-1855.16,0.3-2782.73,0.32c-7.62,0-15.25,0.05-22.87-0.23
			c-6.57-0.25-13.66-1.66-13.44-9.74c0.19-6.97,6.44-11.23,12.83-11.91c11.33-1.2,22.81-1.18,34.22-1.19
			c175.35-0.06,350.7,0.08,526.05-0.25C-5048.77,100.78-5030.68,106.39-5019.48,88.53z"/>
		<path class="st6" d="M-2799.72-2853.44c4.74-1.69,11.15-1.98,13.95-5.3c24.96-29.59,64.74-38.11,94.9-68.52
			c4.02,20.2,2.35,44.46,28.89,45.86c19.35,1.02,48.22,12.95,37.63-27.79c-1.72-6.6,1.3-12.79,7.58-15.83
			c9.2-4.45,13.87,2.55,18.13,8.77c11.45,16.75,10.78,35.92,10.4,54.98c-0.66,33.34,10.75,61.2,36.12,82.99
			c3.34-1.91,6.18-2.56,7.18-4.27c5.88-10.17-3.64-27.45,13.74-31.99c9.01-2.36,17.79,1.1,23,9.59c8.9,14.53-3.5,23.2-9.76,33.56
			c-10.34,17.13-25.13,32.31-24.06,54.48C-2657.09-2634.17-2804.25-2715.56-2799.72-2853.44z"/>
		<path class="st5" d="M-2093.6-230.97c-17.55-59.41-33.73-110.86-60.28-158.14c-2.34-4.17-5.47-11.68-3.67-13.86
			c41.36-49.96,42.85-121.34,91.94-167.71c24.35-22.99,50.2-29.26,73.58-8.96c3.78,3.28,10.42,9.54,9.63,10.9
			c-17.27,29.98,9.02,65.62-12.09,94.41c-16.29,22.22-24.53,42.72-16.69,73.06c14.51,56.12-0.81,74.77-56.5,82.25
			c-24.46,3.28-37.35,10.95-27.15,39.63C-2090.73-267.86-2081.94-254.17-2093.6-230.97z"/>
		<path class="st7" d="M-2779.46,115.98c-7.62-4.92-15.23-9.85-22.85-14.77c0.11-10.73,0.23-21.46,0.34-32.2
			c61.97-7.42,116-31.98,161.56-74.82c23.63,21.79,44.75,49.34,83.51,36.38c20.46,20.38,12.18,46.12,13.1,70.15
			c-4.79,5.15-9.58,10.29-14.37,15.44C-2631.93,116.1-2705.7,116.04-2779.46,115.98z"/>
		<path class="st8" d="M-2882.75-90.27c-24.38,7.18-51.7,6.37-71.38,26.3c-22.58-3.05-40.55,12.46-61.71,15.31
			c-14.89,2.01-24.88-4.14-29.4-17.88c-3.88-11.79-2.92-25.06,10.52-28.69c57.81-15.6,79.16-67.4,110.9-108.97
			c27.33,12.01,53.35,42.21,84.14,6.06c28.98,12.5,37.22,39.06,36.18,65.66c-0.95,24.4-28.72,19.58-44.63,27.56
			C-2859.3-99.3-2871.18-95.1-2882.75-90.27z"/>
		<path class="st9" d="M-2442.12-1326.33c-50.76,0.97-70.16-23.76-56.76-73.15c10.11-37.25,36.46-68.68,39.27-108.6
			c24.68,7.79,52.2,8.71,71.47,29.57c-6.39,21.68-12.14,43.07-12.52,66.32C-2401.2-1378.02-2417.31-1349.66-2442.12-1326.33z"/>
		<path class="st6" d="M-2992.56-1423.61c-8.09,28.57,0.56,57.27-0.62,85.87c-1.96,47.57-22.8,69.67-67.89,72.77
			c-31.33-31.97-34.36-69.47-18.27-108.68c6.96-16.96,9.49-33.84,10.87-51.46C-3043.16-1424.61-3017.86-1424.11-2992.56-1423.61z"/>
		<path class="st5" d="M-2154.6-564.86c-10.7,28.52-29.4,58.53-40.96,92.05c-5.12,14.85-23.5-3.35-24.2-13.27
			c-2.2-31.15-12.81-53.46-45.29-61.11c-2.19-0.51-4.63-2.62-5.72-4.65c-8.53-15.94,23.04-88.67,40.49-93.54
			c2.41-0.67,5-0.9,7.51-0.94C-2202-646.7-2152.27-591.08-2154.6-564.86z"/>
		<path class="st10" d="M-2839.67-198.13c-30.8,36.15-56.82,5.94-84.15-6.06c-14.04-28.93-28.09-57.85-42.13-86.77
			c28.43-12.13,56.86-24.25,85.28-36.38C-2867-284.27-2853.34-241.2-2839.67-198.13z"/>
		<path class="st9" d="M-2556.89,30.58c-38.77,12.96-59.89-14.59-83.52-36.38c-2.78-33.09-5.55-66.18-8.33-99.28
			c30.01-0.07,60.02-0.15,90.03-0.22C-2558.11-60.01-2557.5-14.71-2556.89,30.58z"/>
		<path class="st11" d="M-5291.56-959.6c-4.06,0.05-8.13,0.1-12.19,0.16c-8.25-33.29-11.86-66.91-9.31-100.96
			c3.39-0.59,6.78-1.18,10.17-1.78C-5299.12-1027.98-5295.34-993.79-5291.56-959.6z"/>
		<path class="st5" d="M-2179.87-450.62c-0.87,2.08-1.75,4.15-2.63,6.21c-2.06-0.91-5.27-1.36-5.86-2.85
			c-0.59-1.49,1.43-4.02,2.3-6.1C-2184-452.44-2181.94-451.54-2179.87-450.62z"/>
		<path class="st5" d="M-2170.96-430.03c2.07,0.9,5.26,1.35,5.86,2.84c0.59,1.47-1.44,4-2.32,6.06c-2.07-0.9-5.26-1.33-5.88-2.83
			C-2173.89-425.42-2171.85-427.96-2170.96-430.03z"/>
		<path class="st12" d="M-4729.27-436.94c-37.91-5.14-73.54-18.54-109.77-29.88c-16.02-5.02-18.35-11.83-9.44-26.92
			c153.24-259.8,302.28-522.09,471.83-772.01c48.41-71.35,79.16-64.17,149.59-14.1c24.25,17.24,43.03,42.58,45.17,75.44
			c-186.44,76.22-301.4,215.09-336.62,411.02c-66.21,368.31,219.85,682.18,593.27,656.89c90.14-6.11,173.58-35.74,250.33-83.85
			c10.55-6.61,19.39-16.78,32.98-17.94c18.78,34.52,37.68,68.99,56.31,103.6c12.81,23.81,20.39,48.95,20.09,76.42
			c-0.71,64-17.24,83.36-80.29,91.12c-237.36,29.22-476.27,34.23-714.8,44.21c-182.75,7.64-365.67,11.36-548.53,16.41
			c-48.41,1.34-51.93-4.16-40.54-53.04c5.46-23.45,11.96-46.89,14.66-70.71c3.85-34.03-7.66-44.41-41.18-39.16
			c-26.29,4.11-52.24,10.32-78.42,15.22c-9.82,1.84-22.41,6.65-28.86-1.75c-6.59-8.58,1.5-19.25,6.37-28.07
			c57.12-103.19,114.08-206.46,171.62-309.41c31.85-56.99,32.29-56.73,95.4-36.5c9.65,3.1,19.29,6.28,29.04,9.05
			c59.51,16.86,59.48,16.81,32.35,74.39c-5.21,11.05-9.99,22.31-18.97,42.47c74.5-43.89,144.74-73.87,229.88-97.13
			c-76.38-39.58-141.73-80.46-206.1-139.9c8.37,39.44,14.56,68.57,20.74,97.69C-4725.2-441.26-4727.23-439.1-4729.27-436.94z"/>
		<path class="st13" d="M-3969.58-850.5c4.2,82.36,9.17,164.69,12,247.09c0.64,18.69,6.56,49.58-15.07,52.22
			c-16.52,2.02-16.4-30.06-20.29-47.78c-17.39-79.14-27.28-160.01-53.49-237.1c-17.23-50.69-35.1-100.79-93.59-121.09
			c-21.37-7.42-23.1-26.65-8.23-43.15c38.34-42.54,86.85-64.87,144.12-66.31c24.19-0.61,32.44,14.33,32.2,37.27
			c-0.64,59.6-0.21,119.22-0.21,178.83C-3971.29-850.51-3970.44-850.51-3969.58-850.5z"/>
		<path class="st13" d="M-3922.49-401.55c0.33,28.94-21.02,51.34-49.37,51.79c-27.31,0.43-51.09-22.7-51.63-50.23
			c-0.54-27.92,21.81-50.87,50.02-51.36C-3944.99-451.86-3922.82-430.19-3922.49-401.55z"/>
		<path class="st12" d="M-2434.62-2074.44c18.63,32.6,32.02,56.95,46.31,80.76c12.43,20.72,16.74,41.1,7.37,64.87
			c-6.86,17.42-7.75,37.17-14.34,54.74c-4.11,10.97,4.78,31.18-11.68,31.88c-17.32,0.74-17.32-20.75-19.17-32.61
			C-2436.02-1938.08-2438.84-2001.89-2434.62-2074.44z"/>
		<path class="st12" d="M-4723.16-443.41c1.08,1.99,2.16,3.98,3.24,5.97c-3.11,0.15-6.22,0.31-9.34,0.48
			C-4727.23-439.1-4725.2-441.26-4723.16-443.41z"/>
	</g>
</g>
<g id="Calque_2" class="st14">
	<path class="st15" d="M1469.21,3941.53c-61.27,0.01-111.75-50.5-111.75-111.81c0.01-61.36,50.34-111.66,111.73-111.66
		c61.49,0.01,111.75,50.22,111.73,111.64C1580.91,3891.04,1530.48,3941.52,1469.21,3941.53z"/>
</g>
</svg>
