<?xml version="1.0" encoding="utf-8"?>
<!-- Generator: Adobe Illustrator 23.1.0, SVG Export Plug-In . SVG Version: 6.00 Build 0)  -->
<svg version="1.1" id="Calque_1" xmlns="http://www.w3.org/2000/svg" xmlns:xlink="http://www.w3.org/1999/xlink" x="0px" y="0px"
	 viewBox="0 0 4500 4500" style="enable-background:new 0 0 4500 4500;" xml:space="preserve">
<style type="text/css">
	.st0{fill:#176561;}
</style>
<g>
	<path class="st0" d="M4338.44,2477.49c-31.3,45.92-25.7,101.67-40.22,152.16c-113.4,394.32-358.23,678.25-724.05,858.17
		c-59.17,29.1-95.93,64.69-123.76,125.75c-226.26,496.5-611.66,780.8-1158.44,801.89c-527.83,20.36-1012.29-268.48-1245.45-775.62
		c-28.62-62.25-65.42-96.64-126.56-121.86c-436.85-180.15-710.42-502.73-805.96-964.67C-11.92,1944.34,344.93,1305.32,925.9,1080.47
		c42.92-16.61,80.59-31.17,102.04-81.39c188.26-440.88,523.55-702.52,989.24-803.43c21.2-4.59,50.82,4.64,63.42-24.73
		c32.49,0,64.97,0,97.46,0c48.73,25,97.46,26.19,146.19,0c21.66,0,43.32,0,64.97,0c6.65,21.79,25.66,14.31,40.27,16.8
		c489.43,83.47,828.95,358.75,1027.52,809.7c24.86,56.46,56.7,90.56,111.56,116.55c360.86,170.94,606.23,442.08,715.18,831.44
		c22.19,79.29,19.79,163.69,54.68,239.7c0,27.07,0,54.15,0,81.22c-24.03,43.32-24.48,86.63,0,129.95
		C4338.44,2423.35,4338.44,2450.42,4338.44,2477.49z M4087.98,1754.48c-117.09-241.04-304.47-408.18-550.62-536.86
		c2.86,31.46,3.16,44.79,5.4,57.8c60.81,353.16,1.12,682.99-194.45,984.98c-26.23,40.5-5.36,63.57,12.95,93.39
		c153.07,249.22,225.88,518.49,199.93,811.78c-6.06,68.43-14.39,136.66-21.56,203.9c25.16,5.94,38.54-4.38,52.46-12.34
		c367.79-210.52,584.29-524.24,628.79-946.78c23.24-220.72-12.95-434.87-126.86-630.67
		C4092,1771.28,4089.99,1762.88,4087.98,1754.48z M3329.02,1018.11c3.4,2.7,6.8,5.4,10.21,8.09c0.83-6.22,1.66-12.43,2.49-18.65
		C2975.22,194.01,1951.8,43.79,1360.98,677.04c-87.75,94.06-170.42,194-205.68,322.77c-2.3,0.81-4.81,1.33-6.76,2.65
		c-0.51,0.34,0.72,4.72,1.11,4.72c7.26-0.11,8.53-3.18,3.83-8.73c18.07,12.12,37.03,4.08,55.01,1.05
		c345.57-58.21,673.22-12.64,975.56,171.57c37.01,22.55,59.65,5.89,87.23-10.01c188.02-108.35,388.74-170.82,606.97-182.09
		C3031.13,971.08,3179.54,996.46,3329.02,1018.11z M2206.65,3255.79c15.71-13.3,32.85-26.46,48.46-41.24
		c129.85-122.95,227.97-267.21,281.74-438.25c20.07-63.85,56.78-97.43,120.18-115.97c185.84-54.35,339.33-161.73,475.27-297.83
		c44.73-44.78,51.3-74.77,1.61-123.55c-129.35-126.99-273.39-228.74-446.34-285.07c-62.14-20.24-99.59-54.81-118.21-119.11
		c-52.38-180.94-156.97-329.48-292.49-458.85c-41.23-39.36-68.41-43.74-112.76-2.45c-145.61,135.56-253.96,293.65-310.78,484.91
		c-15.04,50.64-41.66,81.82-92.92,101.6c-161.22,62.2-297.87,161.37-416.02,287.74c-34.38,36.78-39.23,61.84-2.2,100.04
		c114.08,117.71,239.5,219.34,393.53,278.67c61.1,23.54,95.7,58.79,114.08,122.52c52.9,183.5,157.37,336.23,296.49,465.68
		C2163.43,3230.54,2178.64,3250.91,2206.65,3255.79z M954.4,3413.69c1.79-9.83,4.49-15.44,3.44-20.23
		c-82.86-376.63-28.33-730.03,181.77-1055.64c25.81-40,7.3-63.15-11.58-93.58c-121.9-196.43-191.13-409.15-204.54-641.14
		c-7.98-137.94,9.4-272.96,33.89-410.4c-397.17,123.22-743.88,607.81-760.76,1056.58C177.58,2755.02,486.05,3231.5,954.4,3413.69z
		 M3340.16,3585.75c-5.15-1.33-10.45-4.18-15.43-3.69c-13.39,1.31-26.81,3.35-39.93,6.32c-366.99,83.01-714.47,35.62-1037.24-161
		c-41.92-25.53-66.25-13.39-100,6.94c-253.61,152.76-527.64,216.11-822.78,183.62c-55.61-6.12-111.15-12.94-169.47-19.76
		c178.26,428.81,613.33,699.73,1096.7,710.75C2711.63,4319.4,3199.65,3989.92,3340.16,3585.75z M3254.31,2389.77
		c-158.8,180.36-343.3,303.21-560.29,375.64c-32.54,10.86-48.14,31.77-58.23,61.07c-60.05,174.35-155.74,326.44-291.26,451.36
		c-45.66,42.09-39.92,61.97,12.36,89.55c317.47,167.48,647.69,191.08,989.86,93.81c35.75-10.16,58.16-26.11,68.78-67.89
		C3505.51,3039.05,3453.65,2708.55,3254.31,2389.77z M2316.42,1261.37c84.35,82.37,161.23,158.29,220.67,249.73
		c59.26,91.15,105.71,188.21,138.38,291.66c8.47,26.82,25.67,38.2,50.13,46.9c189.29,67.28,353.87,173.04,490.47,320.72
		c25.73,27.82,41.15,36.22,64.21-3.82c174.07-302.24,223.98-621.11,135.12-960.26c-8.54-32.58-24.82-51.27-56.98-60.57
		C2999.22,1041.81,2654.46,1066.38,2316.42,1261.37z M2116.01,1269.23c-6.37-8.95-8.5-14.94-12.7-17.41
		c-307.98-180.93-635.44-207.1-976.98-123.19c-35.14,8.63-44.6,33.97-52.69,64.02c-91.71,340.95-43.55,662.53,130.28,967.99
		c23.13,40.65,38.63,41.13,68.63,7.22c116.27-131.45,257.25-229.09,418.47-297.95c24.82-10.6,50.62-20.87,59.61-50.36
		C1817.67,1599.61,1944.54,1418.71,2116.01,1269.23z M2100.73,3334.2c-5.66-9.98-8.07-18.45-13.62-23.39
		c-161.23-143.4-275.66-317.46-341.07-523.02c-10.05-31.58-28.51-49.93-57.6-62.08c-157.11-65.62-293.85-161.28-406.96-288.05
		c-39.34-44.09-55.25-38.56-82.43,10.22c-134.14,240.68-203.8,495.7-158.69,770.65c48.91,298.11,6.6,252.6,277.14,289.64
		C1596.53,3546.37,1859.66,3487.02,2100.73,3334.2z"/>
	<path class="st0" d="M2324.25,170.92c-48.73,26.19-97.46,25-146.19,0C2226.79,170.92,2275.52,170.92,2324.25,170.92z"/>
	<path class="st0" d="M4338.44,2396.27c-24.48-43.32-24.03-86.63,0-129.95C4338.44,2309.64,4338.44,2352.96,4338.44,2396.27z"/>
	<path class="st0" d="M1153.48,998.44c4.7,5.56,3.43,8.62-3.83,8.73c-0.39,0.01-1.62-4.37-1.11-4.72c1.96-1.32,4.46-1.83,6.76-2.65
		C1155.3,999.81,1153.48,998.44,1153.48,998.44z"/>
	<path class="st0" d="M3341.71,1007.55c-0.83,6.22-1.66,12.43-2.49,18.65c-3.4-2.7-6.8-5.39-10.21-8.09
		C3333.25,1014.59,3337.48,1011.07,3341.71,1007.55z"/>
	<path class="st0" d="M4087.98,1754.48c2.01,8.4,4.02,16.79,6.03,25.19c0,0,1.54-1.48,1.54-1.48c-13.29,5.22-15.94-4.25-18.69-13.56
		C4080.28,1760.94,4083.99,1757.56,4087.98,1754.48z"/>
	<path class="st0" d="M781.23,2364.49c-8.91,168.44-126.38,332.72-314.16,454.56c-32.69,21.21-63.47,20.05-85.12-11.16
		c-21.05-30.34-2.77-56.36,22.3-76.55c29.42-23.7,60.65-45.26,88.99-70.15c245.83-215.89,238.64-544.49-16.16-749.73
		c-18.89-15.22-39.23-28.7-59.32-42.37c-31.39-21.36-43.89-50.02-23.16-83.11c23.5-37.49,54.57-22.19,84.64-5.54
		C661.75,1881.49,781.76,2088.52,781.23,2364.49z"/>
	<path class="st0" d="M2243.85,862.94c-225.03-8.11-391.16-128.36-516.43-316.34c-20.93-31.4-19.06-62.8,11.77-85.24
		c36.41-26.51,61.74,1.02,80.57,27.1c47.74,66.11,99.58,127.62,166.69,175.07c205.22,145.11,459.8,110.93,631.62-85.66
		c23.03-26.35,43.37-55.1,64.38-83.17c22.06-29.47,49.71-45.96,82.49-21.4c33.64,25.2,20.4,59.26,2.6,87.04
		c-76.13,118.85-176.09,210.2-309.5,262.02C2391.85,848.07,2323.31,860.18,2243.85,862.94z"/>
	<path class="st0" d="M2788.74,4103.51c-6.6,24.31-11.11,46.09-32.11,57.65c-23.23,12.78-42.7,1.16-58.24-14.24
		c-15.15-15.03-26.91-33.52-39.84-50.73c-233.11-310.26-589.97-309.86-820.1,0.99c-4.82,6.51-10.08,12.78-14.09,19.77
		c-20.72,36.09-51.02,52.28-86.89,27.25c-33.66-23.48-22.8-57.44-3.88-86.43c108.64-166.48,254.35-278.44,457.63-297.45
		c256.72-24.01,438.05,100.62,577.38,302.67C2777.57,4075.99,2782.89,4091.52,2788.74,4103.51z"/>
	<path class="st0" d="M4076.86,1764.64c2.75,9.31,5.4,18.78,18.69,13.56c3,48.59-22.16,78.45-61.01,104.84
		c-112.79,76.61-197.73,176.71-230.02,311.83c-49.11,205.47,35.05,362.56,188.47,491.65c14.4,12.12,29.62,23.75,45.92,33.05
		c35.03,19.99,55.73,48.09,34.41,86.11c-23.68,42.24-60.06,27.5-90.72,6.97c-131.46-88.01-233.35-200.31-277.5-355.91
		c-74.48-262.52,50.73-549.98,293.86-682.59C4025.19,1759.83,4049.98,1760.23,4076.86,1764.64z"/>
</g>
</svg>
