<?xml version="1.0" encoding="utf-8"?>
<!-- Generator: Adobe Illustrator 23.1.0, SVG Export Plug-In . SVG Version: 6.00 Build 0)  -->
<svg version="1.1" xmlns="http://www.w3.org/2000/svg" xmlns:xlink="http://www.w3.org/1999/xlink" x="0px" y="0px"
	 viewBox="0 0 4500 4500" style="enable-background:new 0 0 4500 4500;" xml:space="preserve">
<style type="text/css">
	.st0{fill:#302F42;}
	.st1{fill:#F1F1F1;}
	.st2{fill:#176561;}
	.st3{fill:#FCB7B7;}
	.st4{fill:#3F3D56;}
	.st5{fill:#333144;}
	.st6{fill:#FEFEFE;}
	.st7{fill:#D3D3D3;}
	.st8{fill:#CCCCCC;}
	.st9{display:none;}
	.st10{display:inline;fill:#176561;}
</style>
<g id="Calque_1">
	<g>
		<path class="st0" d="M1138.72,3211.29c0.02-785.55-0.12-1571.1,0.25-2356.64c0.05-111.43,43.09-202.01,138.05-264.05
			c46.64-30.47,98.17-46.91,154.59-46.88c366.9,0.14,733.8,0.04,1100.7,0.09c135.72,0.02,265.19,115.02,283.28,249.84
			c2.95,22.02,3.86,43.76,3.88,65.72c0.1,156.04,0.03,312.09,0.12,468.13c0.01,10.77-3.77,23.17,13.32,26.61
			c7.09,1.43,4.83,10.26,4.83,16.03c0.11,109.61,0.1,219.22,0.05,328.83c0,8.18,1.74,17.36-10.61,19.07
			c-6.81,0.94-7.51,6.6-7.57,12.17c-0.08,6.85-0.08,13.7-0.08,20.55c0,628.74-0.52,1257.49,0.39,1886.23
			c0.21,141.89-86.81,263.59-225.1,299.92c-5.11,1.34-10.85,0.68-12.63,7.36c-6.05,0.33-12.11,0.96-18.16,0.96
			c-371.69-0.05-743.38-0.18-1115.07-0.17c-28.84,0-57.67,1.02-86.51,1.57c-2.03-2.21-4.66-4.24-2.14-7.71
			c-37.51-15.51-75.15-30.76-107.42-56.26c-7.79-7.03-16.01-13.64-23.31-21.15c-60.45-62.22-90.07-137.48-90.61-223.55
			C1138.06,3495.74,1138.72,3353.51,1138.72,3211.29z M2755.64,2245.76c0-455.24-0.02-910.47,0.05-1365.71
			c0-25.05-0.92-49.89-4.41-74.84c-11.15-79.71-78.17-154.47-156.7-175.06c-59.31-15.55-119.52-5.68-179.25-8.8
			c-13.44-0.7-19.26,0.12-16.92,18.28c10.96,85.03-46.81,126.6-103.01,127.11c-206.29,1.86-412.61,1.23-618.91,0.47
			c-70.09-0.26-119.18-59.76-106.62-128.44c3.21-17.56-3.69-17.52-15.88-17.43c-29.69,0.23-59.41,0.92-89.06-0.1
			c-63.34-2.19-119.52,14.52-167.69,57.28c-43.64,38.74-71.24,86.54-71.29,144.4c-0.8,947.77-0.59,1895.54-0.46,2843.32
			c0,32.63,10.37,62.76,27.17,90.43c47.3,77.94,118.96,112.05,207.9,112.14c353.23,0.36,706.46,0.27,1059.7-0.16
			c21-0.03,42.42-2.66,62.93-7.27c103.21-23.16,172.17-113.29,172.27-220.23C2755.88,3176.02,2755.64,2710.89,2755.64,2245.76z"/>
		<path class="st1" d="M1138.72,3211.29c0,142.22-0.67,284.45,0.24,426.66c0.55,86.07,30.16,161.34,90.61,223.55
			c7.3,7.51,15.52,14.12,23.31,21.15c-10.76,23.16-34.03,36.07-47.03,57.39c-1.27,2.14-2.55,4.28-3.82,6.42
			c-40.94-0.74-81.87-1.48-122.81-2.22c0.35-7.33-3.27-9.55-10.37-11.8c-104.34-33.22-193.71-92.09-277.44-161.19
			c-30.65-25.3-56.97-54.7-85.63-81.84c-3.63-3.43-9.81-6.67-7.66-12.75c2.31-6.56,9.24-2.98,14.07-4.19
			c27.64-6.95,56.84-5.66,90.04-16.42c-44.28-7.39-82.73-13.51-121.05-20.35c-12.63-2.25-23.51-6.55-32.09-18.7
			c-62.56-88.66-107.04-186.35-145.88-286.98c-15.01-38.89-28.97-78.12-39.43-121.3c38.35,4.59,74.04,15.04,109.49,26.46
			c7.94,2.56,6.79,10.78,9.12,17.03c3.88,10.43,3.01,22.47,10.55,32.06c0.87-1.43,2.03-2.44,2.02-3.45
			c-0.18-45.22-2.35-42.41,40.62-27.88c35.19,11.9,69.88,25.28,104.83,37.91c14.44,5.22,23.44,13.51,26.58,30.16
			c5.24,27.83,13.53,55.08,22.76,82.27c-1.51-24.01,7.76-46.66,6.31-70.14c-0.86-13.96,2.81-17.55,16.74-11.14
			c37.88,17.44,38.41,16.94,38.07-25.67c-0.79-100.51,16.68-198.67,37.7-296.37c3.33-15.5,8.89-30.53,11.97-46.06
			c2.18-10.95,5.46-14.01,14.03-5.48c22.66,22.54,45.16,45.24,67.82,67.79c5.7,5.68,5.5,11.5,2.75,18.7
			c-4.26,11.16-7.37,22.75-11.26,35.07c8.85,1.27,9.26-5.39,11.8-8.99c15.83-22.5,17.03-23.19,35.42-1.26
			c27.22,32.47,53.24,65.95,79.81,98.97c7.59,9.44,9.17,18.67,5.36,31.13c-7.42,24.25-17.44,47.99-21.07,76.83
			c17.15-10.78,23.93-26.17,33.44-38.97C1124.1,3220.33,1127.85,3211.7,1138.72,3211.29z"/>
		<path class="st0" d="M3499.67,3105.91c4.95,106.61,28.57,210.66,43.91,315.83c18.75,128.6,39.97,256.84,60.43,385.19
			c2.47,15.47-3.49,24.82-17.21,30.46c-19.99,3.27-39.98,6.54-59.97,9.81c-18.66,1.5-26.52-8.8-31.57-25.57
			c-34.32-113.95-69.31-227.69-104.2-341.46c-1.31-4.27,0.45-11.74-3.92-10.98c0,116.39-0.08,231.88,0.11,347.38
			c0.02,14.04,0.93,27.82-14.92,34.76c-20.07,1.93-40.13,3.86-60.2,5.79c-20.24,1.38-27.67-10.05-30.92-28.31
			c-40.49-227.05-81.53-453.99-121.79-681.08c-3.2-18.05-6.16-37.18,2.52-55.2c33.23,35.61,72.28,53.53,121.93,41.5
			c41.74-10.12,78.88-30.84,117.18-49.04C3445.91,3063.65,3476.06,3070.36,3499.67,3105.91z"/>
		<path class="st2" d="M3223.09,2863.41c5.61-24.11,11.22-48.22,16.83-72.34c13.24-29.67,10.61-61.42,12.14-92.62
			c4.53-59.68,6.44-119.6,23.88-177.68c15.96-53.14,31.66-67.46,87.11-73.08c80.13-8.13,145.5,20.72,198.3,80.15
			c8.11,9.13,12.83,20.48,16.82,32.03c18.03,52.14,22.87,106.41,27.3,160.33c-7.54,4-12.47-3.22-18.56-1.67
			c-39.08-11.04-66.45-1.98-91.27,29.42c-3.07,3.88-8.67,5.94-13.38,8.3c-57.58,28.88-115.19,57.69-172.85,86.4
			c-6.54,3.26-12.31,7.39-21.16,4.48c-22.53-7.39-41.61-0.21-57.24,17.08C3228.37,2863.94,3225.73,2863.68,3223.09,2863.41z"/>
		<path class="st2" d="M3223.09,2863.41c2.64,0.27,5.28,0.53,7.92,0.8c-11.93,33.73-5.91,56.55,18.3,69.36
			c24.16,12.79,48.29,4.55,66.41-24.38c4.33-6.92,9.86-8.79,16.12-10.86c61.97-20.48,123.98-40.83,185.98-61.21
			c-5.13,73.79-10.29,147.58-15.37,221.37c-1.09,15.8-1.86,31.62-2.77,47.43c-23.61-35.56-53.77-42.26-98.62-20.94
			c-38.3,18.21-75.44,38.92-117.18,49.04c-49.64,12.04-88.7-5.88-121.93-41.5C3182.32,3016.15,3202.7,2939.78,3223.09,2863.41z"/>
		<path class="st3" d="M3517.81,2837.11c-62,20.39-124.01,40.74-185.98,61.21c-6.25,2.07-11.79,3.95-16.12,10.86
			c-18.13,28.93-42.25,37.17-66.41,24.38c-24.2-12.81-30.23-35.64-18.3-69.36c15.63-17.3,34.71-24.48,57.24-17.08
			c8.84,2.9,14.62-1.23,21.16-4.48c57.66-28.71,115.27-57.53,172.85-86.4c4.7-2.36,10.31-4.42,13.38-8.3
			c24.82-31.4,52.19-40.46,91.27-29.42c0.12,25.86-0.43,51.75,0.65,77.57c0.58,13.9-4.39,20.7-17.77,24.22
			C3552.2,2824.93,3535.11,2831.42,3517.81,2837.11z"/>
		<path class="st3" d="M3495.09,2328.77c-13.95,55.01-63.57,88.95-121.31,82.98c-52.54-5.43-97.04-54.93-97.38-108.64
			c-0.07-11.35,0.8-22.7,1.23-34.05c10.15-20.54,21.6-39.82,49.39-34.1c33.02,6.8,66.16,9.08,99.55,4.38
			c13-1.83,18.81,0.6,19.71,15.66c1.59,26.64,6.06,53.11,9.97,84.92C3469.14,2323.69,3482.52,2328.98,3495.09,2328.77z"/>
		<path class="st4" d="M1079.22,3944.26c40.94,0.74,81.87,1.48,122.82,2.22c2.14-0.05,4.28-0.1,6.41-0.15
			c49.42-2.67,98.83-2.66,148.25,0c1.92,0.1,3.83,0.21,5.75,0.32c28.84-0.55,57.67-1.57,86.51-1.57
			c371.69-0.02,743.38,0.12,1115.07,0.17c6.05,0,12.11-0.63,18.16-0.96c186.25,0.14,372.5,0.28,558.74,0.45
			c22.04,0.02,44.08,0.23,66.13,0.35c0.28,3.29,0.57,6.58,0.85,9.88c-8.35,0.28-16.71,0.79-25.06,0.79
			c-863.25,0.04-1726.5,0.05-2589.76-0.1c-9.86,0-20.64,2.81-29.59-3.19c0.11-2.73,0.22-5.46,0.34-8.19
			C735.63,3944.26,907.42,3944.26,1079.22,3944.26z"/>
		<path class="st5" d="M3495.09,2328.77c-12.56,0.21-25.95-5.08-38.83,11.15c-3.91-31.81-8.38-58.28-9.97-84.92
			c-0.9-15.05-6.72-17.49-19.71-15.66c-33.39,4.7-66.53,2.42-99.55-4.38c-27.79-5.72-39.24,13.56-49.39,34.1
			c-6.74-72.35,5.23-90.51,75.78-114.9c57.81-19.99,81.58-7.78,121,38.99C3511.11,2236.71,3509.85,2280.31,3495.09,2328.77z"/>
		<path class="st3" d="M3252.06,2698.45c-1.53,31.2,1.1,62.95-12.14,92.62c-51.95,13.66-103.8,27.75-155.95,40.66
			c-11.64,2.88-17.58,10.28-24.46,18.45c-15.75,18.7-35.7,23.95-54.79,14.63c-19.52-9.53-31.23-25.8-28.74-47.36
			c2.55-22,15.89-37.38,39.09-41.74c3.66-0.69,8.27-2.67,10.96-1.25c26.87,14.2,48.26-3.37,70.52-12.46
			c46.31-18.91,91.97-39.41,138-59C3240.04,2700.67,3246.21,2699.93,3252.06,2698.45z"/>
		<path class="st5" d="M3207.91,3954.94c-0.28-3.29-0.56-6.58-0.85-9.88c18.89-49.61,34.29-60.19,87.91-60.59
			c6.02-0.05,12.04-0.73,18.06-1.12c19.78,2.66,39.57,2.7,59.35-0.06c10.66,0.84,12.9,7.05,12.68,16.9
			c-0.34,15,0.96,30.04,1.57,45.06c-0.24,3.23-0.48,6.45-0.72,9.68C3326.57,3954.93,3267.24,3954.94,3207.91,3954.94z"/>
		<path class="st5" d="M3587.43,3868.13c7.83-0.09,14.43,0.25,14.28,11.39c-0.13,9.61,1.58,19.34,3.27,28.88
			c3.25,18.35,2.46,32.78-22.64,29.68c-6.07-0.75-7.61,3.14-3.53,8.17c-27.8,0.12-55.6,0.11-83.39,0.47
			c-7,0.09-15.81-2.69-18.16,8.19c-15.17,0-30.35,0.01-45.52,0.01c-0.34-3.35-0.67-6.7-1.01-10.05
			c9.83-46.69,28.54-63.35,75.13-67.33c7.53-0.64,14.95-2.46,22.43-3.73C3548.23,3874.34,3567.85,3871.5,3587.43,3868.13z"/>
		<path class="st4" d="M3477.25,3954.91c2.35-10.88,11.17-8.1,18.16-8.19c27.79-0.35,55.59-0.34,83.39-0.47
			c91.83-3.19,183.67-1.36,275.51-0.84c2.85,0.02,5.68,1.57,8.43,2.38c-0.77,8.14-6.54,7.92-11.82,7.91
			C3726.37,3955.47,3601.81,3955.18,3477.25,3954.91z"/>
		<path class="st3" d="M3372.38,3883.29c-19.78,2.76-39.56,2.72-59.35,0.06c-0.29-8.75-0.59-17.49-0.89-26.24
			c20.06-1.93,40.13-3.86,60.2-5.79C3372.35,3861.98,3372.36,3872.64,3372.38,3883.29z"/>
		<path class="st3" d="M3587.43,3868.13c-19.57,3.37-39.2,6.21-59.16,5.68c-0.49-8.87-0.97-17.74-1.45-26.61
			c19.99-3.27,39.98-6.54,59.97-9.81C3587,3847.64,3587.22,3857.88,3587.43,3868.13z"/>
		<path class="st4" d="M3430.72,3944.87c0.34,3.35,0.67,6.7,1.01,10.05c-15.28,0-30.56,0.01-45.84,0.01
			c0.24-3.23,0.48-6.45,0.72-9.68C3401.32,3945.12,3416.02,3945,3430.72,3944.87z"/>
		<path class="st6" d="M2755.64,2245.76c0,465.13,0.24,930.26-0.18,1395.39c-0.1,106.95-69.06,197.07-172.27,220.23
			c-20.51,4.6-41.93,7.24-62.93,7.27c-353.23,0.43-706.46,0.52-1059.7,0.16c-88.94-0.09-160.6-34.2-207.9-112.14
			c-16.8-27.68-27.17-57.8-27.17-90.43c-0.13-947.77-0.34-1895.54,0.46-2843.32c0.05-57.86,27.64-105.67,71.29-144.4
			c48.17-42.76,104.36-59.47,167.69-57.28c29.65,1.03,59.37,0.33,89.06,0.1c12.19-0.09,19.09-0.13,15.88,17.43
			c-12.56,68.69,36.54,128.19,106.62,128.44c206.3,0.76,412.62,1.39,618.91-0.47c56.19-0.51,113.97-42.08,103.01-127.11
			c-2.34-18.16,3.48-18.98,16.92-18.28c59.73,3.12,119.94-6.75,179.25,8.8c78.53,20.59,145.56,95.35,156.7,175.06
			c3.49,24.95,4.41,49.79,4.41,74.84C2755.62,1335.29,2755.64,1790.52,2755.64,2245.76z M2285.18,3107.93
			c-50.13,0-100.26,0.29-150.38-0.14c-19.61-0.17-29.91,7.28-29.6,28.02c0.49,32.65,0.3,65.32,0.09,97.97
			c-0.12,18.03,8.75,26.66,26.4,26.67c101.02,0.04,202.03,0.01,303.05,0.03c18.82,0,27.8-9.33,27.69-28.14
			c-0.19-31.14,0.18-62.28-0.11-93.42c-0.23-24.53-6.51-30.79-31.3-30.92C2382.39,3107.76,2333.78,3107.93,2285.18,3107.93z
			 M1988.27,2087.64c104.29,0,208.59,0.03,312.88-0.02c30.78-0.01,38.53-7.8,38.55-39.45c0.07-206.3,0.06-412.6,0.01-618.89
			c-0.01-33.11-7.37-40.5-39.75-40.5c-200.97-0.02-401.94-0.01-602.92-0.01c-58.01,0-60.01,1.95-60.01,59.64
			c-0.02,193.36-0.03,386.71,0.08,580.07c0.01,9.06,0.51,18.25,2.11,27.14c5.34,29.73,8.18,31.98,38.46,32
			C1781.21,2087.67,1884.74,2087.64,1988.27,2087.64z M2455.96,2907.51c0-1.51,0-3.01,0-4.52c-330.08,0-660.16,0-990.23,0
			c0,1.51,0,3.01,0,4.52C1795.81,2907.51,2125.89,2907.51,2455.96,2907.51z M2455.96,2592.33c0-1.5,0-3.01,0-4.51
			c-330.08,0-660.15,0-990.23,0c0,1.5,0,3.01,0,4.51C1795.81,2592.33,2125.88,2592.33,2455.96,2592.33z M1627.25,2495.64
			c-0.12-17.35-14.9-32.15-32.27-31.02c-18.46,1.21-29.21,11.98-30.7,30.28c-1.4,17.16,13.54,31.82,31.09,31.99
			C1613.18,2527.07,1627.37,2513.15,1627.25,2495.64z M1595.54,2842.09c17.86,0.09,31.93-13.85,31.71-31.41
			c-0.22-17.36-15.06-32.05-32.43-30.83c-18.48,1.29-29.14,12.15-30.54,30.44C1562.94,2827.49,1577.93,2842,1595.54,2842.09z
			 M1729.9,2496.63c0.44-17.4-13.8-32.86-31.07-32.05c-18.07,0.86-29.69,10.37-31.2,29.28c-1.44,18.07,11.59,32.21,29.52,32.9
			C1715.09,2527.45,1729.46,2514.22,1729.9,2496.63z M1524.22,2496.47c0.33-17.45-13.94-32.83-31.19-31.9
			c-18.07,0.97-29.62,10.58-31.05,29.47c-1.36,17.97,11.84,32.14,29.72,32.74C1509.61,2527.38,1523.89,2514.08,1524.22,2496.47z
			 M1697.84,2779.68c-17.56,0.48-31.03,14.98-30.35,32.66c0.69,17.9,14.8,30.85,32.94,29.51c18.93-1.39,28.5-12.85,29.28-31.02
			C1730.44,2793.4,1715.19,2779.2,1697.84,2779.68z M1493.14,2842.03c17.89-0.13,31.9-14.06,30.86-31.78
			c-1.09-18.6-11.86-29.04-30.2-30.37c-17.5-1.27-31.85,13.18-32.01,30.82C1461.65,2828.67,1475.14,2842.16,1493.14,2842.03z"/>
		<path class="st6" d="M1356.69,3946.32c-49.42-2.66-98.83-2.66-148.25,0c-0.87-2.09-1.73-4.18-2.59-6.27
			c13-21.32,36.27-34.23,47.03-57.39c32.27,25.5,69.91,40.75,107.42,56.26C1359.1,3941.38,1357.9,3943.85,1356.69,3946.32z"/>
		<path class="st5" d="M1356.69,3946.32c1.2-2.47,2.4-4.93,3.61-7.4c-2.51,3.47,0.12,5.51,2.14,7.71
			C1360.53,3946.53,1358.61,3946.42,1356.69,3946.32z"/>
		<path class="st5" d="M1205.85,3940.05c0.86,2.09,1.72,4.18,2.59,6.27c-2.13,0.05-4.27,0.1-6.41,0.15
			C1203.31,3944.33,1204.58,3942.19,1205.85,3940.05z"/>
		<path class="st2" d="M2285.18,3107.93c48.61,0,97.22-0.17,145.83,0.08c24.79,0.12,31.08,6.39,31.3,30.92
			c0.29,31.14-0.07,62.28,0.11,93.42c0.11,18.81-8.87,28.15-27.69,28.14c-101.02-0.02-202.03,0.01-303.05-0.03
			c-17.65-0.01-26.52-8.63-26.4-26.67c0.22-32.66,0.41-65.32-0.09-97.97c-0.31-20.74,9.99-28.19,29.6-28.02
			C2184.92,3108.21,2235.05,3107.93,2285.18,3107.93z"/>
		<path class="st7" d="M1988.27,2087.64c-103.53,0-207.06,0.04-310.59-0.02c-30.29-0.02-33.13-2.26-38.46-32
			c-1.6-8.89-2.1-18.08-2.11-27.14c-0.11-193.36-0.1-386.71-0.08-580.07c0.01-57.69,2.01-59.64,60.01-59.64
			c200.97,0,401.94-0.01,602.92,0.01c32.38,0,39.74,7.39,39.75,40.5c0.05,206.3,0.06,412.6-0.01,618.89
			c-0.01,31.65-7.76,39.44-38.55,39.45C2196.85,2087.66,2092.56,2087.64,1988.27,2087.64z M2326.48,1738.13
			c0-102.69,0.01-205.37-0.01-308.06c-0.01-30.66-1.23-31.95-32.27-31.95c-203.86-0.04-407.71-0.04-611.57,0
			c-29.88,0.01-32.37,2.55-32.38,32.83c-0.03,204.61-0.03,409.23,0,613.84c0,29.06,3.94,33.4,32.47,33.42
			c205.38,0.11,410.75-0.09,616.13,0.28c20.06,0.04,28.22-6.27,28.03-27.73C2325.98,1946.55,2326.47,1842.34,2326.48,1738.13z"/>
		<ellipse class="st8" cx="1960.85" cy="2905.25" rx="700.19" ry="3.19"/>
		<ellipse class="st8" cx="1960.85" cy="2590.08" rx="700.19" ry="3.19"/>
		<path class="st2" d="M1627.25,2495.64c0.12,17.52-14.07,31.43-31.88,31.26c-17.55-0.17-32.5-14.83-31.09-31.99
			c1.5-18.31,12.25-29.08,30.7-30.28C1612.35,2463.48,1627.13,2478.29,1627.25,2495.64z"/>
		<path class="st2" d="M1595.54,2842.09c-17.61-0.09-32.59-14.6-31.27-31.8c1.41-18.29,12.07-29.15,30.54-30.44
			c17.37-1.21,32.22,13.48,32.43,30.83C1627.47,2828.24,1613.4,2842.18,1595.54,2842.09z"/>
		<path class="st2" d="M1729.9,2496.63c-0.44,17.59-14.81,30.82-32.74,30.13c-17.93-0.69-30.96-14.83-29.52-32.9
			c1.5-18.9,13.12-28.42,31.2-29.28C1716.1,2463.77,1730.34,2479.23,1729.9,2496.63z"/>
		<path class="st2" d="M1524.22,2496.47c-0.33,17.61-14.61,30.91-32.53,30.31c-17.88-0.6-31.08-14.77-29.72-32.74
			c1.43-18.89,12.99-28.5,31.05-29.47C1510.28,2463.64,1524.55,2479.01,1524.22,2496.47z"/>
		<path class="st2" d="M1697.84,2779.68c17.36-0.48,32.6,13.72,31.86,31.16c-0.77,18.17-10.34,29.63-29.28,31.02
			c-18.14,1.34-32.25-11.61-32.94-29.51C1666.8,2794.65,1680.27,2780.16,1697.84,2779.68z"/>
		<path class="st2" d="M1493.14,2842.03c-18,0.13-31.49-13.35-31.34-31.33c0.15-17.64,14.51-32.09,32.01-30.82
			c18.33,1.33,29.1,11.77,30.2,30.37C1525.04,2827.96,1511.03,2841.9,1493.14,2842.03z"/>
		<path class="st6" d="M2326.48,1738.13c0,104.21-0.5,208.42,0.41,312.62c0.19,21.46-7.97,27.77-28.03,27.73
			c-205.38-0.37-410.75-0.18-616.13-0.28c-28.53-0.01-32.47-4.35-32.47-33.42c-0.02-204.61-0.03-409.23,0-613.84
			c0-30.28,2.5-32.82,32.38-32.83c203.86-0.03,407.71-0.04,611.57,0c31.05,0.01,32.27,1.29,32.27,31.95
			C2326.49,1532.76,2326.48,1635.45,2326.48,1738.13z M2127.63,1849.89c61.27-0.01,111.7-50.49,111.72-111.83
			c0.01-61.42-50.24-111.63-111.73-111.64c-61.39-0.01-111.72,50.29-111.73,111.66C2015.87,1799.39,2066.35,1849.9,2127.63,1849.89z
			 M1852.83,1626.78c-46.19,0.75-82.19,19.99-102.92,61.93c-21.16,42.82-15.89,85.09,14.52,121.04
			c28.88,34.14,67.01,48.15,112.26,36.28c8.1-2.12,18.96-2.55,21.36-10.46c2.69-8.88-8.67-12.86-14.15-18.45
			c-42.84-43.66-44.59-110.61-4.08-153.81c6.97-7.43,22.29-13.79,18.56-23.12c-4.19-10.47-20.57-9.97-31.96-13.23
			C1862.22,1625.77,1857.38,1626.78,1852.83,1626.78z M1989.89,1850.2c10.31,1.19,19.7-2.23,29.3-4.42
			c8.16-1.87,19.02-2.84,20.8-11.16c1.51-7.06-8.82-11.13-14.31-16.16c-47.7-43.77-45.44-123.27,4.73-165.28
			c4.02-3.37,10.85-5.97,9.97-11.38c-1.06-6.54-8.79-8.01-14.4-9.67c-46.7-13.76-87.75-3.45-119.63,33.24
			c-29.85,34.35-36.34,74.46-18.16,116.78C1907.23,1826.49,1943.21,1846.77,1989.89,1850.2z"/>
		<path class="st2" d="M2127.63,1849.89c-61.27,0.01-111.76-50.5-111.75-111.81c0.01-61.36,50.34-111.66,111.73-111.66
			c61.49,0.01,111.75,50.22,111.73,111.64C2239.33,1799.4,2188.9,1849.88,2127.63,1849.89z"/>
		<path class="st8" d="M1852.83,1626.78c4.55,0,9.39-1.01,13.59,0.19c11.39,3.26,27.77,2.76,31.96,13.23
			c3.73,9.32-11.59,15.69-18.56,23.12c-40.5,43.2-38.76,110.14,4.08,153.81c5.48,5.59,16.85,9.57,14.15,18.45
			c-2.4,7.91-13.27,8.34-21.36,10.46c-45.26,11.87-83.38-2.15-112.26-36.28c-30.41-35.94-35.68-78.22-14.52-121.04
			C1770.64,1646.77,1806.65,1627.53,1852.83,1626.78z"/>
		<path class="st8" d="M1989.89,1850.2c-46.67-3.43-82.65-23.7-101.7-68.05c-18.18-42.31-11.68-82.43,18.16-116.78
			c31.88-36.69,72.94-47,119.63-33.24c5.61,1.65,13.34,3.12,14.4,9.67c0.88,5.41-5.95,8.01-9.97,11.38
			c-50.17,42.01-52.43,121.51-4.73,165.28c5.49,5.04,15.82,9.1,14.31,16.16c-1.78,8.33-12.64,9.3-20.8,11.16
			C2009.59,1847.97,2000.19,1851.39,1989.89,1850.2z"/>
	</g>
</g>
<g id="Calque_2" class="st9">
	<path class="st10" d="M1469.21,3941.53c-61.27,0.01-111.75-50.5-111.75-111.81c0.01-61.36,50.34-111.66,111.73-111.66
		c61.49,0.01,111.75,50.22,111.73,111.64C1580.91,3891.04,1530.48,3941.52,1469.21,3941.53z"/>
</g>
</svg>
