<?xml version="1.0" encoding="utf-8"?>
<!-- Generator: Adobe Illustrator 23.1.0, SVG Export Plug-In . SVG Version: 6.00 Build 0)  -->
<svg version="1.1" xmlns="http://www.w3.org/2000/svg" xmlns:xlink="http://www.w3.org/1999/xlink" x="0px" y="0px"
	 viewBox="0 0 4500 4500" style="enable-background:new 0 0 4500 4500;" xml:space="preserve">
<style type="text/css">
	.st0{fill:#176561;}
	.st1{fill:#504E64;}
	.st2{fill:#57566B;}
	.st3{fill:#F1F1F1;}
	.st4{fill:#FDFDFD;}
	.st5{fill:#FAFBFB;}
	.st6{fill:#E5E5E5;}
	.st7{display:none;}
	.st8{display:inline;fill:#176561;}
</style>
<g id="Calque_1">
	<g>
		<path class="st0" d="M918.13,920.94c-4.12-14.47-8.24-28.94-12.36-43.41c-11.82-41.58,0.26-65.47,41.84-78.35
			c136.24-42.19,272.68-83.76,409.04-125.58c14.4-4.42,28.8-8.85,49.53-15.23c-39.14-18.12-67.57-41.94-79.78-79.9
			c-12.52-38.94-6.99-75.72,16.8-108.98c35.03-48.96,100.12-64.22,153.38-36.71c62.41,32.24,77.24,89.43,45.03,183.55
			c41.45-12.34,80.52-23.74,119.44-35.62c103.74-31.67,207.44-63.49,311.11-95.39c72.22-22.22,86.51-14.65,108.63,58.19
			c1.75,5.76,3.42,11.54,5.12,17.3c2.12,5.29,4.24,10.58,6.36,15.88c10.08,37.69,20.04,75.41,35.26,111.47
			c6.12,22.21,12.05,44.48,18.4,66.62c12.84,44.75,0.46,68.73-44.11,82.59c-88.27,27.46-176.66,54.54-265.05,81.63
			c-257.45,78.89-514.92,157.73-772.4,236.53c-49.75,15.22-72.04,3.04-88.21-47.37c-7.04-21.95-14.58-43.74-21.9-65.6
			c-9.99-36.93-17.41-74.68-35.33-109.04C918.66,929.32,918.39,925.13,918.13,920.94z M1517.47,539.93
			c-0.14-42.06-35.66-77.23-77.31-76.56c-42.21,0.68-75.54,35.67-74.81,78.55c0.7,41.33,34.16,74.67,75.29,75.04
			C1482.32,617.33,1517.61,581.94,1517.47,539.93z"/>
		<path class="st0" d="M2905,902.69c73.06,7.21,114.14,39.01,126.81,99.35c10.39,49.5-8.96,88.38-46.28,121.68
			c8.73,7.71,19.07,3.8,28.14,3.82c143.02,0.29,286.04,0.2,429.06,0.21c67.16,0,82.07,14.76,82.31,81.23
			c0.03,9.04,0.62,18.09,0.95,27.13c0.07,4.33,0.14,8.66,0.21,12.99c0.02,36,0.03,72.01,0.05,108.01
			c-0.43,29.2-0.26,58.42-1.45,87.58c-1.5,36.86-22.38,56.9-59.42,58.04c-15.1,0.46-30.23,0.1-45.35,0.1
			c-349.73,0-699.46,0.04-1049.2-0.05c-49.16-0.01-67.12-18.31-67.59-67.35c-0.25-26.17-0.8-52.35-1.22-78.52
			c0.29-35.68,0.59-71.36,0.88-107.04c0.39-5.56,0.78-11.13,1.16-16.69c-0.28-7.02-0.75-14.03-0.8-21.05
			c-0.45-70.82,13.04-84.24,83.89-84.41c117.45-0.27,234.91-0.73,352.36-1.11c33.37,0,66.74,0,102.53,0
			c-36.67-41.2-46.48-59.91-48.49-90.51c-4.17-63.5,24.4-101.83,98.67-132.4C2896.49,903.37,2900.75,903.03,2905,902.69z
			 M2913.13,1098.2c40.89,0.17,73.32-31.19,74.08-71.64c0.77-41.01-33.33-75.19-74.49-74.67c-40.4,0.51-72.31,33.06-72.14,73.57
			C2840.75,1066.45,2872.26,1098.03,2913.13,1098.2z"/>
		<path class="st1" d="M3526.21,1249.09c-0.07-4.33-0.14-8.66-0.21-12.99c187.5,0.08,375,0.12,562.5,0.25
			c79.91,0.06,120.23,40.67,120.23,121.36c0.04,911.27,0.04,1822.54,0,2733.82c0,81.02-39.85,121.12-120.18,121.12
			c-783.27,0.02-1566.55,0.02-2349.82,0c-79.97,0-119.21-38.78-119.35-118.02c-0.14-80.64-0.85-161.3,0.44-241.92
			c0.41-25.76-3.58-33.23-31.47-24.29c-112.02,35.91-224.82,69.36-337.35,103.67c-75.2,22.93-126.66-3.57-149.48-78.08
			c-267.96-874.99-535.82-1750.02-803.54-2625.09c-20.73-67.76,7.05-119.31,75.16-140.34c181.61-56.07,363.33-111.79,545-167.65
			c0.27,4.19,0.53,8.39,0.8,12.58c-177.67,54.68-355.31,109.42-533,164.01c-71.91,22.09-94.74,63.63-72.86,135.18
			C579.99,2105.5,847,2978.27,1114.1,3851.02c20.05,65.52,64.84,89.44,130.11,69.67c91.39-27.67,182.79-55.35,273.87-84.02
			c33.35-10.5,80.1-9.77,96.3-35.25c17.83-28.04,5.21-72.26,3.87-109.44c0.33-11.06,0.96-22.13,0.96-33.19
			c0.05-765.13,0.03-1530.26,0.06-2295.39c0-90.31,36.48-127.05,125.86-127.06c174.4-0.02,348.81,0.05,523.21-0.13
			c11.92-0.01,24.23,2.61,35.73-3.03c-0.39,5.56-0.78,11.13-1.16,16.69c-188.52-0.25-377.04-0.62-565.56-0.7
			c-70.46-0.03-105.08,35.23-105.09,106.39c-0.04,912.37-0.05,1824.73-0.03,2737.1c0,73.2,34.04,107.38,106.91,107.38
			c782.34,0.03,1564.69,0.02,2347.03,0c74.98,0,109.48-34.05,109.49-108.52c0.05-911.36,0.06-1822.72,0-2734.09
			c0-74.14-34.85-108.33-109.91-108.34C3899.23,1249.03,3712.72,1249.08,3526.21,1249.09z"/>
		<path class="st2" d="M2905,902.69c-4.26,0.34-8.51,0.68-12.77,1.02c-44.03-144.13-87.6-288.4-132.31-432.31
			c-16.89-54.35-60.56-80.55-111.56-65.16c-185.61,55.99-370.76,113.51-556.08,170.45c-2.12-5.3-4.24-10.59-6.36-15.88
			c82.26-18.46,161.42-47.5,242.11-71.3c100.08-29.52,199.52-61.19,299.28-91.81c74.79-22.96,125.66,3.87,148.44,78.7
			C2819,618.44,2861.94,760.58,2905,902.69z"/>
		<path class="st3" d="M2304.07,1233.18c-11.51,5.64-23.82,3.01-35.73,3.03c-174.4,0.18-348.8,0.11-523.21,0.13
			c-89.38,0.01-125.86,36.75-125.86,127.06c-0.03,765.13-0.01,1530.26-0.06,2295.39c0,11.06-0.63,22.13-0.97,33.19
			c-3.98,0.56-8.11,0.61-11.91,1.75c-81.7,24.48-163.25,49.48-245.1,73.44c-29.02,8.49-53.3-5.22-61.47-31.96
			c-47.78-156.44-95.59-312.86-143.4-469.29c-60.14-196.75-120.21-393.52-180.44-590.24c-83.15-271.57-166.44-543.09-249.64-814.65
			c-63.52-207.28-127.06-414.56-190.45-621.88c-14.95-48.89-2.34-71.17,46.52-85.65c47.14-13.97,93.95-29.04,141.08-43.06
			c76.88-22.87,153.9-45.28,230.85-67.88c7.31,21.86,14.86,43.65,21.9,65.6c16.17,50.41,38.46,62.6,88.21,47.37
			c257.48-78.8,514.95-157.64,772.4-236.53c88.39-27.08,176.78-54.17,265.05-81.63c44.58-13.87,56.95-37.84,44.11-82.59
			c-6.35-22.14-12.28-44.41-18.4-66.63c4.46-9.15,13.19-11.53,21.94-14.19c115.15-34.99,230.42-69.6,345.35-105.31
			c54.68-16.99,71.5-9.43,88.41,45.78c52.26,170.68,104.21,341.45,156.28,512.18c-117.45,0.38-234.91,0.83-352.36,1.11
			c-70.86,0.17-84.35,13.58-83.89,84.41C2303.32,1219.15,2303.79,1226.16,2304.07,1233.18z"/>
		<path class="st4" d="M954.26,1042.56c-76.96,22.6-153.97,45.01-230.85,67.88c-47.13,14.02-93.94,29.09-141.08,43.06
			c-48.86,14.48-61.47,36.76-46.52,85.65c63.4,207.32,126.94,414.6,190.45,621.88c83.21,271.55,166.49,543.08,249.64,814.65
			c60.23,196.72,120.3,393.49,180.44,590.24c47.81,156.43,95.62,312.85,143.4,469.29c8.17,26.74,32.45,40.46,61.47,31.96
			c81.85-23.96,163.4-48.96,245.1-73.44c3.8-1.14,7.93-1.19,11.91-1.75c1.35,37.18,13.97,81.4-3.86,109.44
			c-16.2,25.48-62.95,24.75-96.3,35.25c-91.08,28.67-182.48,56.35-273.87,84.02c-65.27,19.76-110.06-4.16-130.11-69.67
			C847,2978.27,579.99,2105.5,313.06,1232.71c-21.88-71.55,0.95-113.08,72.86-135.18c177.69-54.59,355.33-109.33,533-164.01
			C936.85,967.87,944.28,1005.63,954.26,1042.56z"/>
		<path class="st4" d="M2739.52,1126.62c-52.07-170.74-104.02-341.51-156.28-512.18c-16.91-55.21-33.73-62.77-88.41-45.78
			c-114.93,35.71-230.2,70.33-345.35,105.31c-8.75,2.66-17.48,5.04-21.94,14.19c-15.22-36.05-25.18-73.78-35.26-111.46
			c185.32-56.94,370.47-114.46,556.08-170.46c51-15.38,94.67,10.81,111.56,65.16c44.71,143.91,88.29,288.18,132.31,432.31
			c-74.27,30.57-102.83,68.9-98.67,132.4c2.01,30.6,11.82,49.31,48.49,90.51C2806.26,1126.62,2772.89,1126.62,2739.52,1126.62z"/>
		<path class="st5" d="M1517.47,539.93c0.14,42.01-35.15,77.4-76.83,77.03c-41.13-0.37-74.59-33.71-75.29-75.04
			c-0.73-42.88,32.6-77.87,74.81-78.55C1481.81,462.7,1517.33,497.87,1517.47,539.93z"/>
		<path class="st6" d="M2302.02,1356.91c0.42,26.17,0.97,52.34,1.22,78.52c0.47,49.04,18.43,67.34,67.59,67.35
			c349.73,0.09,699.46,0.05,1049.2,0.05c15.12,0,30.25,0.36,45.35-0.1c37.04-1.14,57.92-21.18,59.42-58.04
			c1.19-29.17,1.02-58.39,1.45-87.58c129.04,0.03,258.07,0.05,387.11,0.09c55.06,0.02,72.34,17.04,72.34,71.31
			c0.01,802.42,0.01,1604.83,0,2407.25c0,62.28-11.77,74.18-73.55,74.18c-667.36,0.01-1334.71,0.01-2002.07,0
			c-53.21,0-71.86-18.82-71.87-73.11c-0.04-802.42-0.05-1604.83,0-2407.25c0-52.56,20.23-72.3,73.67-72.36
			C2041.94,1357.05,2171.98,1357,2302.02,1356.91z"/>
		<path class="st4" d="M2302.02,1356.91c-130.04,0.09-260.09,0.15-390.13,0.3c-53.44,0.06-73.67,19.81-73.67,72.36
			c-0.05,802.42-0.05,1604.83,0,2407.25c0,54.29,18.66,73.11,71.87,73.11c667.36,0.01,1334.71,0.01,2002.07,0
			c61.78,0,73.55-11.9,73.55-74.18c0-802.42,0-1604.83,0-2407.25c0-54.27-17.28-71.29-72.34-71.31
			c-129.04-0.04-258.07-0.06-387.11-0.09c-0.02-36-0.03-72.01-0.05-108.01c186.51-0.01,373.02-0.06,559.54-0.01
			c75.06,0.02,109.9,34.21,109.91,108.34c0.06,911.36,0.06,1822.72,0,2734.09c0,74.48-34.5,108.52-109.49,108.52
			c-782.34,0.02-1564.69,0.02-2347.03,0c-72.87,0-106.91-34.18-106.91-107.38c-0.02-912.37-0.01-1824.73,0.03-2737.1
			c0-71.16,34.63-106.42,105.09-106.39c188.52,0.08,377.04,0.45,565.56,0.7C2302.61,1285.54,2302.31,1321.23,2302.02,1356.91z"/>
		<path class="st5" d="M2913.13,1098.2c-40.88-0.17-72.38-31.75-72.55-72.74c-0.17-40.52,31.74-73.06,72.14-73.57
			c41.16-0.52,75.26,33.66,74.49,74.67C2986.45,1067.01,2954.03,1098.37,2913.13,1098.2z"/>
	</g>
</g>
<g id="Calque_2" class="st7">
	<path class="st8" d="M1469.21,3941.53c-61.27,0.01-111.75-50.5-111.75-111.81c0.01-61.36,50.34-111.66,111.73-111.66
		c61.49,0.01,111.75,50.22,111.73,111.64C1580.91,3891.04,1530.48,3941.52,1469.21,3941.53z"/>
</g>
</svg>
